%TF.GenerationSoftware,KiCad,Pcbnew,(5.1.10)-1*%
%TF.CreationDate,2021-08-25T15:37:08-07:00*%
%TF.ProjectId,fmcw,666d6377-2e6b-4696-9361-645f70636258,rev?*%
%TF.SameCoordinates,Original*%
%TF.FileFunction,Soldermask,Top*%
%TF.FilePolarity,Negative*%
%FSLAX46Y46*%
G04 Gerber Fmt 4.6, Leading zero omitted, Abs format (unit mm)*
G04 Created by KiCad (PCBNEW (5.1.10)-1) date 2021-08-25 15:37:08*
%MOMM*%
%LPD*%
G01*
G04 APERTURE LIST*
%ADD10C,0.010000*%
%ADD11R,0.700000X1.850000*%
%ADD12R,2.540000X1.651000*%
%ADD13R,1.520000X1.520000*%
%ADD14R,1.524000X1.524000*%
%ADD15R,8.000000X4.000000*%
%ADD16R,2.000000X2.200000*%
%ADD17R,2.200000X2.000000*%
%ADD18R,5.080000X1.500000*%
%ADD19R,1.000000X1.000000*%
%ADD20R,2.400000X2.400000*%
%ADD21C,2.400000*%
%ADD22R,2.200000X2.800000*%
%ADD23R,2.800000X2.800000*%
%ADD24C,1.700000*%
%ADD25R,2.000000X1.500000*%
%ADD26R,2.000000X3.800000*%
%ADD27C,1.600000*%
%ADD28R,1.600000X1.600000*%
%ADD29C,1.900000*%
%ADD30R,1.900000X0.600000*%
%ADD31R,0.610000X1.550000*%
%ADD32R,1.550000X0.610000*%
G04 APERTURE END LIST*
D10*
%TO.C,TP5*%
G36*
X87510000Y-138180000D02*
G01*
X87510000Y-138680000D01*
X87110000Y-138680000D01*
X87110000Y-138180000D01*
X87510000Y-138180000D01*
G37*
X87510000Y-138180000D02*
X87510000Y-138680000D01*
X87110000Y-138680000D01*
X87110000Y-138180000D01*
X87510000Y-138180000D01*
G36*
X85610000Y-138180000D02*
G01*
X85610000Y-138680000D01*
X85210000Y-138680000D01*
X85210000Y-138180000D01*
X85610000Y-138180000D01*
G37*
X85610000Y-138180000D02*
X85610000Y-138680000D01*
X85210000Y-138680000D01*
X85210000Y-138180000D01*
X85610000Y-138180000D01*
G36*
X85810000Y-139580000D02*
G01*
X86910000Y-139580000D01*
X86910000Y-139110000D01*
X86680000Y-138880000D01*
X86040000Y-138880000D01*
X85810000Y-139110000D01*
X85810000Y-139580000D01*
G37*
X85810000Y-139580000D02*
X86910000Y-139580000D01*
X86910000Y-139110000D01*
X86680000Y-138880000D01*
X86040000Y-138880000D01*
X85810000Y-139110000D01*
X85810000Y-139580000D01*
G36*
X86910000Y-137280000D02*
G01*
X85810000Y-137280000D01*
X85810000Y-137750000D01*
X86040000Y-137980000D01*
X86680000Y-137980000D01*
X86910000Y-137750000D01*
X86910000Y-137280000D01*
G37*
X86910000Y-137280000D02*
X85810000Y-137280000D01*
X85810000Y-137750000D01*
X86040000Y-137980000D01*
X86680000Y-137980000D01*
X86910000Y-137750000D01*
X86910000Y-137280000D01*
%TO.C,TP4*%
G36*
X101593000Y-116201000D02*
G01*
X101593000Y-115701000D01*
X101993000Y-115701000D01*
X101993000Y-116201000D01*
X101593000Y-116201000D01*
G37*
X101593000Y-116201000D02*
X101593000Y-115701000D01*
X101993000Y-115701000D01*
X101993000Y-116201000D01*
X101593000Y-116201000D01*
G36*
X103493000Y-116201000D02*
G01*
X103493000Y-115701000D01*
X103893000Y-115701000D01*
X103893000Y-116201000D01*
X103493000Y-116201000D01*
G37*
X103493000Y-116201000D02*
X103493000Y-115701000D01*
X103893000Y-115701000D01*
X103893000Y-116201000D01*
X103493000Y-116201000D01*
G36*
X103293000Y-114801000D02*
G01*
X102193000Y-114801000D01*
X102193000Y-115271000D01*
X102423000Y-115501000D01*
X103063000Y-115501000D01*
X103293000Y-115271000D01*
X103293000Y-114801000D01*
G37*
X103293000Y-114801000D02*
X102193000Y-114801000D01*
X102193000Y-115271000D01*
X102423000Y-115501000D01*
X103063000Y-115501000D01*
X103293000Y-115271000D01*
X103293000Y-114801000D01*
G36*
X102193000Y-117101000D02*
G01*
X103293000Y-117101000D01*
X103293000Y-116631000D01*
X103063000Y-116401000D01*
X102423000Y-116401000D01*
X102193000Y-116631000D01*
X102193000Y-117101000D01*
G37*
X102193000Y-117101000D02*
X103293000Y-117101000D01*
X103293000Y-116631000D01*
X103063000Y-116401000D01*
X102423000Y-116401000D01*
X102193000Y-116631000D01*
X102193000Y-117101000D01*
%TD*%
D11*
%TO.C,IC1*%
X97155000Y-139760000D03*
X95885000Y-139760000D03*
X94615000Y-139760000D03*
X93345000Y-139760000D03*
X93345000Y-134560000D03*
X94615000Y-134560000D03*
X95885000Y-134560000D03*
X97155000Y-134560000D03*
%TD*%
D12*
%TO.C,MX1*%
X115570000Y-139700000D03*
X115570000Y-137160000D03*
X115570000Y-134620000D03*
X120650000Y-134620000D03*
X120650000Y-137160000D03*
X120650000Y-139700000D03*
%TD*%
D13*
%TO.C,X1*%
X112775000Y-118615000D03*
X107695000Y-118615000D03*
X105155000Y-118615000D03*
X103375000Y-121285000D03*
X103375000Y-123825000D03*
X103375000Y-126365000D03*
D14*
X103375000Y-128905000D03*
D13*
X106045000Y-131575000D03*
X108585000Y-131575000D03*
X111125000Y-131575000D03*
X113665000Y-131575000D03*
D14*
X115455000Y-128905000D03*
D13*
X115455000Y-126365000D03*
X115445000Y-123825000D03*
X115445000Y-121285000D03*
X110235000Y-118615000D03*
%TD*%
D15*
%TO.C,U9*%
X90043000Y-124333000D03*
D16*
X97521920Y-124129280D03*
D17*
X97443000Y-128929280D03*
X94343000Y-128929280D03*
X86343000Y-128929280D03*
X82643000Y-128929280D03*
D16*
X82643000Y-124133000D03*
D17*
X86343000Y-119333000D03*
X88893000Y-119333000D03*
X91793000Y-119333000D03*
X94443000Y-119333000D03*
X97443000Y-119333000D03*
%TD*%
D15*
%TO.C,U7*%
X133604000Y-136017000D03*
D16*
X141082920Y-135813280D03*
D17*
X141004000Y-140613280D03*
X137904000Y-140613280D03*
X129904000Y-140613280D03*
X126204000Y-140613280D03*
D16*
X126204000Y-135817000D03*
D17*
X129904000Y-131017000D03*
X132454000Y-131017000D03*
X135354000Y-131017000D03*
X138004000Y-131017000D03*
X141004000Y-131017000D03*
%TD*%
D15*
%TO.C,U8*%
X154822000Y-136144000D03*
D16*
X162300920Y-135940280D03*
D17*
X162222000Y-140740280D03*
X159122000Y-140740280D03*
X151122000Y-140740280D03*
X147422000Y-140740280D03*
D16*
X147422000Y-135944000D03*
D17*
X151122000Y-131144000D03*
X153672000Y-131144000D03*
X156572000Y-131144000D03*
X159222000Y-131144000D03*
X162222000Y-131144000D03*
%TD*%
D18*
%TO.C,J4*%
X77343000Y-133486000D03*
X77343000Y-141986000D03*
X77343000Y-137736000D03*
%TD*%
%TO.C,FB1*%
G36*
G01*
X103090000Y-85659999D02*
X103090000Y-87060001D01*
G75*
G02*
X102840001Y-87310000I-249999J0D01*
G01*
X102289999Y-87310000D01*
G75*
G02*
X102040000Y-87060001I0J249999D01*
G01*
X102040000Y-85659999D01*
G75*
G02*
X102289999Y-85410000I249999J0D01*
G01*
X102840001Y-85410000D01*
G75*
G02*
X103090000Y-85659999I0J-249999D01*
G01*
G37*
G36*
G01*
X106240000Y-85659999D02*
X106240000Y-87060001D01*
G75*
G02*
X105990001Y-87310000I-249999J0D01*
G01*
X105439999Y-87310000D01*
G75*
G02*
X105190000Y-87060001I0J249999D01*
G01*
X105190000Y-85659999D01*
G75*
G02*
X105439999Y-85410000I249999J0D01*
G01*
X105990001Y-85410000D01*
G75*
G02*
X106240000Y-85659999I0J-249999D01*
G01*
G37*
%TD*%
%TO.C,C20*%
G36*
G01*
X162250000Y-104390000D02*
X162250000Y-103890000D01*
G75*
G02*
X162475000Y-103665000I225000J0D01*
G01*
X162925000Y-103665000D01*
G75*
G02*
X163150000Y-103890000I0J-225000D01*
G01*
X163150000Y-104390000D01*
G75*
G02*
X162925000Y-104615000I-225000J0D01*
G01*
X162475000Y-104615000D01*
G75*
G02*
X162250000Y-104390000I0J225000D01*
G01*
G37*
G36*
G01*
X160700000Y-104390000D02*
X160700000Y-103890000D01*
G75*
G02*
X160925000Y-103665000I225000J0D01*
G01*
X161375000Y-103665000D01*
G75*
G02*
X161600000Y-103890000I0J-225000D01*
G01*
X161600000Y-104390000D01*
G75*
G02*
X161375000Y-104615000I-225000J0D01*
G01*
X160925000Y-104615000D01*
G75*
G02*
X160700000Y-104390000I0J225000D01*
G01*
G37*
%TD*%
%TO.C,C19*%
G36*
G01*
X153420000Y-118943000D02*
X153920000Y-118943000D01*
G75*
G02*
X154145000Y-119168000I0J-225000D01*
G01*
X154145000Y-119618000D01*
G75*
G02*
X153920000Y-119843000I-225000J0D01*
G01*
X153420000Y-119843000D01*
G75*
G02*
X153195000Y-119618000I0J225000D01*
G01*
X153195000Y-119168000D01*
G75*
G02*
X153420000Y-118943000I225000J0D01*
G01*
G37*
G36*
G01*
X153420000Y-117393000D02*
X153920000Y-117393000D01*
G75*
G02*
X154145000Y-117618000I0J-225000D01*
G01*
X154145000Y-118068000D01*
G75*
G02*
X153920000Y-118293000I-225000J0D01*
G01*
X153420000Y-118293000D01*
G75*
G02*
X153195000Y-118068000I0J225000D01*
G01*
X153195000Y-117618000D01*
G75*
G02*
X153420000Y-117393000I225000J0D01*
G01*
G37*
%TD*%
%TO.C,C18*%
G36*
G01*
X118614000Y-125151000D02*
X118114000Y-125151000D01*
G75*
G02*
X117889000Y-124926000I0J225000D01*
G01*
X117889000Y-124476000D01*
G75*
G02*
X118114000Y-124251000I225000J0D01*
G01*
X118614000Y-124251000D01*
G75*
G02*
X118839000Y-124476000I0J-225000D01*
G01*
X118839000Y-124926000D01*
G75*
G02*
X118614000Y-125151000I-225000J0D01*
G01*
G37*
G36*
G01*
X118614000Y-126701000D02*
X118114000Y-126701000D01*
G75*
G02*
X117889000Y-126476000I0J225000D01*
G01*
X117889000Y-126026000D01*
G75*
G02*
X118114000Y-125801000I225000J0D01*
G01*
X118614000Y-125801000D01*
G75*
G02*
X118839000Y-126026000I0J-225000D01*
G01*
X118839000Y-126476000D01*
G75*
G02*
X118614000Y-126701000I-225000J0D01*
G01*
G37*
%TD*%
%TO.C,C17*%
G36*
G01*
X115385000Y-101985000D02*
X115385000Y-102485000D01*
G75*
G02*
X115160000Y-102710000I-225000J0D01*
G01*
X114710000Y-102710000D01*
G75*
G02*
X114485000Y-102485000I0J225000D01*
G01*
X114485000Y-101985000D01*
G75*
G02*
X114710000Y-101760000I225000J0D01*
G01*
X115160000Y-101760000D01*
G75*
G02*
X115385000Y-101985000I0J-225000D01*
G01*
G37*
G36*
G01*
X116935000Y-101985000D02*
X116935000Y-102485000D01*
G75*
G02*
X116710000Y-102710000I-225000J0D01*
G01*
X116260000Y-102710000D01*
G75*
G02*
X116035000Y-102485000I0J225000D01*
G01*
X116035000Y-101985000D01*
G75*
G02*
X116260000Y-101760000I225000J0D01*
G01*
X116710000Y-101760000D01*
G75*
G02*
X116935000Y-101985000I0J-225000D01*
G01*
G37*
%TD*%
%TO.C,C16*%
G36*
G01*
X77640000Y-92460000D02*
X77640000Y-92960000D01*
G75*
G02*
X77415000Y-93185000I-225000J0D01*
G01*
X76965000Y-93185000D01*
G75*
G02*
X76740000Y-92960000I0J225000D01*
G01*
X76740000Y-92460000D01*
G75*
G02*
X76965000Y-92235000I225000J0D01*
G01*
X77415000Y-92235000D01*
G75*
G02*
X77640000Y-92460000I0J-225000D01*
G01*
G37*
G36*
G01*
X79190000Y-92460000D02*
X79190000Y-92960000D01*
G75*
G02*
X78965000Y-93185000I-225000J0D01*
G01*
X78515000Y-93185000D01*
G75*
G02*
X78290000Y-92960000I0J225000D01*
G01*
X78290000Y-92460000D01*
G75*
G02*
X78515000Y-92235000I225000J0D01*
G01*
X78965000Y-92235000D01*
G75*
G02*
X79190000Y-92460000I0J-225000D01*
G01*
G37*
%TD*%
%TO.C,C15*%
G36*
G01*
X135961000Y-89658000D02*
X135961000Y-89158000D01*
G75*
G02*
X136186000Y-88933000I225000J0D01*
G01*
X136636000Y-88933000D01*
G75*
G02*
X136861000Y-89158000I0J-225000D01*
G01*
X136861000Y-89658000D01*
G75*
G02*
X136636000Y-89883000I-225000J0D01*
G01*
X136186000Y-89883000D01*
G75*
G02*
X135961000Y-89658000I0J225000D01*
G01*
G37*
G36*
G01*
X134411000Y-89658000D02*
X134411000Y-89158000D01*
G75*
G02*
X134636000Y-88933000I225000J0D01*
G01*
X135086000Y-88933000D01*
G75*
G02*
X135311000Y-89158000I0J-225000D01*
G01*
X135311000Y-89658000D01*
G75*
G02*
X135086000Y-89883000I-225000J0D01*
G01*
X134636000Y-89883000D01*
G75*
G02*
X134411000Y-89658000I0J225000D01*
G01*
G37*
%TD*%
%TO.C,C14*%
G36*
G01*
X128020000Y-89860000D02*
X128520000Y-89860000D01*
G75*
G02*
X128745000Y-90085000I0J-225000D01*
G01*
X128745000Y-90535000D01*
G75*
G02*
X128520000Y-90760000I-225000J0D01*
G01*
X128020000Y-90760000D01*
G75*
G02*
X127795000Y-90535000I0J225000D01*
G01*
X127795000Y-90085000D01*
G75*
G02*
X128020000Y-89860000I225000J0D01*
G01*
G37*
G36*
G01*
X128020000Y-88310000D02*
X128520000Y-88310000D01*
G75*
G02*
X128745000Y-88535000I0J-225000D01*
G01*
X128745000Y-88985000D01*
G75*
G02*
X128520000Y-89210000I-225000J0D01*
G01*
X128020000Y-89210000D01*
G75*
G02*
X127795000Y-88985000I0J225000D01*
G01*
X127795000Y-88535000D01*
G75*
G02*
X128020000Y-88310000I225000J0D01*
G01*
G37*
%TD*%
D19*
%TO.C,TP3*%
X140970000Y-85090000D03*
%TD*%
%TO.C,TP2*%
X134620000Y-85090000D03*
%TD*%
%TO.C,TP1*%
X128270000Y-85090000D03*
%TD*%
%TO.C,C1*%
G36*
G01*
X137418000Y-94787000D02*
X137918000Y-94787000D01*
G75*
G02*
X138143000Y-95012000I0J-225000D01*
G01*
X138143000Y-95462000D01*
G75*
G02*
X137918000Y-95687000I-225000J0D01*
G01*
X137418000Y-95687000D01*
G75*
G02*
X137193000Y-95462000I0J225000D01*
G01*
X137193000Y-95012000D01*
G75*
G02*
X137418000Y-94787000I225000J0D01*
G01*
G37*
G36*
G01*
X137418000Y-96337000D02*
X137918000Y-96337000D01*
G75*
G02*
X138143000Y-96562000I0J-225000D01*
G01*
X138143000Y-97012000D01*
G75*
G02*
X137918000Y-97237000I-225000J0D01*
G01*
X137418000Y-97237000D01*
G75*
G02*
X137193000Y-97012000I0J225000D01*
G01*
X137193000Y-96562000D01*
G75*
G02*
X137418000Y-96337000I225000J0D01*
G01*
G37*
%TD*%
%TO.C,C2*%
G36*
G01*
X133787000Y-91698000D02*
X133787000Y-92198000D01*
G75*
G02*
X133562000Y-92423000I-225000J0D01*
G01*
X133112000Y-92423000D01*
G75*
G02*
X132887000Y-92198000I0J225000D01*
G01*
X132887000Y-91698000D01*
G75*
G02*
X133112000Y-91473000I225000J0D01*
G01*
X133562000Y-91473000D01*
G75*
G02*
X133787000Y-91698000I0J-225000D01*
G01*
G37*
G36*
G01*
X135337000Y-91698000D02*
X135337000Y-92198000D01*
G75*
G02*
X135112000Y-92423000I-225000J0D01*
G01*
X134662000Y-92423000D01*
G75*
G02*
X134437000Y-92198000I0J225000D01*
G01*
X134437000Y-91698000D01*
G75*
G02*
X134662000Y-91473000I225000J0D01*
G01*
X135112000Y-91473000D01*
G75*
G02*
X135337000Y-91698000I0J-225000D01*
G01*
G37*
%TD*%
%TO.C,C3*%
G36*
G01*
X109986000Y-85884000D02*
X110486000Y-85884000D01*
G75*
G02*
X110711000Y-86109000I0J-225000D01*
G01*
X110711000Y-86559000D01*
G75*
G02*
X110486000Y-86784000I-225000J0D01*
G01*
X109986000Y-86784000D01*
G75*
G02*
X109761000Y-86559000I0J225000D01*
G01*
X109761000Y-86109000D01*
G75*
G02*
X109986000Y-85884000I225000J0D01*
G01*
G37*
G36*
G01*
X109986000Y-87434000D02*
X110486000Y-87434000D01*
G75*
G02*
X110711000Y-87659000I0J-225000D01*
G01*
X110711000Y-88109000D01*
G75*
G02*
X110486000Y-88334000I-225000J0D01*
G01*
X109986000Y-88334000D01*
G75*
G02*
X109761000Y-88109000I0J225000D01*
G01*
X109761000Y-87659000D01*
G75*
G02*
X109986000Y-87434000I225000J0D01*
G01*
G37*
%TD*%
%TO.C,C4*%
G36*
G01*
X110660000Y-91190000D02*
X110660000Y-91690000D01*
G75*
G02*
X110435000Y-91915000I-225000J0D01*
G01*
X109985000Y-91915000D01*
G75*
G02*
X109760000Y-91690000I0J225000D01*
G01*
X109760000Y-91190000D01*
G75*
G02*
X109985000Y-90965000I225000J0D01*
G01*
X110435000Y-90965000D01*
G75*
G02*
X110660000Y-91190000I0J-225000D01*
G01*
G37*
G36*
G01*
X112210000Y-91190000D02*
X112210000Y-91690000D01*
G75*
G02*
X111985000Y-91915000I-225000J0D01*
G01*
X111535000Y-91915000D01*
G75*
G02*
X111310000Y-91690000I0J225000D01*
G01*
X111310000Y-91190000D01*
G75*
G02*
X111535000Y-90965000I225000J0D01*
G01*
X111985000Y-90965000D01*
G75*
G02*
X112210000Y-91190000I0J-225000D01*
G01*
G37*
%TD*%
%TO.C,C5*%
G36*
G01*
X127058000Y-104898000D02*
X127058000Y-104398000D01*
G75*
G02*
X127283000Y-104173000I225000J0D01*
G01*
X127733000Y-104173000D01*
G75*
G02*
X127958000Y-104398000I0J-225000D01*
G01*
X127958000Y-104898000D01*
G75*
G02*
X127733000Y-105123000I-225000J0D01*
G01*
X127283000Y-105123000D01*
G75*
G02*
X127058000Y-104898000I0J225000D01*
G01*
G37*
G36*
G01*
X128608000Y-104898000D02*
X128608000Y-104398000D01*
G75*
G02*
X128833000Y-104173000I225000J0D01*
G01*
X129283000Y-104173000D01*
G75*
G02*
X129508000Y-104398000I0J-225000D01*
G01*
X129508000Y-104898000D01*
G75*
G02*
X129283000Y-105123000I-225000J0D01*
G01*
X128833000Y-105123000D01*
G75*
G02*
X128608000Y-104898000I0J225000D01*
G01*
G37*
%TD*%
%TO.C,C6*%
G36*
G01*
X127553000Y-143760000D02*
X127553000Y-143260000D01*
G75*
G02*
X127778000Y-143035000I225000J0D01*
G01*
X128228000Y-143035000D01*
G75*
G02*
X128453000Y-143260000I0J-225000D01*
G01*
X128453000Y-143760000D01*
G75*
G02*
X128228000Y-143985000I-225000J0D01*
G01*
X127778000Y-143985000D01*
G75*
G02*
X127553000Y-143760000I0J225000D01*
G01*
G37*
G36*
G01*
X129103000Y-143760000D02*
X129103000Y-143260000D01*
G75*
G02*
X129328000Y-143035000I225000J0D01*
G01*
X129778000Y-143035000D01*
G75*
G02*
X130003000Y-143260000I0J-225000D01*
G01*
X130003000Y-143760000D01*
G75*
G02*
X129778000Y-143985000I-225000J0D01*
G01*
X129328000Y-143985000D01*
G75*
G02*
X129103000Y-143760000I0J225000D01*
G01*
G37*
%TD*%
%TO.C,C7*%
G36*
G01*
X136975000Y-123575000D02*
X136975000Y-124075000D01*
G75*
G02*
X136750000Y-124300000I-225000J0D01*
G01*
X136300000Y-124300000D01*
G75*
G02*
X136075000Y-124075000I0J225000D01*
G01*
X136075000Y-123575000D01*
G75*
G02*
X136300000Y-123350000I225000J0D01*
G01*
X136750000Y-123350000D01*
G75*
G02*
X136975000Y-123575000I0J-225000D01*
G01*
G37*
G36*
G01*
X138525000Y-123575000D02*
X138525000Y-124075000D01*
G75*
G02*
X138300000Y-124300000I-225000J0D01*
G01*
X137850000Y-124300000D01*
G75*
G02*
X137625000Y-124075000I0J225000D01*
G01*
X137625000Y-123575000D01*
G75*
G02*
X137850000Y-123350000I225000J0D01*
G01*
X138300000Y-123350000D01*
G75*
G02*
X138525000Y-123575000I0J-225000D01*
G01*
G37*
%TD*%
%TO.C,C8*%
G36*
G01*
X152650000Y-123653000D02*
X152150000Y-123653000D01*
G75*
G02*
X151925000Y-123428000I0J225000D01*
G01*
X151925000Y-122978000D01*
G75*
G02*
X152150000Y-122753000I225000J0D01*
G01*
X152650000Y-122753000D01*
G75*
G02*
X152875000Y-122978000I0J-225000D01*
G01*
X152875000Y-123428000D01*
G75*
G02*
X152650000Y-123653000I-225000J0D01*
G01*
G37*
G36*
G01*
X152650000Y-122103000D02*
X152150000Y-122103000D01*
G75*
G02*
X151925000Y-121878000I0J225000D01*
G01*
X151925000Y-121428000D01*
G75*
G02*
X152150000Y-121203000I225000J0D01*
G01*
X152650000Y-121203000D01*
G75*
G02*
X152875000Y-121428000I0J-225000D01*
G01*
X152875000Y-121878000D01*
G75*
G02*
X152650000Y-122103000I-225000J0D01*
G01*
G37*
%TD*%
%TO.C,C9*%
G36*
G01*
X154055000Y-124111000D02*
X154555000Y-124111000D01*
G75*
G02*
X154780000Y-124336000I0J-225000D01*
G01*
X154780000Y-124786000D01*
G75*
G02*
X154555000Y-125011000I-225000J0D01*
G01*
X154055000Y-125011000D01*
G75*
G02*
X153830000Y-124786000I0J225000D01*
G01*
X153830000Y-124336000D01*
G75*
G02*
X154055000Y-124111000I225000J0D01*
G01*
G37*
G36*
G01*
X154055000Y-125661000D02*
X154555000Y-125661000D01*
G75*
G02*
X154780000Y-125886000I0J-225000D01*
G01*
X154780000Y-126336000D01*
G75*
G02*
X154555000Y-126561000I-225000J0D01*
G01*
X154055000Y-126561000D01*
G75*
G02*
X153830000Y-126336000I0J225000D01*
G01*
X153830000Y-125886000D01*
G75*
G02*
X154055000Y-125661000I225000J0D01*
G01*
G37*
%TD*%
%TO.C,C10*%
G36*
G01*
X164637000Y-118106000D02*
X164637000Y-117606000D01*
G75*
G02*
X164862000Y-117381000I225000J0D01*
G01*
X165312000Y-117381000D01*
G75*
G02*
X165537000Y-117606000I0J-225000D01*
G01*
X165537000Y-118106000D01*
G75*
G02*
X165312000Y-118331000I-225000J0D01*
G01*
X164862000Y-118331000D01*
G75*
G02*
X164637000Y-118106000I0J225000D01*
G01*
G37*
G36*
G01*
X166187000Y-118106000D02*
X166187000Y-117606000D01*
G75*
G02*
X166412000Y-117381000I225000J0D01*
G01*
X166862000Y-117381000D01*
G75*
G02*
X167087000Y-117606000I0J-225000D01*
G01*
X167087000Y-118106000D01*
G75*
G02*
X166862000Y-118331000I-225000J0D01*
G01*
X166412000Y-118331000D01*
G75*
G02*
X166187000Y-118106000I0J225000D01*
G01*
G37*
%TD*%
%TO.C,C11*%
G36*
G01*
X149675000Y-143387000D02*
X149675000Y-143887000D01*
G75*
G02*
X149450000Y-144112000I-225000J0D01*
G01*
X149000000Y-144112000D01*
G75*
G02*
X148775000Y-143887000I0J225000D01*
G01*
X148775000Y-143387000D01*
G75*
G02*
X149000000Y-143162000I225000J0D01*
G01*
X149450000Y-143162000D01*
G75*
G02*
X149675000Y-143387000I0J-225000D01*
G01*
G37*
G36*
G01*
X151225000Y-143387000D02*
X151225000Y-143887000D01*
G75*
G02*
X151000000Y-144112000I-225000J0D01*
G01*
X150550000Y-144112000D01*
G75*
G02*
X150325000Y-143887000I0J225000D01*
G01*
X150325000Y-143387000D01*
G75*
G02*
X150550000Y-143162000I225000J0D01*
G01*
X151000000Y-143162000D01*
G75*
G02*
X151225000Y-143387000I0J-225000D01*
G01*
G37*
%TD*%
%TO.C,C12*%
G36*
G01*
X89578000Y-130814000D02*
X89578000Y-131314000D01*
G75*
G02*
X89353000Y-131539000I-225000J0D01*
G01*
X88903000Y-131539000D01*
G75*
G02*
X88678000Y-131314000I0J225000D01*
G01*
X88678000Y-130814000D01*
G75*
G02*
X88903000Y-130589000I225000J0D01*
G01*
X89353000Y-130589000D01*
G75*
G02*
X89578000Y-130814000I0J-225000D01*
G01*
G37*
G36*
G01*
X91128000Y-130814000D02*
X91128000Y-131314000D01*
G75*
G02*
X90903000Y-131539000I-225000J0D01*
G01*
X90453000Y-131539000D01*
G75*
G02*
X90228000Y-131314000I0J225000D01*
G01*
X90228000Y-130814000D01*
G75*
G02*
X90453000Y-130589000I225000J0D01*
G01*
X90903000Y-130589000D01*
G75*
G02*
X91128000Y-130814000I0J-225000D01*
G01*
G37*
%TD*%
%TO.C,C13*%
G36*
G01*
X126677000Y-108835000D02*
X126677000Y-108335000D01*
G75*
G02*
X126902000Y-108110000I225000J0D01*
G01*
X127352000Y-108110000D01*
G75*
G02*
X127577000Y-108335000I0J-225000D01*
G01*
X127577000Y-108835000D01*
G75*
G02*
X127352000Y-109060000I-225000J0D01*
G01*
X126902000Y-109060000D01*
G75*
G02*
X126677000Y-108835000I0J225000D01*
G01*
G37*
G36*
G01*
X125127000Y-108835000D02*
X125127000Y-108335000D01*
G75*
G02*
X125352000Y-108110000I225000J0D01*
G01*
X125802000Y-108110000D01*
G75*
G02*
X126027000Y-108335000I0J-225000D01*
G01*
X126027000Y-108835000D01*
G75*
G02*
X125802000Y-109060000I-225000J0D01*
G01*
X125352000Y-109060000D01*
G75*
G02*
X125127000Y-108835000I0J225000D01*
G01*
G37*
%TD*%
%TO.C,D1*%
G36*
G01*
X96263750Y-90697500D02*
X96776250Y-90697500D01*
G75*
G02*
X96995000Y-90916250I0J-218750D01*
G01*
X96995000Y-91353750D01*
G75*
G02*
X96776250Y-91572500I-218750J0D01*
G01*
X96263750Y-91572500D01*
G75*
G02*
X96045000Y-91353750I0J218750D01*
G01*
X96045000Y-90916250D01*
G75*
G02*
X96263750Y-90697500I218750J0D01*
G01*
G37*
G36*
G01*
X96263750Y-92272500D02*
X96776250Y-92272500D01*
G75*
G02*
X96995000Y-92491250I0J-218750D01*
G01*
X96995000Y-92928750D01*
G75*
G02*
X96776250Y-93147500I-218750J0D01*
G01*
X96263750Y-93147500D01*
G75*
G02*
X96045000Y-92928750I0J218750D01*
G01*
X96045000Y-92491250D01*
G75*
G02*
X96263750Y-92272500I218750J0D01*
G01*
G37*
%TD*%
%TO.C,D2*%
G36*
G01*
X91572500Y-86103750D02*
X91572500Y-86616250D01*
G75*
G02*
X91353750Y-86835000I-218750J0D01*
G01*
X90916250Y-86835000D01*
G75*
G02*
X90697500Y-86616250I0J218750D01*
G01*
X90697500Y-86103750D01*
G75*
G02*
X90916250Y-85885000I218750J0D01*
G01*
X91353750Y-85885000D01*
G75*
G02*
X91572500Y-86103750I0J-218750D01*
G01*
G37*
G36*
G01*
X93147500Y-86103750D02*
X93147500Y-86616250D01*
G75*
G02*
X92928750Y-86835000I-218750J0D01*
G01*
X92491250Y-86835000D01*
G75*
G02*
X92272500Y-86616250I0J218750D01*
G01*
X92272500Y-86103750D01*
G75*
G02*
X92491250Y-85885000I218750J0D01*
G01*
X92928750Y-85885000D01*
G75*
G02*
X93147500Y-86103750I0J-218750D01*
G01*
G37*
%TD*%
%TO.C,F1*%
G36*
G01*
X95895000Y-86985000D02*
X95895000Y-85735000D01*
G75*
G02*
X96145000Y-85485000I250000J0D01*
G01*
X96895000Y-85485000D01*
G75*
G02*
X97145000Y-85735000I0J-250000D01*
G01*
X97145000Y-86985000D01*
G75*
G02*
X96895000Y-87235000I-250000J0D01*
G01*
X96145000Y-87235000D01*
G75*
G02*
X95895000Y-86985000I0J250000D01*
G01*
G37*
G36*
G01*
X98695000Y-86985000D02*
X98695000Y-85735000D01*
G75*
G02*
X98945000Y-85485000I250000J0D01*
G01*
X99695000Y-85485000D01*
G75*
G02*
X99945000Y-85735000I0J-250000D01*
G01*
X99945000Y-86985000D01*
G75*
G02*
X99695000Y-87235000I-250000J0D01*
G01*
X98945000Y-87235000D01*
G75*
G02*
X98695000Y-86985000I0J250000D01*
G01*
G37*
%TD*%
D20*
%TO.C,J1*%
X85090000Y-86360000D03*
D21*
X81590000Y-86360000D03*
%TD*%
D22*
%TO.C,J3*%
X164160000Y-95140000D03*
X166160000Y-87740000D03*
D23*
X156760000Y-87740000D03*
D24*
X165060000Y-91440000D03*
X158060000Y-91440000D03*
%TD*%
D18*
%TO.C,J5*%
X171704000Y-136271000D03*
X171704000Y-132021000D03*
X171704000Y-140521000D03*
%TD*%
%TO.C,R2*%
G36*
G01*
X139975000Y-115716000D02*
X139425000Y-115716000D01*
G75*
G02*
X139225000Y-115516000I0J200000D01*
G01*
X139225000Y-115116000D01*
G75*
G02*
X139425000Y-114916000I200000J0D01*
G01*
X139975000Y-114916000D01*
G75*
G02*
X140175000Y-115116000I0J-200000D01*
G01*
X140175000Y-115516000D01*
G75*
G02*
X139975000Y-115716000I-200000J0D01*
G01*
G37*
G36*
G01*
X139975000Y-114066000D02*
X139425000Y-114066000D01*
G75*
G02*
X139225000Y-113866000I0J200000D01*
G01*
X139225000Y-113466000D01*
G75*
G02*
X139425000Y-113266000I200000J0D01*
G01*
X139975000Y-113266000D01*
G75*
G02*
X140175000Y-113466000I0J-200000D01*
G01*
X140175000Y-113866000D01*
G75*
G02*
X139975000Y-114066000I-200000J0D01*
G01*
G37*
%TD*%
%TO.C,R3*%
G36*
G01*
X148165000Y-121010000D02*
X148165000Y-121560000D01*
G75*
G02*
X147965000Y-121760000I-200000J0D01*
G01*
X147565000Y-121760000D01*
G75*
G02*
X147365000Y-121560000I0J200000D01*
G01*
X147365000Y-121010000D01*
G75*
G02*
X147565000Y-120810000I200000J0D01*
G01*
X147965000Y-120810000D01*
G75*
G02*
X148165000Y-121010000I0J-200000D01*
G01*
G37*
G36*
G01*
X149815000Y-121010000D02*
X149815000Y-121560000D01*
G75*
G02*
X149615000Y-121760000I-200000J0D01*
G01*
X149215000Y-121760000D01*
G75*
G02*
X149015000Y-121560000I0J200000D01*
G01*
X149015000Y-121010000D01*
G75*
G02*
X149215000Y-120810000I200000J0D01*
G01*
X149615000Y-120810000D01*
G75*
G02*
X149815000Y-121010000I0J-200000D01*
G01*
G37*
%TD*%
%TO.C,R4*%
G36*
G01*
X147910000Y-117835000D02*
X147910000Y-118385000D01*
G75*
G02*
X147710000Y-118585000I-200000J0D01*
G01*
X147310000Y-118585000D01*
G75*
G02*
X147110000Y-118385000I0J200000D01*
G01*
X147110000Y-117835000D01*
G75*
G02*
X147310000Y-117635000I200000J0D01*
G01*
X147710000Y-117635000D01*
G75*
G02*
X147910000Y-117835000I0J-200000D01*
G01*
G37*
G36*
G01*
X146260000Y-117835000D02*
X146260000Y-118385000D01*
G75*
G02*
X146060000Y-118585000I-200000J0D01*
G01*
X145660000Y-118585000D01*
G75*
G02*
X145460000Y-118385000I0J200000D01*
G01*
X145460000Y-117835000D01*
G75*
G02*
X145660000Y-117635000I200000J0D01*
G01*
X146060000Y-117635000D01*
G75*
G02*
X146260000Y-117835000I0J-200000D01*
G01*
G37*
%TD*%
%TO.C,R5*%
G36*
G01*
X146071000Y-123527000D02*
X145521000Y-123527000D01*
G75*
G02*
X145321000Y-123327000I0J200000D01*
G01*
X145321000Y-122927000D01*
G75*
G02*
X145521000Y-122727000I200000J0D01*
G01*
X146071000Y-122727000D01*
G75*
G02*
X146271000Y-122927000I0J-200000D01*
G01*
X146271000Y-123327000D01*
G75*
G02*
X146071000Y-123527000I-200000J0D01*
G01*
G37*
G36*
G01*
X146071000Y-125177000D02*
X145521000Y-125177000D01*
G75*
G02*
X145321000Y-124977000I0J200000D01*
G01*
X145321000Y-124577000D01*
G75*
G02*
X145521000Y-124377000I200000J0D01*
G01*
X146071000Y-124377000D01*
G75*
G02*
X146271000Y-124577000I0J-200000D01*
G01*
X146271000Y-124977000D01*
G75*
G02*
X146071000Y-125177000I-200000J0D01*
G01*
G37*
%TD*%
%TO.C,R6*%
G36*
G01*
X149585000Y-126345000D02*
X150135000Y-126345000D01*
G75*
G02*
X150335000Y-126545000I0J-200000D01*
G01*
X150335000Y-126945000D01*
G75*
G02*
X150135000Y-127145000I-200000J0D01*
G01*
X149585000Y-127145000D01*
G75*
G02*
X149385000Y-126945000I0J200000D01*
G01*
X149385000Y-126545000D01*
G75*
G02*
X149585000Y-126345000I200000J0D01*
G01*
G37*
G36*
G01*
X149585000Y-124695000D02*
X150135000Y-124695000D01*
G75*
G02*
X150335000Y-124895000I0J-200000D01*
G01*
X150335000Y-125295000D01*
G75*
G02*
X150135000Y-125495000I-200000J0D01*
G01*
X149585000Y-125495000D01*
G75*
G02*
X149385000Y-125295000I0J200000D01*
G01*
X149385000Y-124895000D01*
G75*
G02*
X149585000Y-124695000I200000J0D01*
G01*
G37*
%TD*%
%TO.C,R7*%
G36*
G01*
X157372000Y-121645000D02*
X157372000Y-122195000D01*
G75*
G02*
X157172000Y-122395000I-200000J0D01*
G01*
X156772000Y-122395000D01*
G75*
G02*
X156572000Y-122195000I0J200000D01*
G01*
X156572000Y-121645000D01*
G75*
G02*
X156772000Y-121445000I200000J0D01*
G01*
X157172000Y-121445000D01*
G75*
G02*
X157372000Y-121645000I0J-200000D01*
G01*
G37*
G36*
G01*
X155722000Y-121645000D02*
X155722000Y-122195000D01*
G75*
G02*
X155522000Y-122395000I-200000J0D01*
G01*
X155122000Y-122395000D01*
G75*
G02*
X154922000Y-122195000I0J200000D01*
G01*
X154922000Y-121645000D01*
G75*
G02*
X155122000Y-121445000I200000J0D01*
G01*
X155522000Y-121445000D01*
G75*
G02*
X155722000Y-121645000I0J-200000D01*
G01*
G37*
%TD*%
%TO.C,R8*%
G36*
G01*
X159025000Y-126511000D02*
X158475000Y-126511000D01*
G75*
G02*
X158275000Y-126311000I0J200000D01*
G01*
X158275000Y-125911000D01*
G75*
G02*
X158475000Y-125711000I200000J0D01*
G01*
X159025000Y-125711000D01*
G75*
G02*
X159225000Y-125911000I0J-200000D01*
G01*
X159225000Y-126311000D01*
G75*
G02*
X159025000Y-126511000I-200000J0D01*
G01*
G37*
G36*
G01*
X159025000Y-124861000D02*
X158475000Y-124861000D01*
G75*
G02*
X158275000Y-124661000I0J200000D01*
G01*
X158275000Y-124261000D01*
G75*
G02*
X158475000Y-124061000I200000J0D01*
G01*
X159025000Y-124061000D01*
G75*
G02*
X159225000Y-124261000I0J-200000D01*
G01*
X159225000Y-124661000D01*
G75*
G02*
X159025000Y-124861000I-200000J0D01*
G01*
G37*
%TD*%
%TO.C,R9*%
G36*
G01*
X160445000Y-118385000D02*
X160445000Y-117835000D01*
G75*
G02*
X160645000Y-117635000I200000J0D01*
G01*
X161045000Y-117635000D01*
G75*
G02*
X161245000Y-117835000I0J-200000D01*
G01*
X161245000Y-118385000D01*
G75*
G02*
X161045000Y-118585000I-200000J0D01*
G01*
X160645000Y-118585000D01*
G75*
G02*
X160445000Y-118385000I0J200000D01*
G01*
G37*
G36*
G01*
X158795000Y-118385000D02*
X158795000Y-117835000D01*
G75*
G02*
X158995000Y-117635000I200000J0D01*
G01*
X159395000Y-117635000D01*
G75*
G02*
X159595000Y-117835000I0J-200000D01*
G01*
X159595000Y-118385000D01*
G75*
G02*
X159395000Y-118585000I-200000J0D01*
G01*
X158995000Y-118585000D01*
G75*
G02*
X158795000Y-118385000I0J200000D01*
G01*
G37*
%TD*%
%TO.C,R10*%
G36*
G01*
X163278000Y-122153000D02*
X163278000Y-122703000D01*
G75*
G02*
X163078000Y-122903000I-200000J0D01*
G01*
X162678000Y-122903000D01*
G75*
G02*
X162478000Y-122703000I0J200000D01*
G01*
X162478000Y-122153000D01*
G75*
G02*
X162678000Y-121953000I200000J0D01*
G01*
X163078000Y-121953000D01*
G75*
G02*
X163278000Y-122153000I0J-200000D01*
G01*
G37*
G36*
G01*
X164928000Y-122153000D02*
X164928000Y-122703000D01*
G75*
G02*
X164728000Y-122903000I-200000J0D01*
G01*
X164328000Y-122903000D01*
G75*
G02*
X164128000Y-122703000I0J200000D01*
G01*
X164128000Y-122153000D01*
G75*
G02*
X164328000Y-121953000I200000J0D01*
G01*
X164728000Y-121953000D01*
G75*
G02*
X164928000Y-122153000I0J-200000D01*
G01*
G37*
%TD*%
%TO.C,R11*%
G36*
G01*
X167914000Y-114025000D02*
X167914000Y-114575000D01*
G75*
G02*
X167714000Y-114775000I-200000J0D01*
G01*
X167314000Y-114775000D01*
G75*
G02*
X167114000Y-114575000I0J200000D01*
G01*
X167114000Y-114025000D01*
G75*
G02*
X167314000Y-113825000I200000J0D01*
G01*
X167714000Y-113825000D01*
G75*
G02*
X167914000Y-114025000I0J-200000D01*
G01*
G37*
G36*
G01*
X169564000Y-114025000D02*
X169564000Y-114575000D01*
G75*
G02*
X169364000Y-114775000I-200000J0D01*
G01*
X168964000Y-114775000D01*
G75*
G02*
X168764000Y-114575000I0J200000D01*
G01*
X168764000Y-114025000D01*
G75*
G02*
X168964000Y-113825000I200000J0D01*
G01*
X169364000Y-113825000D01*
G75*
G02*
X169564000Y-114025000I0J-200000D01*
G01*
G37*
%TD*%
%TO.C,R12*%
G36*
G01*
X165907000Y-110384000D02*
X165907000Y-109834000D01*
G75*
G02*
X166107000Y-109634000I200000J0D01*
G01*
X166507000Y-109634000D01*
G75*
G02*
X166707000Y-109834000I0J-200000D01*
G01*
X166707000Y-110384000D01*
G75*
G02*
X166507000Y-110584000I-200000J0D01*
G01*
X166107000Y-110584000D01*
G75*
G02*
X165907000Y-110384000I0J200000D01*
G01*
G37*
G36*
G01*
X167557000Y-110384000D02*
X167557000Y-109834000D01*
G75*
G02*
X167757000Y-109634000I200000J0D01*
G01*
X168157000Y-109634000D01*
G75*
G02*
X168357000Y-109834000I0J-200000D01*
G01*
X168357000Y-110384000D01*
G75*
G02*
X168157000Y-110584000I-200000J0D01*
G01*
X167757000Y-110584000D01*
G75*
G02*
X167557000Y-110384000I0J200000D01*
G01*
G37*
%TD*%
%TO.C,R13*%
G36*
G01*
X156700000Y-104415000D02*
X156700000Y-103865000D01*
G75*
G02*
X156900000Y-103665000I200000J0D01*
G01*
X157300000Y-103665000D01*
G75*
G02*
X157500000Y-103865000I0J-200000D01*
G01*
X157500000Y-104415000D01*
G75*
G02*
X157300000Y-104615000I-200000J0D01*
G01*
X156900000Y-104615000D01*
G75*
G02*
X156700000Y-104415000I0J200000D01*
G01*
G37*
G36*
G01*
X158350000Y-104415000D02*
X158350000Y-103865000D01*
G75*
G02*
X158550000Y-103665000I200000J0D01*
G01*
X158950000Y-103665000D01*
G75*
G02*
X159150000Y-103865000I0J-200000D01*
G01*
X159150000Y-104415000D01*
G75*
G02*
X158950000Y-104615000I-200000J0D01*
G01*
X158550000Y-104615000D01*
G75*
G02*
X158350000Y-104415000I0J200000D01*
G01*
G37*
%TD*%
%TO.C,R14*%
G36*
G01*
X161652000Y-101367000D02*
X161652000Y-100817000D01*
G75*
G02*
X161852000Y-100617000I200000J0D01*
G01*
X162252000Y-100617000D01*
G75*
G02*
X162452000Y-100817000I0J-200000D01*
G01*
X162452000Y-101367000D01*
G75*
G02*
X162252000Y-101567000I-200000J0D01*
G01*
X161852000Y-101567000D01*
G75*
G02*
X161652000Y-101367000I0J200000D01*
G01*
G37*
G36*
G01*
X160002000Y-101367000D02*
X160002000Y-100817000D01*
G75*
G02*
X160202000Y-100617000I200000J0D01*
G01*
X160602000Y-100617000D01*
G75*
G02*
X160802000Y-100817000I0J-200000D01*
G01*
X160802000Y-101367000D01*
G75*
G02*
X160602000Y-101567000I-200000J0D01*
G01*
X160202000Y-101567000D01*
G75*
G02*
X160002000Y-101367000I0J200000D01*
G01*
G37*
%TD*%
%TO.C,R15*%
G36*
G01*
X165883000Y-101301000D02*
X165333000Y-101301000D01*
G75*
G02*
X165133000Y-101101000I0J200000D01*
G01*
X165133000Y-100701000D01*
G75*
G02*
X165333000Y-100501000I200000J0D01*
G01*
X165883000Y-100501000D01*
G75*
G02*
X166083000Y-100701000I0J-200000D01*
G01*
X166083000Y-101101000D01*
G75*
G02*
X165883000Y-101301000I-200000J0D01*
G01*
G37*
G36*
G01*
X165883000Y-99651000D02*
X165333000Y-99651000D01*
G75*
G02*
X165133000Y-99451000I0J200000D01*
G01*
X165133000Y-99051000D01*
G75*
G02*
X165333000Y-98851000I200000J0D01*
G01*
X165883000Y-98851000D01*
G75*
G02*
X166083000Y-99051000I0J-200000D01*
G01*
X166083000Y-99451000D01*
G75*
G02*
X165883000Y-99651000I-200000J0D01*
G01*
G37*
%TD*%
D25*
%TO.C,U1*%
X140106000Y-89648000D03*
X140106000Y-94248000D03*
X140106000Y-91948000D03*
D26*
X146406000Y-91948000D03*
%TD*%
%TO.C,U2*%
X122124000Y-88900000D03*
D25*
X115824000Y-88900000D03*
X115824000Y-91200000D03*
X115824000Y-86600000D03*
%TD*%
D27*
%TO.C,U3*%
X111760000Y-102870000D03*
X111760000Y-100330000D03*
X111760000Y-97790000D03*
X111760000Y-95250000D03*
X111760000Y-105410000D03*
X111760000Y-107950000D03*
X111760000Y-110490000D03*
X109220000Y-95250000D03*
X106680000Y-95250000D03*
X104140000Y-95250000D03*
X101600000Y-95250000D03*
X99060000Y-95250000D03*
X96520000Y-95250000D03*
X93980000Y-95250000D03*
X91440000Y-95250000D03*
X88900000Y-95250000D03*
X86360000Y-95250000D03*
X83820000Y-95250000D03*
X81280000Y-95250000D03*
X78740000Y-95250000D03*
X81280000Y-97790000D03*
X86360000Y-97790000D03*
X88900000Y-97790000D03*
X91440000Y-97790000D03*
X109220000Y-110490000D03*
X106680000Y-110490000D03*
X104140000Y-110490000D03*
X101600000Y-110490000D03*
X99060000Y-110490000D03*
X96520000Y-110490000D03*
X93980000Y-110490000D03*
X91440000Y-110490000D03*
X88900000Y-110490000D03*
X86360000Y-110490000D03*
X83820000Y-110490000D03*
X81280000Y-110490000D03*
D28*
X78740000Y-110490000D03*
D29*
X88900000Y-102870000D03*
X85090000Y-102870000D03*
%TD*%
D30*
%TO.C,U4*%
X124375000Y-102235000D03*
X124375000Y-103505000D03*
X124375000Y-104775000D03*
X124375000Y-106045000D03*
X119465000Y-106045000D03*
X119465000Y-104775000D03*
X119465000Y-103505000D03*
X119465000Y-102235000D03*
%TD*%
D31*
%TO.C,U6*%
X104140000Y-141224000D03*
D32*
X105730000Y-139674000D03*
D31*
X104140000Y-138089000D03*
D32*
X102550000Y-139674000D03*
%TD*%
M02*
