%TF.GenerationSoftware,KiCad,Pcbnew,(5.1.10)-1*%
%TF.CreationDate,2021-08-25T15:37:07-07:00*%
%TF.ProjectId,fmcw,666d6377-2e6b-4696-9361-645f70636258,rev?*%
%TF.SameCoordinates,Original*%
%TF.FileFunction,Copper,L4,Bot*%
%TF.FilePolarity,Positive*%
%FSLAX46Y46*%
G04 Gerber Fmt 4.6, Leading zero omitted, Abs format (unit mm)*
G04 Created by KiCad (PCBNEW (5.1.10)-1) date 2021-08-25 15:37:07*
%MOMM*%
%LPD*%
G01*
G04 APERTURE LIST*
%TA.AperFunction,SMDPad,CuDef*%
%ADD10R,5.080000X1.500000*%
%TD*%
%TA.AperFunction,ComponentPad*%
%ADD11R,2.400000X2.400000*%
%TD*%
%TA.AperFunction,ComponentPad*%
%ADD12C,2.400000*%
%TD*%
%TA.AperFunction,ComponentPad*%
%ADD13C,1.600000*%
%TD*%
%TA.AperFunction,ComponentPad*%
%ADD14R,1.600000X1.600000*%
%TD*%
%TA.AperFunction,ComponentPad*%
%ADD15C,1.900000*%
%TD*%
%TA.AperFunction,ComponentPad*%
%ADD16R,1.500000X1.500000*%
%TD*%
%TA.AperFunction,ComponentPad*%
%ADD17C,1.500000*%
%TD*%
%TA.AperFunction,ViaPad*%
%ADD18C,0.800000*%
%TD*%
G04 APERTURE END LIST*
D10*
%TO.P,J4,2*%
%TO.N,GND*%
X77343000Y-133486000D03*
X77343000Y-141986000D03*
%TD*%
D11*
%TO.P,J1,1*%
%TO.N,+BATT*%
X85090000Y-86360000D03*
D12*
%TO.P,J1,2*%
%TO.N,GND*%
X81590000Y-86360000D03*
%TD*%
D10*
%TO.P,J5,2*%
%TO.N,GND*%
X171704000Y-132021000D03*
X171704000Y-140521000D03*
%TD*%
D13*
%TO.P,U3,17*%
%TO.N,Net-(U3-Pad17)*%
X111760000Y-102870000D03*
%TO.P,U3,18*%
%TO.N,Net-(U3-Pad18)*%
X111760000Y-100330000D03*
%TO.P,U3,19*%
%TO.N,Net-(U3-Pad19)*%
X111760000Y-97790000D03*
%TO.P,U3,20*%
%TO.N,Net-(U3-Pad20)*%
X111760000Y-95250000D03*
%TO.P,U3,16*%
%TO.N,Net-(U3-Pad16)*%
X111760000Y-105410000D03*
%TO.P,U3,15*%
%TO.N,Net-(U3-Pad15)*%
X111760000Y-107950000D03*
%TO.P,U3,14*%
%TO.N,Net-(U3-Pad14)*%
X111760000Y-110490000D03*
%TO.P,U3,21*%
%TO.N,Net-(U3-Pad21)*%
X109220000Y-95250000D03*
%TO.P,U3,22*%
%TO.N,Net-(U3-Pad22)*%
X106680000Y-95250000D03*
%TO.P,U3,23*%
%TO.N,Net-(U3-Pad23)*%
X104140000Y-95250000D03*
%TO.P,U3,24*%
%TO.N,Net-(U3-Pad24)*%
X101600000Y-95250000D03*
%TO.P,U3,25*%
%TO.N,Net-(U3-Pad25)*%
X99060000Y-95250000D03*
%TO.P,U3,26*%
%TO.N,Net-(U3-Pad26)*%
X96520000Y-95250000D03*
%TO.P,U3,27*%
%TO.N,Net-(U3-Pad27)*%
X93980000Y-95250000D03*
%TO.P,U3,28*%
%TO.N,Net-(U3-Pad28)*%
X91440000Y-95250000D03*
%TO.P,U3,29*%
%TO.N,Net-(U3-Pad29)*%
X88900000Y-95250000D03*
%TO.P,U3,30*%
%TO.N,Net-(U3-Pad30)*%
X86360000Y-95250000D03*
%TO.P,U3,31*%
%TO.N,Net-(U3-Pad31)*%
X83820000Y-95250000D03*
%TO.P,U3,32*%
%TO.N,Net-(U3-Pad32)*%
X81280000Y-95250000D03*
%TO.P,U3,33*%
%TO.N,VCC*%
X78740000Y-95250000D03*
%TO.P,U3,34*%
%TO.N,Net-(U3-Pad34)*%
X81280000Y-97790000D03*
%TO.P,U3,35*%
%TO.N,Net-(U3-Pad35)*%
X86360000Y-97790000D03*
%TO.P,U3,36*%
%TO.N,Net-(U3-Pad36)*%
X88900000Y-97790000D03*
%TO.P,U3,37*%
%TO.N,Net-(U3-Pad37)*%
X91440000Y-97790000D03*
%TO.P,U3,13*%
%TO.N,Net-(U3-Pad13)*%
X109220000Y-110490000D03*
%TO.P,U3,12*%
%TO.N,Net-(U3-Pad12)*%
X106680000Y-110490000D03*
%TO.P,U3,11*%
%TO.N,Net-(U3-Pad11)*%
X104140000Y-110490000D03*
%TO.P,U3,10*%
%TO.N,Net-(U3-Pad10)*%
X101600000Y-110490000D03*
%TO.P,U3,9*%
%TO.N,Net-(U3-Pad9)*%
X99060000Y-110490000D03*
%TO.P,U3,8*%
%TO.N,Sync*%
X96520000Y-110490000D03*
%TO.P,U3,7*%
%TO.N,Net-(U3-Pad7)*%
X93980000Y-110490000D03*
%TO.P,U3,6*%
%TO.N,Net-(U3-Pad6)*%
X91440000Y-110490000D03*
%TO.P,U3,5*%
%TO.N,Net-(U3-Pad5)*%
X88900000Y-110490000D03*
%TO.P,U3,4*%
%TO.N,Net-(U3-Pad4)*%
X86360000Y-110490000D03*
%TO.P,U3,3*%
%TO.N,Net-(U3-Pad3)*%
X83820000Y-110490000D03*
%TO.P,U3,2*%
%TO.N,Net-(U3-Pad2)*%
X81280000Y-110490000D03*
D14*
%TO.P,U3,1*%
%TO.N,GND*%
X78740000Y-110490000D03*
D15*
%TO.P,U3,38*%
%TO.N,Net-(U3-Pad38)*%
X88900000Y-102870000D03*
X85090000Y-102870000D03*
%TD*%
D16*
%TO.P,U5,1*%
%TO.N,Net-(R4-Pad2)*%
X146050000Y-115570000D03*
D17*
%TO.P,U5,2*%
%TO.N,Net-(R3-Pad1)*%
X148590000Y-115570000D03*
%TO.P,U5,3*%
%TO.N,Net-(C7-Pad1)*%
X151130000Y-115570000D03*
%TO.P,U5,4*%
%TO.N,+5V*%
X153670000Y-115570000D03*
%TO.P,U5,5*%
%TO.N,Net-(C9-Pad1)*%
X156210000Y-115570000D03*
%TO.P,U5,6*%
%TO.N,Net-(R8-Pad2)*%
X158750000Y-115570000D03*
%TO.P,U5,7*%
%TO.N,Net-(C8-Pad1)*%
X161290000Y-115570000D03*
%TO.P,U5,14*%
%TO.N,Net-(U5-Pad14)*%
X146050000Y-107950000D03*
%TO.P,U5,13*%
%TO.N,Net-(U5-Pad13)*%
X148590000Y-107950000D03*
%TO.P,U5,12*%
%TO.N,Net-(U5-Pad12)*%
X151130000Y-107950000D03*
%TO.P,U5,11*%
%TO.N,GND*%
X153670000Y-107950000D03*
%TO.P,U5,10*%
%TO.N,Net-(C10-Pad1)*%
X156210000Y-107950000D03*
%TO.P,U5,9*%
%TO.N,Net-(R13-Pad2)*%
X158750000Y-107950000D03*
%TO.P,U5,8*%
%TO.N,Net-(C20-Pad1)*%
X161290000Y-107950000D03*
%TD*%
D18*
%TO.N,GND*%
X86360000Y-136398000D03*
X86360000Y-140335000D03*
%TD*%
M02*
