M48
; DRILL file {KiCad (5.1.10)-1} date 08/25/21 15:37:09
; FORMAT={-:-/ absolute / inch / decimal}
; #@! TF.CreationDate,2021-08-25T15:37:09-07:00
; #@! TF.GenerationSoftware,Kicad,Pcbnew,(5.1.10)-1
; #@! TF.FileFunction,Plated,1,4,PTH
FMAT,2
INCH
T1C0.0157
T2C0.0197
T3C0.0354
T4C0.0433
T5C0.0472
%
G90
G05
T1
X3.4Y-5.37
X3.4Y-5.525
T2
X3.35Y-4.05
X3.5Y-4.05
T3
X5.75Y-4.25
X5.75Y-4.55
X5.85Y-4.25
X5.85Y-4.55
X5.95Y-4.25
X5.95Y-4.55
X6.05Y-4.25
X6.05Y-4.55
X6.15Y-4.25
X6.15Y-4.55
X6.25Y-4.25
X6.25Y-4.55
X6.35Y-4.25
X6.35Y-4.55
T4
X3.1Y-3.75
X3.1Y-4.35
X3.2Y-3.75
X3.2Y-3.85
X3.2Y-4.35
X3.3Y-3.75
X3.3Y-4.35
X3.4Y-3.75
X3.4Y-3.85
X3.4Y-4.35
X3.5Y-3.75
X3.5Y-3.85
X3.5Y-4.35
X3.6Y-3.75
X3.6Y-3.85
X3.6Y-4.35
X3.7Y-3.75
X3.7Y-4.35
X3.8Y-3.75
X3.8Y-4.35
X3.9Y-3.75
X3.9Y-4.35
X4.0Y-3.75
X4.0Y-4.35
X4.1Y-3.75
X4.1Y-4.35
X4.2Y-3.75
X4.2Y-4.35
X4.3Y-3.75
X4.3Y-4.35
X4.4Y-3.75
X4.4Y-3.85
X4.4Y-3.95
X4.4Y-4.05
X4.4Y-4.15
X4.4Y-4.25
X4.4Y-4.35
T5
X3.2122Y-3.4
X3.35Y-3.4
T0
M30
