M48
; DRILL file {KiCad (5.1.10)-1} date 08/25/21 15:37:09
; FORMAT={-:-/ absolute / inch / decimal}
; #@! TF.CreationDate,2021-08-25T15:37:09-07:00
; #@! TF.GenerationSoftware,Kicad,Pcbnew,(5.1.10)-1
; #@! TF.FileFunction,Plated,1,3,Blind
FMAT,2
INCH
T1C0.0157
%
G90
G05
T1
X3.445Y-5.135
X3.445Y-5.165
X4.465Y-3.59
X4.505Y-3.59
X4.56Y-3.64
X4.59Y-3.98
X4.61Y-4.98
X4.625Y-3.59
X4.63Y-4.025
X4.66Y-5.025
X4.67Y-3.59
X4.715Y-3.59
X4.745Y-3.56
X4.83Y-4.6
X5.055Y-3.595
X5.085Y-3.62
X5.1Y-5.605
X5.13Y-3.62
X5.14Y-5.65
X5.155Y-4.28
X5.185Y-3.62
X5.21Y-4.275
X5.25Y-4.23
X5.295Y-4.185
X5.31Y-3.45
X5.31Y-3.57
X5.335Y-4.145
X5.36Y-3.62
X5.375Y-4.1
X5.4Y-3.62
X5.41Y-3.52
X5.42Y-4.06
X5.44Y-3.62
X5.45Y-3.52
X5.46Y-4.02
X5.495Y-3.985
X5.5Y-4.57
X5.5Y-4.6
X5.5Y-4.64
X5.5Y-4.68
X5.5Y-4.72
X5.5Y-4.755
X5.5Y-4.805
X5.5Y-4.855
X5.525Y-3.955
X5.535Y-4.895
X5.55Y-3.405
X5.55Y-3.46
X5.565Y-3.915
X5.565Y-4.925
X5.59Y-4.95
X5.605Y-3.875
X5.615Y-4.975
X5.635Y-3.845
X5.66Y-4.99
X5.67Y-3.81
X5.695Y-4.99
X5.7Y-3.78
X5.73Y-3.75
X5.735Y-4.99
X5.76Y-3.52
X5.76Y-3.72
X5.77Y-4.99
X5.81Y-4.99
X5.82Y-3.54
X5.82Y-3.58
X5.82Y-3.62
X5.82Y-3.66
X5.82Y-3.7
X5.85Y-4.99
X5.95Y-5.61
X5.985Y-5.655
X6.12Y-4.965
X6.14Y-4.1
X6.165Y-4.965
X6.2Y-4.965
X6.56Y-4.54
X6.56Y-4.59
X6.59Y-4.455
X6.6Y-4.645
T0
M30
