M48
; DRILL file {KiCad (5.1.10)-1} date 08/25/21 15:37:09
; FORMAT={-:-/ absolute / inch / decimal}
; #@! TF.CreationDate,2021-08-25T15:37:09-07:00
; #@! TF.GenerationSoftware,Kicad,Pcbnew,(5.1.10)-1
; #@! TF.FileFunction,Plated,1,2,Blind
FMAT,2
INCH
T1C0.0157
%
G90
G05
T1
X3.02Y-4.35
X3.02Y-4.39
X3.045Y-3.4
X3.045Y-3.435
X3.045Y-3.475
X3.045Y-3.515
X3.045Y-3.56
X3.045Y-3.6
X3.05Y-4.43
X3.05Y-5.21
X3.05Y-5.68
X3.085Y-3.4
X3.1Y-4.43
X3.29Y-5.145
X3.4Y-4.625
X3.445Y-4.625
X3.5Y-4.625
X3.555Y-4.625
X3.615Y-4.625
X3.62Y-5.16
X3.62Y-5.28
X3.62Y-5.32
X3.665Y-4.625
X3.715Y-5.145
X3.72Y-4.625
X3.725Y-5.575
X3.77Y-4.625
X3.77Y-5.145
X3.78Y-5.575
X3.82Y-4.625
X3.825Y-5.14
X3.825Y-5.18
X3.825Y-5.225
X3.87Y-4.625
X3.885Y-5.295
X3.985Y-4.53
X4.005Y-4.765
X4.005Y-4.8
X4.005Y-4.85
X4.005Y-4.91
X4.005Y-4.965
X4.005Y-5.02
X4.005Y-5.065
X4.045Y-4.645
X4.085Y-4.645
X4.1Y-4.53
X4.1Y-5.62
X4.135Y-5.405
X4.14Y-4.62
X4.16Y-5.38
X4.175Y-5.24
X4.175Y-5.285
X4.175Y-5.34
X4.19Y-4.62
X4.24Y-4.62
X4.34Y-3.505
X4.34Y-3.545
X4.345Y-5.245
X4.365Y-3.485
X4.39Y-5.245
X4.405Y-3.5
X4.415Y-4.62
X4.455Y-4.62
X4.46Y-3.5
X4.465Y-5.24
X4.465Y-5.285
X4.465Y-5.33
X4.465Y-5.38
X4.465Y-5.42
X4.52Y-3.975
X4.535Y-5.195
X4.6Y-4.755
X4.6Y-4.795
X4.6Y-4.855
X4.6Y-4.895
X4.605Y-5.06
X4.605Y-5.1
X4.835Y-5.48
X4.835Y-5.525
X4.89Y-5.48
X4.89Y-5.525
X4.895Y-4.225
X4.92Y-4.25
X4.94Y-5.605
X4.96Y-4.075
X4.99Y-5.605
X4.99Y-5.65
X5.08Y-4.175
X5.09Y-5.09
X5.13Y-4.12
X5.135Y-5.09
X5.18Y-5.09
X5.23Y-5.09
X5.27Y-5.09
X5.31Y-5.09
X5.35Y-5.09
X5.37Y-3.81
X5.39Y-5.09
X5.4Y-5.6
X5.42Y-3.86
X5.43Y-5.09
X5.44Y-5.6
X5.47Y-5.09
X5.485Y-5.6
X5.515Y-5.09
X5.525Y-5.6
X5.56Y-5.09
X5.575Y-5.6
X5.6Y-5.1
X5.62Y-5.135
X5.62Y-5.175
X5.62Y-5.515
X5.62Y-5.555
X5.65Y-5.1
X5.68Y-5.515
X5.68Y-5.555
X5.69Y-5.1
X5.73Y-5.1
X5.735Y-5.52
X5.735Y-5.56
X5.77Y-5.1
X5.775Y-5.61
X5.81Y-5.1
X5.825Y-5.61
X5.825Y-5.655
X5.85Y-5.1
X5.89Y-5.1
X5.925Y-5.1
X5.97Y-5.1
X5.99Y-4.705
X6.015Y-5.1
X6.065Y-5.1
X6.105Y-5.1
X6.145Y-5.1
X6.185Y-5.1
X6.225Y-5.1
X6.24Y-5.61
X6.265Y-5.1
X6.28Y-5.61
X6.305Y-5.1
X6.325Y-5.61
X6.35Y-5.1
X6.365Y-5.61
X6.395Y-5.1
X6.415Y-5.61
X6.43Y-5.1
X6.475Y-5.1
X6.52Y-5.1
X6.55Y-3.34
X6.57Y-5.1
X6.61Y-5.1
X6.65Y-5.1
X6.69Y-5.1
X6.73Y-5.1
X6.755Y-5.15
X6.755Y-5.605
X6.77Y-5.1
X6.81Y-5.1
T0
M30
