%TF.GenerationSoftware,KiCad,Pcbnew,(5.1.10)-1*%
%TF.CreationDate,2021-08-25T15:37:07-07:00*%
%TF.ProjectId,fmcw,666d6377-2e6b-4696-9361-645f70636258,rev?*%
%TF.SameCoordinates,Original*%
%TF.FileFunction,Copper,L2,Inr*%
%TF.FilePolarity,Positive*%
%FSLAX46Y46*%
G04 Gerber Fmt 4.6, Leading zero omitted, Abs format (unit mm)*
G04 Created by KiCad (PCBNEW (5.1.10)-1) date 2021-08-25 15:37:07*
%MOMM*%
%LPD*%
G01*
G04 APERTURE LIST*
%TA.AperFunction,ComponentPad*%
%ADD10R,2.400000X2.400000*%
%TD*%
%TA.AperFunction,ComponentPad*%
%ADD11C,2.400000*%
%TD*%
%TA.AperFunction,ComponentPad*%
%ADD12C,1.600000*%
%TD*%
%TA.AperFunction,ComponentPad*%
%ADD13R,1.600000X1.600000*%
%TD*%
%TA.AperFunction,ComponentPad*%
%ADD14C,1.900000*%
%TD*%
%TA.AperFunction,ComponentPad*%
%ADD15R,1.500000X1.500000*%
%TD*%
%TA.AperFunction,ComponentPad*%
%ADD16C,1.500000*%
%TD*%
%TA.AperFunction,ViaPad*%
%ADD17C,0.800000*%
%TD*%
%TA.AperFunction,Conductor*%
%ADD18C,0.254000*%
%TD*%
%TA.AperFunction,Conductor*%
%ADD19C,0.100000*%
%TD*%
G04 APERTURE END LIST*
D10*
%TO.N,+BATT*%
%TO.C,J1*%
X85090000Y-86360000D03*
D11*
%TO.N,GND*%
X81590000Y-86360000D03*
%TD*%
D12*
%TO.N,Net-(U3-Pad17)*%
%TO.C,U3*%
X111760000Y-102870000D03*
%TO.N,Net-(U3-Pad18)*%
X111760000Y-100330000D03*
%TO.N,Net-(U3-Pad19)*%
X111760000Y-97790000D03*
%TO.N,Net-(U3-Pad20)*%
X111760000Y-95250000D03*
%TO.N,Net-(U3-Pad16)*%
X111760000Y-105410000D03*
%TO.N,Net-(U3-Pad15)*%
X111760000Y-107950000D03*
%TO.N,Net-(U3-Pad14)*%
X111760000Y-110490000D03*
%TO.N,Net-(U3-Pad21)*%
X109220000Y-95250000D03*
%TO.N,Net-(U3-Pad22)*%
X106680000Y-95250000D03*
%TO.N,Net-(U3-Pad23)*%
X104140000Y-95250000D03*
%TO.N,Net-(U3-Pad24)*%
X101600000Y-95250000D03*
%TO.N,Net-(U3-Pad25)*%
X99060000Y-95250000D03*
%TO.N,Net-(U3-Pad26)*%
X96520000Y-95250000D03*
%TO.N,Net-(U3-Pad27)*%
X93980000Y-95250000D03*
%TO.N,Net-(U3-Pad28)*%
X91440000Y-95250000D03*
%TO.N,Net-(U3-Pad29)*%
X88900000Y-95250000D03*
%TO.N,Net-(U3-Pad30)*%
X86360000Y-95250000D03*
%TO.N,Net-(U3-Pad31)*%
X83820000Y-95250000D03*
%TO.N,Net-(U3-Pad32)*%
X81280000Y-95250000D03*
%TO.N,VCC*%
X78740000Y-95250000D03*
%TO.N,Net-(U3-Pad34)*%
X81280000Y-97790000D03*
%TO.N,Net-(U3-Pad35)*%
X86360000Y-97790000D03*
%TO.N,Net-(U3-Pad36)*%
X88900000Y-97790000D03*
%TO.N,Net-(U3-Pad37)*%
X91440000Y-97790000D03*
%TO.N,Net-(U3-Pad13)*%
X109220000Y-110490000D03*
%TO.N,Net-(U3-Pad12)*%
X106680000Y-110490000D03*
%TO.N,Net-(U3-Pad11)*%
X104140000Y-110490000D03*
%TO.N,Net-(U3-Pad10)*%
X101600000Y-110490000D03*
%TO.N,Net-(U3-Pad9)*%
X99060000Y-110490000D03*
%TO.N,Sync*%
X96520000Y-110490000D03*
%TO.N,Net-(U3-Pad7)*%
X93980000Y-110490000D03*
%TO.N,Net-(U3-Pad6)*%
X91440000Y-110490000D03*
%TO.N,Net-(U3-Pad5)*%
X88900000Y-110490000D03*
%TO.N,Net-(U3-Pad4)*%
X86360000Y-110490000D03*
%TO.N,Net-(U3-Pad3)*%
X83820000Y-110490000D03*
%TO.N,Net-(U3-Pad2)*%
X81280000Y-110490000D03*
D13*
%TO.N,GND*%
X78740000Y-110490000D03*
D14*
%TO.N,Net-(U3-Pad38)*%
X88900000Y-102870000D03*
X85090000Y-102870000D03*
%TD*%
D15*
%TO.N,Net-(R4-Pad2)*%
%TO.C,U5*%
X146050000Y-115570000D03*
D16*
%TO.N,Net-(R3-Pad1)*%
X148590000Y-115570000D03*
%TO.N,Net-(C7-Pad1)*%
X151130000Y-115570000D03*
%TO.N,+5V*%
X153670000Y-115570000D03*
%TO.N,Net-(C9-Pad1)*%
X156210000Y-115570000D03*
%TO.N,Net-(R8-Pad2)*%
X158750000Y-115570000D03*
%TO.N,Net-(C8-Pad1)*%
X161290000Y-115570000D03*
%TO.N,Net-(U5-Pad14)*%
X146050000Y-107950000D03*
%TO.N,Net-(U5-Pad13)*%
X148590000Y-107950000D03*
%TO.N,Net-(U5-Pad12)*%
X151130000Y-107950000D03*
%TO.N,GND*%
X153670000Y-107950000D03*
%TO.N,Net-(C10-Pad1)*%
X156210000Y-107950000D03*
%TO.N,Net-(R13-Pad2)*%
X158750000Y-107950000D03*
%TO.N,Net-(C20-Pad1)*%
X161290000Y-107950000D03*
%TD*%
D17*
%TO.N,GND*%
X78740000Y-112522000D03*
X136398000Y-96774000D03*
%TO.N,+2V5*%
X130937000Y-108712000D03*
X132334000Y-108585000D03*
X133350000Y-107442000D03*
X134493000Y-106299000D03*
X135509000Y-105283000D03*
X136525000Y-104140000D03*
X137668000Y-103124000D03*
X138684000Y-102108000D03*
X139573000Y-101219000D03*
X140335000Y-100457000D03*
X141351000Y-99441000D03*
X142367000Y-98425000D03*
X143129000Y-97663000D03*
X144018000Y-96774000D03*
X144780000Y-96012000D03*
X145542000Y-95250000D03*
%TO.N,GND*%
X140970000Y-86487000D03*
X140970000Y-87884000D03*
X138430000Y-89408000D03*
X137414000Y-89408000D03*
X129159000Y-91948000D03*
X128397000Y-91313000D03*
X77343000Y-86360000D03*
%TO.N,+5V*%
X115824000Y-92456000D03*
%TO.N,+2V5*%
X147828000Y-91948000D03*
X155956000Y-104140000D03*
%TO.N,+5V*%
X114427000Y-91186000D03*
X113411000Y-91186000D03*
X117475000Y-91186000D03*
X118618000Y-91186000D03*
X119761000Y-91186000D03*
X120523000Y-90424000D03*
X116586000Y-101092000D03*
X117602000Y-102235000D03*
X87503000Y-131191000D03*
X87503000Y-130429000D03*
X117094000Y-126492000D03*
X118364000Y-127635000D03*
X129540000Y-142367000D03*
X130556000Y-143510000D03*
X152019000Y-143637000D03*
X151130000Y-142494000D03*
X122682000Y-116840000D03*
%TO.N,GND*%
X77343000Y-87249000D03*
X77343000Y-88265000D03*
X77343000Y-89281000D03*
X77343000Y-90424000D03*
X77343000Y-91440000D03*
X78359000Y-86360000D03*
X110236000Y-89027000D03*
X110236000Y-90043000D03*
X110871000Y-88519000D03*
X111887000Y-88900000D03*
X113284000Y-88900000D03*
X130302000Y-91948000D03*
X131699000Y-91948000D03*
X137668000Y-98044000D03*
X130302000Y-104648000D03*
X129032000Y-106045000D03*
X125984000Y-103505000D03*
X124333000Y-107315000D03*
X124968000Y-107950000D03*
X76708000Y-110490000D03*
X77470000Y-112522000D03*
X76708000Y-111506000D03*
X86360000Y-117475000D03*
X88900000Y-117475000D03*
X91821000Y-117475000D03*
X94488000Y-117475000D03*
X90297000Y-117475000D03*
X93091000Y-117475000D03*
X87503000Y-117475000D03*
X95758000Y-117475000D03*
X97028000Y-117475000D03*
X98298000Y-117475000D03*
X83566000Y-130683000D03*
X77470000Y-132334000D03*
X77470000Y-144272000D03*
X86360000Y-136398000D03*
X86360000Y-140335000D03*
X94615000Y-141605000D03*
X96012000Y-141605000D03*
X91948000Y-134112000D03*
X91948000Y-135128000D03*
X97155000Y-132715000D03*
X98679000Y-134493000D03*
X97155000Y-131572000D03*
X97155000Y-130556000D03*
X94361000Y-130683000D03*
X95758000Y-130683000D03*
X104140000Y-142748000D03*
X102743000Y-117983000D03*
X103759000Y-117983000D03*
X104140000Y-115062000D03*
X101219000Y-115062000D03*
X105156000Y-117348000D03*
X107696000Y-117348000D03*
X106426000Y-117348000D03*
X112141000Y-117348000D03*
X113157000Y-117348000D03*
X116840000Y-120777000D03*
X116840000Y-121793000D03*
X116840000Y-123317000D03*
X116840000Y-124333000D03*
X116967000Y-128524000D03*
X116967000Y-129540000D03*
X115189000Y-131953000D03*
X113411000Y-133096000D03*
X110363000Y-133223000D03*
X111506000Y-133223000D03*
X113411000Y-134239000D03*
X113411000Y-135382000D03*
X113411000Y-136652000D03*
X113411000Y-137668000D03*
X122809000Y-140335000D03*
X122809000Y-139192000D03*
X124206000Y-139192000D03*
X124206000Y-140335000D03*
X125476000Y-142367000D03*
X126746000Y-142367000D03*
X126746000Y-143510000D03*
X129286000Y-129286000D03*
X130429000Y-129286000D03*
X131572000Y-129286000D03*
X132842000Y-129286000D03*
X133858000Y-129286000D03*
X134874000Y-129286000D03*
X135890000Y-129286000D03*
X136906000Y-129286000D03*
X137922000Y-129286000D03*
X138938000Y-129286000D03*
X140081000Y-129286000D03*
X141224000Y-129286000D03*
X142748000Y-130429000D03*
X142748000Y-131445000D03*
X142748000Y-140081000D03*
X142748000Y-141097000D03*
X141605000Y-142240000D03*
X140335000Y-142240000D03*
X139319000Y-142240000D03*
X138176000Y-142240000D03*
X137160000Y-142240000D03*
X145669000Y-140208000D03*
X145669000Y-141224000D03*
X146685000Y-142494000D03*
X147955000Y-142494000D03*
X144272000Y-140081000D03*
X144272000Y-141097000D03*
X147955000Y-143637000D03*
X151638000Y-129540000D03*
X152781000Y-129540000D03*
X150495000Y-129540000D03*
X154051000Y-129540000D03*
X155067000Y-129540000D03*
X157099000Y-129540000D03*
X159131000Y-129540000D03*
X158115000Y-129540000D03*
X161290000Y-129540000D03*
X160147000Y-129540000D03*
X156083000Y-129540000D03*
X162433000Y-129540000D03*
X160655000Y-142494000D03*
X162941000Y-142494000D03*
X161671000Y-142494000D03*
X159512000Y-142494000D03*
X158496000Y-142494000D03*
X171577000Y-142367000D03*
X171577000Y-130810000D03*
X152146000Y-119507000D03*
X114808000Y-100965000D03*
X91948000Y-131064000D03*
X101727000Y-126111000D03*
X101727000Y-123190000D03*
X101727000Y-128651000D03*
X101727000Y-121920000D03*
X101727000Y-121031000D03*
X101727000Y-124714000D03*
X101727000Y-127508000D03*
X166370000Y-84836000D03*
X106045000Y-133096000D03*
X106045000Y-134239000D03*
X106045000Y-135636000D03*
X105664000Y-136652000D03*
X105029000Y-137287000D03*
X169926000Y-129540000D03*
X166878000Y-129540000D03*
X171958000Y-129540000D03*
X168910000Y-129540000D03*
X165608000Y-129540000D03*
X167894000Y-129540000D03*
X164465000Y-129540000D03*
X170942000Y-129540000D03*
X163322000Y-129540000D03*
X172974000Y-129540000D03*
X143510000Y-129540000D03*
X147574000Y-129540000D03*
X149606000Y-129540000D03*
X148590000Y-129540000D03*
X146558000Y-129540000D03*
X142240000Y-129540000D03*
X144526000Y-129540000D03*
X145542000Y-129540000D03*
%TO.N,+2V5*%
X147828000Y-92964000D03*
X147828000Y-90932000D03*
X147828000Y-89916000D03*
X146304000Y-89408000D03*
X146304000Y-94488000D03*
X147828000Y-93980000D03*
X138176000Y-91948000D03*
X137160000Y-91948000D03*
X134874000Y-90678000D03*
X134874000Y-87630000D03*
X136144000Y-91948000D03*
X167640000Y-117983000D03*
X167386000Y-113157000D03*
X157480000Y-126111000D03*
X155448000Y-126111000D03*
X156591000Y-126111000D03*
X166624000Y-115316000D03*
X166624000Y-116586000D03*
X148590000Y-126746000D03*
X147574000Y-126746000D03*
X146558000Y-126746000D03*
X145669000Y-126746000D03*
X144653000Y-126746000D03*
X143764000Y-126746000D03*
X142621000Y-126365000D03*
X141986000Y-125730000D03*
X141351000Y-125095000D03*
X140589000Y-124333000D03*
X139700000Y-123317000D03*
X139700000Y-122047000D03*
X139700000Y-120777000D03*
X139700000Y-119888000D03*
X139700000Y-118872000D03*
X139700000Y-117856000D03*
X139700000Y-116840000D03*
X139700000Y-116078000D03*
%TD*%
D18*
%TO.N,GND*%
X173330001Y-145390000D02*
X75590000Y-145390000D01*
X75590000Y-142265061D01*
X128505000Y-142265061D01*
X128505000Y-142468939D01*
X128544774Y-142668898D01*
X128622795Y-142857256D01*
X128736063Y-143026774D01*
X128880226Y-143170937D01*
X129049744Y-143284205D01*
X129238102Y-143362226D01*
X129438061Y-143402000D01*
X129522206Y-143402000D01*
X129521000Y-143408061D01*
X129521000Y-143611939D01*
X129560774Y-143811898D01*
X129638795Y-144000256D01*
X129752063Y-144169774D01*
X129896226Y-144313937D01*
X130065744Y-144427205D01*
X130254102Y-144505226D01*
X130454061Y-144545000D01*
X130657939Y-144545000D01*
X130857898Y-144505226D01*
X131046256Y-144427205D01*
X131215774Y-144313937D01*
X131359937Y-144169774D01*
X131473205Y-144000256D01*
X131551226Y-143811898D01*
X131591000Y-143611939D01*
X131591000Y-143408061D01*
X131551226Y-143208102D01*
X131473205Y-143019744D01*
X131359937Y-142850226D01*
X131215774Y-142706063D01*
X131046256Y-142592795D01*
X130857898Y-142514774D01*
X130657939Y-142475000D01*
X130573794Y-142475000D01*
X130575000Y-142468939D01*
X130575000Y-142392061D01*
X150095000Y-142392061D01*
X150095000Y-142595939D01*
X150134774Y-142795898D01*
X150212795Y-142984256D01*
X150326063Y-143153774D01*
X150470226Y-143297937D01*
X150639744Y-143411205D01*
X150828102Y-143489226D01*
X150986837Y-143520800D01*
X150984000Y-143535061D01*
X150984000Y-143738939D01*
X151023774Y-143938898D01*
X151101795Y-144127256D01*
X151215063Y-144296774D01*
X151359226Y-144440937D01*
X151528744Y-144554205D01*
X151717102Y-144632226D01*
X151917061Y-144672000D01*
X152120939Y-144672000D01*
X152320898Y-144632226D01*
X152509256Y-144554205D01*
X152678774Y-144440937D01*
X152822937Y-144296774D01*
X152936205Y-144127256D01*
X153014226Y-143938898D01*
X153054000Y-143738939D01*
X153054000Y-143535061D01*
X153014226Y-143335102D01*
X152936205Y-143146744D01*
X152822937Y-142977226D01*
X152678774Y-142833063D01*
X152509256Y-142719795D01*
X152320898Y-142641774D01*
X152162163Y-142610200D01*
X152165000Y-142595939D01*
X152165000Y-142392061D01*
X152125226Y-142192102D01*
X152047205Y-142003744D01*
X151933937Y-141834226D01*
X151789774Y-141690063D01*
X151620256Y-141576795D01*
X151431898Y-141498774D01*
X151231939Y-141459000D01*
X151028061Y-141459000D01*
X150828102Y-141498774D01*
X150639744Y-141576795D01*
X150470226Y-141690063D01*
X150326063Y-141834226D01*
X150212795Y-142003744D01*
X150134774Y-142192102D01*
X150095000Y-142392061D01*
X130575000Y-142392061D01*
X130575000Y-142265061D01*
X130535226Y-142065102D01*
X130457205Y-141876744D01*
X130343937Y-141707226D01*
X130199774Y-141563063D01*
X130030256Y-141449795D01*
X129841898Y-141371774D01*
X129641939Y-141332000D01*
X129438061Y-141332000D01*
X129238102Y-141371774D01*
X129049744Y-141449795D01*
X128880226Y-141563063D01*
X128736063Y-141707226D01*
X128622795Y-141876744D01*
X128544774Y-142065102D01*
X128505000Y-142265061D01*
X75590000Y-142265061D01*
X75590000Y-130327061D01*
X86468000Y-130327061D01*
X86468000Y-130530939D01*
X86507774Y-130730898D01*
X86540539Y-130810000D01*
X86507774Y-130889102D01*
X86468000Y-131089061D01*
X86468000Y-131292939D01*
X86507774Y-131492898D01*
X86585795Y-131681256D01*
X86699063Y-131850774D01*
X86843226Y-131994937D01*
X87012744Y-132108205D01*
X87201102Y-132186226D01*
X87401061Y-132226000D01*
X87604939Y-132226000D01*
X87804898Y-132186226D01*
X87993256Y-132108205D01*
X88162774Y-131994937D01*
X88306937Y-131850774D01*
X88420205Y-131681256D01*
X88498226Y-131492898D01*
X88538000Y-131292939D01*
X88538000Y-131089061D01*
X88498226Y-130889102D01*
X88465461Y-130810000D01*
X88498226Y-130730898D01*
X88538000Y-130530939D01*
X88538000Y-130327061D01*
X88498226Y-130127102D01*
X88420205Y-129938744D01*
X88306937Y-129769226D01*
X88162774Y-129625063D01*
X87993256Y-129511795D01*
X87804898Y-129433774D01*
X87604939Y-129394000D01*
X87401061Y-129394000D01*
X87201102Y-129433774D01*
X87012744Y-129511795D01*
X86843226Y-129625063D01*
X86699063Y-129769226D01*
X86585795Y-129938744D01*
X86507774Y-130127102D01*
X86468000Y-130327061D01*
X75590000Y-130327061D01*
X75590000Y-126390061D01*
X116059000Y-126390061D01*
X116059000Y-126593939D01*
X116098774Y-126793898D01*
X116176795Y-126982256D01*
X116290063Y-127151774D01*
X116434226Y-127295937D01*
X116603744Y-127409205D01*
X116792102Y-127487226D01*
X116992061Y-127527000D01*
X117195939Y-127527000D01*
X117335737Y-127499193D01*
X117329000Y-127533061D01*
X117329000Y-127736939D01*
X117368774Y-127936898D01*
X117446795Y-128125256D01*
X117560063Y-128294774D01*
X117704226Y-128438937D01*
X117873744Y-128552205D01*
X118062102Y-128630226D01*
X118262061Y-128670000D01*
X118465939Y-128670000D01*
X118665898Y-128630226D01*
X118854256Y-128552205D01*
X119023774Y-128438937D01*
X119167937Y-128294774D01*
X119281205Y-128125256D01*
X119359226Y-127936898D01*
X119399000Y-127736939D01*
X119399000Y-127533061D01*
X119359226Y-127333102D01*
X119281205Y-127144744D01*
X119167937Y-126975226D01*
X119023774Y-126831063D01*
X118854256Y-126717795D01*
X118665898Y-126639774D01*
X118465939Y-126600000D01*
X118262061Y-126600000D01*
X118122263Y-126627807D01*
X118129000Y-126593939D01*
X118129000Y-126390061D01*
X118089226Y-126190102D01*
X118011205Y-126001744D01*
X117897937Y-125832226D01*
X117753774Y-125688063D01*
X117584256Y-125574795D01*
X117395898Y-125496774D01*
X117195939Y-125457000D01*
X116992061Y-125457000D01*
X116792102Y-125496774D01*
X116603744Y-125574795D01*
X116434226Y-125688063D01*
X116290063Y-125832226D01*
X116176795Y-126001744D01*
X116098774Y-126190102D01*
X116059000Y-126390061D01*
X75590000Y-126390061D01*
X75590000Y-116738061D01*
X121647000Y-116738061D01*
X121647000Y-116941939D01*
X121686774Y-117141898D01*
X121764795Y-117330256D01*
X121878063Y-117499774D01*
X122022226Y-117643937D01*
X122191744Y-117757205D01*
X122380102Y-117835226D01*
X122580061Y-117875000D01*
X122783939Y-117875000D01*
X122983898Y-117835226D01*
X123172256Y-117757205D01*
X123341774Y-117643937D01*
X123485937Y-117499774D01*
X123599205Y-117330256D01*
X123677226Y-117141898D01*
X123717000Y-116941939D01*
X123717000Y-116738061D01*
X123677226Y-116538102D01*
X123599205Y-116349744D01*
X123485937Y-116180226D01*
X123341774Y-116036063D01*
X123251975Y-115976061D01*
X138665000Y-115976061D01*
X138665000Y-116179939D01*
X138704774Y-116379898D01*
X138737539Y-116459000D01*
X138704774Y-116538102D01*
X138665000Y-116738061D01*
X138665000Y-116941939D01*
X138704774Y-117141898D01*
X138782795Y-117330256D01*
X138794651Y-117348000D01*
X138782795Y-117365744D01*
X138704774Y-117554102D01*
X138665000Y-117754061D01*
X138665000Y-117957939D01*
X138704774Y-118157898D01*
X138782795Y-118346256D01*
X138794651Y-118364000D01*
X138782795Y-118381744D01*
X138704774Y-118570102D01*
X138665000Y-118770061D01*
X138665000Y-118973939D01*
X138704774Y-119173898D01*
X138782795Y-119362256D01*
X138794651Y-119380000D01*
X138782795Y-119397744D01*
X138704774Y-119586102D01*
X138665000Y-119786061D01*
X138665000Y-119989939D01*
X138704774Y-120189898D01*
X138763842Y-120332500D01*
X138704774Y-120475102D01*
X138665000Y-120675061D01*
X138665000Y-120878939D01*
X138704774Y-121078898D01*
X138782795Y-121267256D01*
X138879510Y-121412000D01*
X138782795Y-121556744D01*
X138704774Y-121745102D01*
X138665000Y-121945061D01*
X138665000Y-122148939D01*
X138704774Y-122348898D01*
X138782795Y-122537256D01*
X138879510Y-122682000D01*
X138782795Y-122826744D01*
X138704774Y-123015102D01*
X138665000Y-123215061D01*
X138665000Y-123418939D01*
X138704774Y-123618898D01*
X138782795Y-123807256D01*
X138896063Y-123976774D01*
X139040226Y-124120937D01*
X139209744Y-124234205D01*
X139398102Y-124312226D01*
X139554000Y-124343236D01*
X139554000Y-124434939D01*
X139593774Y-124634898D01*
X139671795Y-124823256D01*
X139785063Y-124992774D01*
X139929226Y-125136937D01*
X140098744Y-125250205D01*
X140287102Y-125328226D01*
X140344381Y-125339619D01*
X140355774Y-125396898D01*
X140433795Y-125585256D01*
X140547063Y-125754774D01*
X140691226Y-125898937D01*
X140860744Y-126012205D01*
X141007858Y-126073142D01*
X141068795Y-126220256D01*
X141182063Y-126389774D01*
X141326226Y-126533937D01*
X141495744Y-126647205D01*
X141642858Y-126708142D01*
X141703795Y-126855256D01*
X141817063Y-127024774D01*
X141961226Y-127168937D01*
X142130744Y-127282205D01*
X142319102Y-127360226D01*
X142519061Y-127400000D01*
X142722939Y-127400000D01*
X142922898Y-127360226D01*
X142928170Y-127358042D01*
X142960063Y-127405774D01*
X143104226Y-127549937D01*
X143273744Y-127663205D01*
X143462102Y-127741226D01*
X143662061Y-127781000D01*
X143865939Y-127781000D01*
X144065898Y-127741226D01*
X144208500Y-127682158D01*
X144351102Y-127741226D01*
X144551061Y-127781000D01*
X144754939Y-127781000D01*
X144954898Y-127741226D01*
X145143256Y-127663205D01*
X145161000Y-127651349D01*
X145178744Y-127663205D01*
X145367102Y-127741226D01*
X145567061Y-127781000D01*
X145770939Y-127781000D01*
X145970898Y-127741226D01*
X146113500Y-127682158D01*
X146256102Y-127741226D01*
X146456061Y-127781000D01*
X146659939Y-127781000D01*
X146859898Y-127741226D01*
X147048256Y-127663205D01*
X147066000Y-127651349D01*
X147083744Y-127663205D01*
X147272102Y-127741226D01*
X147472061Y-127781000D01*
X147675939Y-127781000D01*
X147875898Y-127741226D01*
X148064256Y-127663205D01*
X148082000Y-127651349D01*
X148099744Y-127663205D01*
X148288102Y-127741226D01*
X148488061Y-127781000D01*
X148691939Y-127781000D01*
X148891898Y-127741226D01*
X149080256Y-127663205D01*
X149249774Y-127549937D01*
X149393937Y-127405774D01*
X149507205Y-127236256D01*
X149585226Y-127047898D01*
X149625000Y-126847939D01*
X149625000Y-126644061D01*
X149585226Y-126444102D01*
X149507205Y-126255744D01*
X149393937Y-126086226D01*
X149316772Y-126009061D01*
X154413000Y-126009061D01*
X154413000Y-126212939D01*
X154452774Y-126412898D01*
X154530795Y-126601256D01*
X154644063Y-126770774D01*
X154788226Y-126914937D01*
X154957744Y-127028205D01*
X155146102Y-127106226D01*
X155346061Y-127146000D01*
X155549939Y-127146000D01*
X155749898Y-127106226D01*
X155938256Y-127028205D01*
X156019500Y-126973920D01*
X156100744Y-127028205D01*
X156289102Y-127106226D01*
X156489061Y-127146000D01*
X156692939Y-127146000D01*
X156892898Y-127106226D01*
X157035500Y-127047158D01*
X157178102Y-127106226D01*
X157378061Y-127146000D01*
X157581939Y-127146000D01*
X157781898Y-127106226D01*
X157970256Y-127028205D01*
X158139774Y-126914937D01*
X158283937Y-126770774D01*
X158397205Y-126601256D01*
X158475226Y-126412898D01*
X158515000Y-126212939D01*
X158515000Y-126009061D01*
X158475226Y-125809102D01*
X158397205Y-125620744D01*
X158283937Y-125451226D01*
X158139774Y-125307063D01*
X157970256Y-125193795D01*
X157781898Y-125115774D01*
X157581939Y-125076000D01*
X157378061Y-125076000D01*
X157178102Y-125115774D01*
X157035500Y-125174842D01*
X156892898Y-125115774D01*
X156692939Y-125076000D01*
X156489061Y-125076000D01*
X156289102Y-125115774D01*
X156100744Y-125193795D01*
X156019500Y-125248080D01*
X155938256Y-125193795D01*
X155749898Y-125115774D01*
X155549939Y-125076000D01*
X155346061Y-125076000D01*
X155146102Y-125115774D01*
X154957744Y-125193795D01*
X154788226Y-125307063D01*
X154644063Y-125451226D01*
X154530795Y-125620744D01*
X154452774Y-125809102D01*
X154413000Y-126009061D01*
X149316772Y-126009061D01*
X149249774Y-125942063D01*
X149080256Y-125828795D01*
X148891898Y-125750774D01*
X148691939Y-125711000D01*
X148488061Y-125711000D01*
X148288102Y-125750774D01*
X148099744Y-125828795D01*
X148082000Y-125840651D01*
X148064256Y-125828795D01*
X147875898Y-125750774D01*
X147675939Y-125711000D01*
X147472061Y-125711000D01*
X147272102Y-125750774D01*
X147083744Y-125828795D01*
X147066000Y-125840651D01*
X147048256Y-125828795D01*
X146859898Y-125750774D01*
X146659939Y-125711000D01*
X146456061Y-125711000D01*
X146256102Y-125750774D01*
X146113500Y-125809842D01*
X145970898Y-125750774D01*
X145770939Y-125711000D01*
X145567061Y-125711000D01*
X145367102Y-125750774D01*
X145178744Y-125828795D01*
X145161000Y-125840651D01*
X145143256Y-125828795D01*
X144954898Y-125750774D01*
X144754939Y-125711000D01*
X144551061Y-125711000D01*
X144351102Y-125750774D01*
X144208500Y-125809842D01*
X144065898Y-125750774D01*
X143865939Y-125711000D01*
X143662061Y-125711000D01*
X143462102Y-125750774D01*
X143456830Y-125752958D01*
X143424937Y-125705226D01*
X143280774Y-125561063D01*
X143111256Y-125447795D01*
X142964142Y-125386858D01*
X142903205Y-125239744D01*
X142789937Y-125070226D01*
X142645774Y-124926063D01*
X142476256Y-124812795D01*
X142329142Y-124751858D01*
X142268205Y-124604744D01*
X142154937Y-124435226D01*
X142010774Y-124291063D01*
X141841256Y-124177795D01*
X141652898Y-124099774D01*
X141595619Y-124088381D01*
X141584226Y-124031102D01*
X141506205Y-123842744D01*
X141392937Y-123673226D01*
X141248774Y-123529063D01*
X141079256Y-123415795D01*
X140890898Y-123337774D01*
X140735000Y-123306764D01*
X140735000Y-123215061D01*
X140695226Y-123015102D01*
X140617205Y-122826744D01*
X140520490Y-122682000D01*
X140617205Y-122537256D01*
X140695226Y-122348898D01*
X140735000Y-122148939D01*
X140735000Y-121945061D01*
X140695226Y-121745102D01*
X140617205Y-121556744D01*
X140520490Y-121412000D01*
X140617205Y-121267256D01*
X140695226Y-121078898D01*
X140735000Y-120878939D01*
X140735000Y-120675061D01*
X140695226Y-120475102D01*
X140636158Y-120332500D01*
X140695226Y-120189898D01*
X140735000Y-119989939D01*
X140735000Y-119786061D01*
X140695226Y-119586102D01*
X140617205Y-119397744D01*
X140605349Y-119380000D01*
X140617205Y-119362256D01*
X140695226Y-119173898D01*
X140735000Y-118973939D01*
X140735000Y-118770061D01*
X140695226Y-118570102D01*
X140617205Y-118381744D01*
X140605349Y-118364000D01*
X140617205Y-118346256D01*
X140695226Y-118157898D01*
X140735000Y-117957939D01*
X140735000Y-117754061D01*
X140695226Y-117554102D01*
X140617205Y-117365744D01*
X140605349Y-117348000D01*
X140617205Y-117330256D01*
X140695226Y-117141898D01*
X140735000Y-116941939D01*
X140735000Y-116738061D01*
X140695226Y-116538102D01*
X140662461Y-116459000D01*
X140695226Y-116379898D01*
X140735000Y-116179939D01*
X140735000Y-115976061D01*
X140695226Y-115776102D01*
X140617205Y-115587744D01*
X140503937Y-115418226D01*
X140359774Y-115274063D01*
X140190256Y-115160795D01*
X140001898Y-115082774D01*
X139801939Y-115043000D01*
X139598061Y-115043000D01*
X139398102Y-115082774D01*
X139209744Y-115160795D01*
X139040226Y-115274063D01*
X138896063Y-115418226D01*
X138782795Y-115587744D01*
X138704774Y-115776102D01*
X138665000Y-115976061D01*
X123251975Y-115976061D01*
X123172256Y-115922795D01*
X122983898Y-115844774D01*
X122783939Y-115805000D01*
X122580061Y-115805000D01*
X122380102Y-115844774D01*
X122191744Y-115922795D01*
X122022226Y-116036063D01*
X121878063Y-116180226D01*
X121764795Y-116349744D01*
X121686774Y-116538102D01*
X121647000Y-116738061D01*
X75590000Y-116738061D01*
X75590000Y-114820000D01*
X144661928Y-114820000D01*
X144661928Y-116320000D01*
X144674188Y-116444482D01*
X144710498Y-116564180D01*
X144769463Y-116674494D01*
X144848815Y-116771185D01*
X144945506Y-116850537D01*
X145055820Y-116909502D01*
X145175518Y-116945812D01*
X145300000Y-116958072D01*
X146800000Y-116958072D01*
X146924482Y-116945812D01*
X147044180Y-116909502D01*
X147154494Y-116850537D01*
X147251185Y-116771185D01*
X147330537Y-116674494D01*
X147389502Y-116564180D01*
X147425812Y-116444482D01*
X147436445Y-116336517D01*
X147514201Y-116452886D01*
X147707114Y-116645799D01*
X147933957Y-116797371D01*
X148186011Y-116901775D01*
X148453589Y-116955000D01*
X148726411Y-116955000D01*
X148993989Y-116901775D01*
X149246043Y-116797371D01*
X149472886Y-116645799D01*
X149665799Y-116452886D01*
X149817371Y-116226043D01*
X149860000Y-116123127D01*
X149902629Y-116226043D01*
X150054201Y-116452886D01*
X150247114Y-116645799D01*
X150473957Y-116797371D01*
X150726011Y-116901775D01*
X150993589Y-116955000D01*
X151266411Y-116955000D01*
X151533989Y-116901775D01*
X151786043Y-116797371D01*
X152012886Y-116645799D01*
X152205799Y-116452886D01*
X152357371Y-116226043D01*
X152400000Y-116123127D01*
X152442629Y-116226043D01*
X152594201Y-116452886D01*
X152787114Y-116645799D01*
X153013957Y-116797371D01*
X153266011Y-116901775D01*
X153533589Y-116955000D01*
X153806411Y-116955000D01*
X154073989Y-116901775D01*
X154326043Y-116797371D01*
X154552886Y-116645799D01*
X154745799Y-116452886D01*
X154897371Y-116226043D01*
X154940000Y-116123127D01*
X154982629Y-116226043D01*
X155134201Y-116452886D01*
X155327114Y-116645799D01*
X155553957Y-116797371D01*
X155806011Y-116901775D01*
X156073589Y-116955000D01*
X156346411Y-116955000D01*
X156613989Y-116901775D01*
X156866043Y-116797371D01*
X157092886Y-116645799D01*
X157285799Y-116452886D01*
X157437371Y-116226043D01*
X157480000Y-116123127D01*
X157522629Y-116226043D01*
X157674201Y-116452886D01*
X157867114Y-116645799D01*
X158093957Y-116797371D01*
X158346011Y-116901775D01*
X158613589Y-116955000D01*
X158886411Y-116955000D01*
X159153989Y-116901775D01*
X159406043Y-116797371D01*
X159632886Y-116645799D01*
X159825799Y-116452886D01*
X159977371Y-116226043D01*
X160020000Y-116123127D01*
X160062629Y-116226043D01*
X160214201Y-116452886D01*
X160407114Y-116645799D01*
X160633957Y-116797371D01*
X160886011Y-116901775D01*
X161153589Y-116955000D01*
X161426411Y-116955000D01*
X161693989Y-116901775D01*
X161946043Y-116797371D01*
X162172886Y-116645799D01*
X162365799Y-116452886D01*
X162517371Y-116226043D01*
X162621775Y-115973989D01*
X162675000Y-115706411D01*
X162675000Y-115433589D01*
X162631333Y-115214061D01*
X165589000Y-115214061D01*
X165589000Y-115417939D01*
X165628774Y-115617898D01*
X165706795Y-115806256D01*
X165803510Y-115951000D01*
X165706795Y-116095744D01*
X165628774Y-116284102D01*
X165589000Y-116484061D01*
X165589000Y-116687939D01*
X165628774Y-116887898D01*
X165706795Y-117076256D01*
X165820063Y-117245774D01*
X165964226Y-117389937D01*
X166133744Y-117503205D01*
X166322102Y-117581226D01*
X166522061Y-117621000D01*
X166669669Y-117621000D01*
X166644774Y-117681102D01*
X166605000Y-117881061D01*
X166605000Y-118084939D01*
X166644774Y-118284898D01*
X166722795Y-118473256D01*
X166836063Y-118642774D01*
X166980226Y-118786937D01*
X167149744Y-118900205D01*
X167338102Y-118978226D01*
X167538061Y-119018000D01*
X167741939Y-119018000D01*
X167941898Y-118978226D01*
X168130256Y-118900205D01*
X168299774Y-118786937D01*
X168443937Y-118642774D01*
X168557205Y-118473256D01*
X168635226Y-118284898D01*
X168675000Y-118084939D01*
X168675000Y-117881061D01*
X168635226Y-117681102D01*
X168557205Y-117492744D01*
X168443937Y-117323226D01*
X168299774Y-117179063D01*
X168130256Y-117065795D01*
X167941898Y-116987774D01*
X167741939Y-116948000D01*
X167594331Y-116948000D01*
X167619226Y-116887898D01*
X167659000Y-116687939D01*
X167659000Y-116484061D01*
X167619226Y-116284102D01*
X167541205Y-116095744D01*
X167444490Y-115951000D01*
X167541205Y-115806256D01*
X167619226Y-115617898D01*
X167659000Y-115417939D01*
X167659000Y-115214061D01*
X167619226Y-115014102D01*
X167541205Y-114825744D01*
X167427937Y-114656226D01*
X167283774Y-114512063D01*
X167114256Y-114398795D01*
X166925898Y-114320774D01*
X166725939Y-114281000D01*
X166522061Y-114281000D01*
X166322102Y-114320774D01*
X166133744Y-114398795D01*
X165964226Y-114512063D01*
X165820063Y-114656226D01*
X165706795Y-114825744D01*
X165628774Y-115014102D01*
X165589000Y-115214061D01*
X162631333Y-115214061D01*
X162621775Y-115166011D01*
X162517371Y-114913957D01*
X162365799Y-114687114D01*
X162172886Y-114494201D01*
X161946043Y-114342629D01*
X161693989Y-114238225D01*
X161426411Y-114185000D01*
X161153589Y-114185000D01*
X160886011Y-114238225D01*
X160633957Y-114342629D01*
X160407114Y-114494201D01*
X160214201Y-114687114D01*
X160062629Y-114913957D01*
X160020000Y-115016873D01*
X159977371Y-114913957D01*
X159825799Y-114687114D01*
X159632886Y-114494201D01*
X159406043Y-114342629D01*
X159153989Y-114238225D01*
X158886411Y-114185000D01*
X158613589Y-114185000D01*
X158346011Y-114238225D01*
X158093957Y-114342629D01*
X157867114Y-114494201D01*
X157674201Y-114687114D01*
X157522629Y-114913957D01*
X157480000Y-115016873D01*
X157437371Y-114913957D01*
X157285799Y-114687114D01*
X157092886Y-114494201D01*
X156866043Y-114342629D01*
X156613989Y-114238225D01*
X156346411Y-114185000D01*
X156073589Y-114185000D01*
X155806011Y-114238225D01*
X155553957Y-114342629D01*
X155327114Y-114494201D01*
X155134201Y-114687114D01*
X154982629Y-114913957D01*
X154940000Y-115016873D01*
X154897371Y-114913957D01*
X154745799Y-114687114D01*
X154552886Y-114494201D01*
X154326043Y-114342629D01*
X154073989Y-114238225D01*
X153806411Y-114185000D01*
X153533589Y-114185000D01*
X153266011Y-114238225D01*
X153013957Y-114342629D01*
X152787114Y-114494201D01*
X152594201Y-114687114D01*
X152442629Y-114913957D01*
X152400000Y-115016873D01*
X152357371Y-114913957D01*
X152205799Y-114687114D01*
X152012886Y-114494201D01*
X151786043Y-114342629D01*
X151533989Y-114238225D01*
X151266411Y-114185000D01*
X150993589Y-114185000D01*
X150726011Y-114238225D01*
X150473957Y-114342629D01*
X150247114Y-114494201D01*
X150054201Y-114687114D01*
X149902629Y-114913957D01*
X149860000Y-115016873D01*
X149817371Y-114913957D01*
X149665799Y-114687114D01*
X149472886Y-114494201D01*
X149246043Y-114342629D01*
X148993989Y-114238225D01*
X148726411Y-114185000D01*
X148453589Y-114185000D01*
X148186011Y-114238225D01*
X147933957Y-114342629D01*
X147707114Y-114494201D01*
X147514201Y-114687114D01*
X147436445Y-114803483D01*
X147425812Y-114695518D01*
X147389502Y-114575820D01*
X147330537Y-114465506D01*
X147251185Y-114368815D01*
X147154494Y-114289463D01*
X147044180Y-114230498D01*
X146924482Y-114194188D01*
X146800000Y-114181928D01*
X145300000Y-114181928D01*
X145175518Y-114194188D01*
X145055820Y-114230498D01*
X144945506Y-114289463D01*
X144848815Y-114368815D01*
X144769463Y-114465506D01*
X144710498Y-114575820D01*
X144674188Y-114695518D01*
X144661928Y-114820000D01*
X75590000Y-114820000D01*
X75590000Y-113055061D01*
X166351000Y-113055061D01*
X166351000Y-113258939D01*
X166390774Y-113458898D01*
X166468795Y-113647256D01*
X166582063Y-113816774D01*
X166726226Y-113960937D01*
X166895744Y-114074205D01*
X167084102Y-114152226D01*
X167284061Y-114192000D01*
X167487939Y-114192000D01*
X167687898Y-114152226D01*
X167876256Y-114074205D01*
X168045774Y-113960937D01*
X168189937Y-113816774D01*
X168303205Y-113647256D01*
X168381226Y-113458898D01*
X168421000Y-113258939D01*
X168421000Y-113055061D01*
X168381226Y-112855102D01*
X168303205Y-112666744D01*
X168189937Y-112497226D01*
X168045774Y-112353063D01*
X167876256Y-112239795D01*
X167687898Y-112161774D01*
X167487939Y-112122000D01*
X167284061Y-112122000D01*
X167084102Y-112161774D01*
X166895744Y-112239795D01*
X166726226Y-112353063D01*
X166582063Y-112497226D01*
X166468795Y-112666744D01*
X166390774Y-112855102D01*
X166351000Y-113055061D01*
X75590000Y-113055061D01*
X75590000Y-111290000D01*
X77301928Y-111290000D01*
X77314188Y-111414482D01*
X77350498Y-111534180D01*
X77409463Y-111644494D01*
X77488815Y-111741185D01*
X77585506Y-111820537D01*
X77695820Y-111879502D01*
X77815518Y-111915812D01*
X77940000Y-111928072D01*
X78454250Y-111925000D01*
X78613000Y-111766250D01*
X78613000Y-110617000D01*
X77463750Y-110617000D01*
X77305000Y-110775750D01*
X77301928Y-111290000D01*
X75590000Y-111290000D01*
X75590000Y-109690000D01*
X77301928Y-109690000D01*
X77305000Y-110204250D01*
X77463750Y-110363000D01*
X78613000Y-110363000D01*
X78613000Y-109213750D01*
X78454250Y-109055000D01*
X77940000Y-109051928D01*
X77815518Y-109064188D01*
X77695820Y-109100498D01*
X77585506Y-109159463D01*
X77488815Y-109238815D01*
X77409463Y-109335506D01*
X77350498Y-109445820D01*
X77314188Y-109565518D01*
X77301928Y-109690000D01*
X75590000Y-109690000D01*
X75590000Y-102713891D01*
X83505000Y-102713891D01*
X83505000Y-103026109D01*
X83565911Y-103332327D01*
X83685391Y-103620779D01*
X83858850Y-103880379D01*
X84079621Y-104101150D01*
X84339221Y-104274609D01*
X84627673Y-104394089D01*
X84933891Y-104455000D01*
X85246109Y-104455000D01*
X85552327Y-104394089D01*
X85840779Y-104274609D01*
X86100379Y-104101150D01*
X86321150Y-103880379D01*
X86494609Y-103620779D01*
X86614089Y-103332327D01*
X86675000Y-103026109D01*
X86675000Y-102713891D01*
X87315000Y-102713891D01*
X87315000Y-103026109D01*
X87375911Y-103332327D01*
X87495391Y-103620779D01*
X87668850Y-103880379D01*
X87889621Y-104101150D01*
X88149221Y-104274609D01*
X88437673Y-104394089D01*
X88743891Y-104455000D01*
X89056109Y-104455000D01*
X89362327Y-104394089D01*
X89650779Y-104274609D01*
X89910379Y-104101150D01*
X90131150Y-103880379D01*
X90304609Y-103620779D01*
X90424089Y-103332327D01*
X90485000Y-103026109D01*
X90485000Y-102713891D01*
X90424089Y-102407673D01*
X90304609Y-102119221D01*
X90131150Y-101859621D01*
X89910379Y-101638850D01*
X89650779Y-101465391D01*
X89362327Y-101345911D01*
X89056109Y-101285000D01*
X88743891Y-101285000D01*
X88437673Y-101345911D01*
X88149221Y-101465391D01*
X87889621Y-101638850D01*
X87668850Y-101859621D01*
X87495391Y-102119221D01*
X87375911Y-102407673D01*
X87315000Y-102713891D01*
X86675000Y-102713891D01*
X86614089Y-102407673D01*
X86494609Y-102119221D01*
X86321150Y-101859621D01*
X86100379Y-101638850D01*
X85840779Y-101465391D01*
X85552327Y-101345911D01*
X85246109Y-101285000D01*
X84933891Y-101285000D01*
X84627673Y-101345911D01*
X84339221Y-101465391D01*
X84079621Y-101638850D01*
X83858850Y-101859621D01*
X83685391Y-102119221D01*
X83565911Y-102407673D01*
X83505000Y-102713891D01*
X75590000Y-102713891D01*
X75590000Y-95108665D01*
X77305000Y-95108665D01*
X77305000Y-95391335D01*
X77360147Y-95668574D01*
X77468320Y-95929727D01*
X77625363Y-96164759D01*
X77825241Y-96364637D01*
X78060273Y-96521680D01*
X78321426Y-96629853D01*
X78598665Y-96685000D01*
X78881335Y-96685000D01*
X79158574Y-96629853D01*
X79419727Y-96521680D01*
X79654759Y-96364637D01*
X79854637Y-96164759D01*
X80010000Y-95932241D01*
X80165363Y-96164759D01*
X80365241Y-96364637D01*
X80597759Y-96520000D01*
X80365241Y-96675363D01*
X80165363Y-96875241D01*
X80008320Y-97110273D01*
X79900147Y-97371426D01*
X79845000Y-97648665D01*
X79845000Y-97931335D01*
X79900147Y-98208574D01*
X80008320Y-98469727D01*
X80165363Y-98704759D01*
X80365241Y-98904637D01*
X80600273Y-99061680D01*
X80861426Y-99169853D01*
X81138665Y-99225000D01*
X81421335Y-99225000D01*
X81698574Y-99169853D01*
X81959727Y-99061680D01*
X82194759Y-98904637D01*
X82394637Y-98704759D01*
X82551680Y-98469727D01*
X82659853Y-98208574D01*
X82715000Y-97931335D01*
X82715000Y-97648665D01*
X82659853Y-97371426D01*
X82551680Y-97110273D01*
X82394637Y-96875241D01*
X82194759Y-96675363D01*
X81962241Y-96520000D01*
X82194759Y-96364637D01*
X82394637Y-96164759D01*
X82550000Y-95932241D01*
X82705363Y-96164759D01*
X82905241Y-96364637D01*
X83140273Y-96521680D01*
X83401426Y-96629853D01*
X83678665Y-96685000D01*
X83961335Y-96685000D01*
X84238574Y-96629853D01*
X84499727Y-96521680D01*
X84734759Y-96364637D01*
X84934637Y-96164759D01*
X85090000Y-95932241D01*
X85245363Y-96164759D01*
X85445241Y-96364637D01*
X85677759Y-96520000D01*
X85445241Y-96675363D01*
X85245363Y-96875241D01*
X85088320Y-97110273D01*
X84980147Y-97371426D01*
X84925000Y-97648665D01*
X84925000Y-97931335D01*
X84980147Y-98208574D01*
X85088320Y-98469727D01*
X85245363Y-98704759D01*
X85445241Y-98904637D01*
X85680273Y-99061680D01*
X85941426Y-99169853D01*
X86218665Y-99225000D01*
X86501335Y-99225000D01*
X86778574Y-99169853D01*
X87039727Y-99061680D01*
X87274759Y-98904637D01*
X87474637Y-98704759D01*
X87630000Y-98472241D01*
X87785363Y-98704759D01*
X87985241Y-98904637D01*
X88220273Y-99061680D01*
X88481426Y-99169853D01*
X88758665Y-99225000D01*
X89041335Y-99225000D01*
X89318574Y-99169853D01*
X89579727Y-99061680D01*
X89814759Y-98904637D01*
X90014637Y-98704759D01*
X90170000Y-98472241D01*
X90325363Y-98704759D01*
X90525241Y-98904637D01*
X90760273Y-99061680D01*
X91021426Y-99169853D01*
X91298665Y-99225000D01*
X91581335Y-99225000D01*
X91858574Y-99169853D01*
X92119727Y-99061680D01*
X92354759Y-98904637D01*
X92554637Y-98704759D01*
X92711680Y-98469727D01*
X92819853Y-98208574D01*
X92875000Y-97931335D01*
X92875000Y-97648665D01*
X92819853Y-97371426D01*
X92711680Y-97110273D01*
X92554637Y-96875241D01*
X92354759Y-96675363D01*
X92122241Y-96520000D01*
X92354759Y-96364637D01*
X92554637Y-96164759D01*
X92710000Y-95932241D01*
X92865363Y-96164759D01*
X93065241Y-96364637D01*
X93300273Y-96521680D01*
X93561426Y-96629853D01*
X93838665Y-96685000D01*
X94121335Y-96685000D01*
X94398574Y-96629853D01*
X94659727Y-96521680D01*
X94894759Y-96364637D01*
X95094637Y-96164759D01*
X95250000Y-95932241D01*
X95405363Y-96164759D01*
X95605241Y-96364637D01*
X95840273Y-96521680D01*
X96101426Y-96629853D01*
X96378665Y-96685000D01*
X96661335Y-96685000D01*
X96938574Y-96629853D01*
X97199727Y-96521680D01*
X97434759Y-96364637D01*
X97634637Y-96164759D01*
X97790000Y-95932241D01*
X97945363Y-96164759D01*
X98145241Y-96364637D01*
X98380273Y-96521680D01*
X98641426Y-96629853D01*
X98918665Y-96685000D01*
X99201335Y-96685000D01*
X99478574Y-96629853D01*
X99739727Y-96521680D01*
X99974759Y-96364637D01*
X100174637Y-96164759D01*
X100330000Y-95932241D01*
X100485363Y-96164759D01*
X100685241Y-96364637D01*
X100920273Y-96521680D01*
X101181426Y-96629853D01*
X101458665Y-96685000D01*
X101741335Y-96685000D01*
X102018574Y-96629853D01*
X102279727Y-96521680D01*
X102514759Y-96364637D01*
X102714637Y-96164759D01*
X102870000Y-95932241D01*
X103025363Y-96164759D01*
X103225241Y-96364637D01*
X103460273Y-96521680D01*
X103721426Y-96629853D01*
X103998665Y-96685000D01*
X104281335Y-96685000D01*
X104558574Y-96629853D01*
X104819727Y-96521680D01*
X105054759Y-96364637D01*
X105254637Y-96164759D01*
X105410000Y-95932241D01*
X105565363Y-96164759D01*
X105765241Y-96364637D01*
X106000273Y-96521680D01*
X106261426Y-96629853D01*
X106538665Y-96685000D01*
X106821335Y-96685000D01*
X107098574Y-96629853D01*
X107359727Y-96521680D01*
X107594759Y-96364637D01*
X107794637Y-96164759D01*
X107950000Y-95932241D01*
X108105363Y-96164759D01*
X108305241Y-96364637D01*
X108540273Y-96521680D01*
X108801426Y-96629853D01*
X109078665Y-96685000D01*
X109361335Y-96685000D01*
X109638574Y-96629853D01*
X109899727Y-96521680D01*
X110134759Y-96364637D01*
X110334637Y-96164759D01*
X110490000Y-95932241D01*
X110645363Y-96164759D01*
X110845241Y-96364637D01*
X111077759Y-96520000D01*
X110845241Y-96675363D01*
X110645363Y-96875241D01*
X110488320Y-97110273D01*
X110380147Y-97371426D01*
X110325000Y-97648665D01*
X110325000Y-97931335D01*
X110380147Y-98208574D01*
X110488320Y-98469727D01*
X110645363Y-98704759D01*
X110845241Y-98904637D01*
X111077759Y-99060000D01*
X110845241Y-99215363D01*
X110645363Y-99415241D01*
X110488320Y-99650273D01*
X110380147Y-99911426D01*
X110325000Y-100188665D01*
X110325000Y-100471335D01*
X110380147Y-100748574D01*
X110488320Y-101009727D01*
X110645363Y-101244759D01*
X110845241Y-101444637D01*
X111077759Y-101600000D01*
X110845241Y-101755363D01*
X110645363Y-101955241D01*
X110488320Y-102190273D01*
X110380147Y-102451426D01*
X110325000Y-102728665D01*
X110325000Y-103011335D01*
X110380147Y-103288574D01*
X110488320Y-103549727D01*
X110645363Y-103784759D01*
X110845241Y-103984637D01*
X111077759Y-104140000D01*
X110845241Y-104295363D01*
X110645363Y-104495241D01*
X110488320Y-104730273D01*
X110380147Y-104991426D01*
X110325000Y-105268665D01*
X110325000Y-105551335D01*
X110380147Y-105828574D01*
X110488320Y-106089727D01*
X110645363Y-106324759D01*
X110845241Y-106524637D01*
X111077759Y-106680000D01*
X110845241Y-106835363D01*
X110645363Y-107035241D01*
X110488320Y-107270273D01*
X110380147Y-107531426D01*
X110325000Y-107808665D01*
X110325000Y-108091335D01*
X110380147Y-108368574D01*
X110488320Y-108629727D01*
X110645363Y-108864759D01*
X110845241Y-109064637D01*
X111077759Y-109220000D01*
X110845241Y-109375363D01*
X110645363Y-109575241D01*
X110490000Y-109807759D01*
X110334637Y-109575241D01*
X110134759Y-109375363D01*
X109899727Y-109218320D01*
X109638574Y-109110147D01*
X109361335Y-109055000D01*
X109078665Y-109055000D01*
X108801426Y-109110147D01*
X108540273Y-109218320D01*
X108305241Y-109375363D01*
X108105363Y-109575241D01*
X107950000Y-109807759D01*
X107794637Y-109575241D01*
X107594759Y-109375363D01*
X107359727Y-109218320D01*
X107098574Y-109110147D01*
X106821335Y-109055000D01*
X106538665Y-109055000D01*
X106261426Y-109110147D01*
X106000273Y-109218320D01*
X105765241Y-109375363D01*
X105565363Y-109575241D01*
X105410000Y-109807759D01*
X105254637Y-109575241D01*
X105054759Y-109375363D01*
X104819727Y-109218320D01*
X104558574Y-109110147D01*
X104281335Y-109055000D01*
X103998665Y-109055000D01*
X103721426Y-109110147D01*
X103460273Y-109218320D01*
X103225241Y-109375363D01*
X103025363Y-109575241D01*
X102870000Y-109807759D01*
X102714637Y-109575241D01*
X102514759Y-109375363D01*
X102279727Y-109218320D01*
X102018574Y-109110147D01*
X101741335Y-109055000D01*
X101458665Y-109055000D01*
X101181426Y-109110147D01*
X100920273Y-109218320D01*
X100685241Y-109375363D01*
X100485363Y-109575241D01*
X100330000Y-109807759D01*
X100174637Y-109575241D01*
X99974759Y-109375363D01*
X99739727Y-109218320D01*
X99478574Y-109110147D01*
X99201335Y-109055000D01*
X98918665Y-109055000D01*
X98641426Y-109110147D01*
X98380273Y-109218320D01*
X98145241Y-109375363D01*
X97945363Y-109575241D01*
X97790000Y-109807759D01*
X97634637Y-109575241D01*
X97434759Y-109375363D01*
X97199727Y-109218320D01*
X96938574Y-109110147D01*
X96661335Y-109055000D01*
X96378665Y-109055000D01*
X96101426Y-109110147D01*
X95840273Y-109218320D01*
X95605241Y-109375363D01*
X95405363Y-109575241D01*
X95250000Y-109807759D01*
X95094637Y-109575241D01*
X94894759Y-109375363D01*
X94659727Y-109218320D01*
X94398574Y-109110147D01*
X94121335Y-109055000D01*
X93838665Y-109055000D01*
X93561426Y-109110147D01*
X93300273Y-109218320D01*
X93065241Y-109375363D01*
X92865363Y-109575241D01*
X92710000Y-109807759D01*
X92554637Y-109575241D01*
X92354759Y-109375363D01*
X92119727Y-109218320D01*
X91858574Y-109110147D01*
X91581335Y-109055000D01*
X91298665Y-109055000D01*
X91021426Y-109110147D01*
X90760273Y-109218320D01*
X90525241Y-109375363D01*
X90325363Y-109575241D01*
X90170000Y-109807759D01*
X90014637Y-109575241D01*
X89814759Y-109375363D01*
X89579727Y-109218320D01*
X89318574Y-109110147D01*
X89041335Y-109055000D01*
X88758665Y-109055000D01*
X88481426Y-109110147D01*
X88220273Y-109218320D01*
X87985241Y-109375363D01*
X87785363Y-109575241D01*
X87630000Y-109807759D01*
X87474637Y-109575241D01*
X87274759Y-109375363D01*
X87039727Y-109218320D01*
X86778574Y-109110147D01*
X86501335Y-109055000D01*
X86218665Y-109055000D01*
X85941426Y-109110147D01*
X85680273Y-109218320D01*
X85445241Y-109375363D01*
X85245363Y-109575241D01*
X85090000Y-109807759D01*
X84934637Y-109575241D01*
X84734759Y-109375363D01*
X84499727Y-109218320D01*
X84238574Y-109110147D01*
X83961335Y-109055000D01*
X83678665Y-109055000D01*
X83401426Y-109110147D01*
X83140273Y-109218320D01*
X82905241Y-109375363D01*
X82705363Y-109575241D01*
X82550000Y-109807759D01*
X82394637Y-109575241D01*
X82194759Y-109375363D01*
X81959727Y-109218320D01*
X81698574Y-109110147D01*
X81421335Y-109055000D01*
X81138665Y-109055000D01*
X80861426Y-109110147D01*
X80600273Y-109218320D01*
X80365241Y-109375363D01*
X80166643Y-109573961D01*
X80165812Y-109565518D01*
X80129502Y-109445820D01*
X80070537Y-109335506D01*
X79991185Y-109238815D01*
X79894494Y-109159463D01*
X79784180Y-109100498D01*
X79664482Y-109064188D01*
X79540000Y-109051928D01*
X79025750Y-109055000D01*
X78867000Y-109213750D01*
X78867000Y-110363000D01*
X78887000Y-110363000D01*
X78887000Y-110617000D01*
X78867000Y-110617000D01*
X78867000Y-111766250D01*
X79025750Y-111925000D01*
X79540000Y-111928072D01*
X79664482Y-111915812D01*
X79784180Y-111879502D01*
X79894494Y-111820537D01*
X79991185Y-111741185D01*
X80070537Y-111644494D01*
X80129502Y-111534180D01*
X80165812Y-111414482D01*
X80166643Y-111406039D01*
X80365241Y-111604637D01*
X80600273Y-111761680D01*
X80861426Y-111869853D01*
X81138665Y-111925000D01*
X81421335Y-111925000D01*
X81698574Y-111869853D01*
X81959727Y-111761680D01*
X82194759Y-111604637D01*
X82394637Y-111404759D01*
X82550000Y-111172241D01*
X82705363Y-111404759D01*
X82905241Y-111604637D01*
X83140273Y-111761680D01*
X83401426Y-111869853D01*
X83678665Y-111925000D01*
X83961335Y-111925000D01*
X84238574Y-111869853D01*
X84499727Y-111761680D01*
X84734759Y-111604637D01*
X84934637Y-111404759D01*
X85090000Y-111172241D01*
X85245363Y-111404759D01*
X85445241Y-111604637D01*
X85680273Y-111761680D01*
X85941426Y-111869853D01*
X86218665Y-111925000D01*
X86501335Y-111925000D01*
X86778574Y-111869853D01*
X87039727Y-111761680D01*
X87274759Y-111604637D01*
X87474637Y-111404759D01*
X87630000Y-111172241D01*
X87785363Y-111404759D01*
X87985241Y-111604637D01*
X88220273Y-111761680D01*
X88481426Y-111869853D01*
X88758665Y-111925000D01*
X89041335Y-111925000D01*
X89318574Y-111869853D01*
X89579727Y-111761680D01*
X89814759Y-111604637D01*
X90014637Y-111404759D01*
X90170000Y-111172241D01*
X90325363Y-111404759D01*
X90525241Y-111604637D01*
X90760273Y-111761680D01*
X91021426Y-111869853D01*
X91298665Y-111925000D01*
X91581335Y-111925000D01*
X91858574Y-111869853D01*
X92119727Y-111761680D01*
X92354759Y-111604637D01*
X92554637Y-111404759D01*
X92710000Y-111172241D01*
X92865363Y-111404759D01*
X93065241Y-111604637D01*
X93300273Y-111761680D01*
X93561426Y-111869853D01*
X93838665Y-111925000D01*
X94121335Y-111925000D01*
X94398574Y-111869853D01*
X94659727Y-111761680D01*
X94894759Y-111604637D01*
X95094637Y-111404759D01*
X95250000Y-111172241D01*
X95405363Y-111404759D01*
X95605241Y-111604637D01*
X95840273Y-111761680D01*
X96101426Y-111869853D01*
X96378665Y-111925000D01*
X96661335Y-111925000D01*
X96938574Y-111869853D01*
X97199727Y-111761680D01*
X97434759Y-111604637D01*
X97634637Y-111404759D01*
X97790000Y-111172241D01*
X97945363Y-111404759D01*
X98145241Y-111604637D01*
X98380273Y-111761680D01*
X98641426Y-111869853D01*
X98918665Y-111925000D01*
X99201335Y-111925000D01*
X99478574Y-111869853D01*
X99739727Y-111761680D01*
X99974759Y-111604637D01*
X100174637Y-111404759D01*
X100330000Y-111172241D01*
X100485363Y-111404759D01*
X100685241Y-111604637D01*
X100920273Y-111761680D01*
X101181426Y-111869853D01*
X101458665Y-111925000D01*
X101741335Y-111925000D01*
X102018574Y-111869853D01*
X102279727Y-111761680D01*
X102514759Y-111604637D01*
X102714637Y-111404759D01*
X102870000Y-111172241D01*
X103025363Y-111404759D01*
X103225241Y-111604637D01*
X103460273Y-111761680D01*
X103721426Y-111869853D01*
X103998665Y-111925000D01*
X104281335Y-111925000D01*
X104558574Y-111869853D01*
X104819727Y-111761680D01*
X105054759Y-111604637D01*
X105254637Y-111404759D01*
X105410000Y-111172241D01*
X105565363Y-111404759D01*
X105765241Y-111604637D01*
X106000273Y-111761680D01*
X106261426Y-111869853D01*
X106538665Y-111925000D01*
X106821335Y-111925000D01*
X107098574Y-111869853D01*
X107359727Y-111761680D01*
X107594759Y-111604637D01*
X107794637Y-111404759D01*
X107950000Y-111172241D01*
X108105363Y-111404759D01*
X108305241Y-111604637D01*
X108540273Y-111761680D01*
X108801426Y-111869853D01*
X109078665Y-111925000D01*
X109361335Y-111925000D01*
X109638574Y-111869853D01*
X109899727Y-111761680D01*
X110134759Y-111604637D01*
X110334637Y-111404759D01*
X110490000Y-111172241D01*
X110645363Y-111404759D01*
X110845241Y-111604637D01*
X111080273Y-111761680D01*
X111341426Y-111869853D01*
X111618665Y-111925000D01*
X111901335Y-111925000D01*
X112178574Y-111869853D01*
X112439727Y-111761680D01*
X112674759Y-111604637D01*
X112874637Y-111404759D01*
X113031680Y-111169727D01*
X113139853Y-110908574D01*
X113195000Y-110631335D01*
X113195000Y-110348665D01*
X113139853Y-110071426D01*
X113031680Y-109810273D01*
X112874637Y-109575241D01*
X112674759Y-109375363D01*
X112442241Y-109220000D01*
X112674759Y-109064637D01*
X112874637Y-108864759D01*
X113031680Y-108629727D01*
X113039825Y-108610061D01*
X129902000Y-108610061D01*
X129902000Y-108813939D01*
X129941774Y-109013898D01*
X130019795Y-109202256D01*
X130133063Y-109371774D01*
X130277226Y-109515937D01*
X130446744Y-109629205D01*
X130635102Y-109707226D01*
X130835061Y-109747000D01*
X131038939Y-109747000D01*
X131238898Y-109707226D01*
X131427256Y-109629205D01*
X131596774Y-109515937D01*
X131703928Y-109408783D01*
X131843744Y-109502205D01*
X132032102Y-109580226D01*
X132232061Y-109620000D01*
X132435939Y-109620000D01*
X132635898Y-109580226D01*
X132824256Y-109502205D01*
X132993774Y-109388937D01*
X133137937Y-109244774D01*
X133251205Y-109075256D01*
X133329226Y-108886898D01*
X133369000Y-108686939D01*
X133369000Y-108483061D01*
X133367794Y-108477000D01*
X133451939Y-108477000D01*
X133651898Y-108437226D01*
X133840256Y-108359205D01*
X134009774Y-108245937D01*
X134153937Y-108101774D01*
X134267205Y-107932256D01*
X134316358Y-107813589D01*
X144665000Y-107813589D01*
X144665000Y-108086411D01*
X144718225Y-108353989D01*
X144822629Y-108606043D01*
X144974201Y-108832886D01*
X145167114Y-109025799D01*
X145393957Y-109177371D01*
X145646011Y-109281775D01*
X145913589Y-109335000D01*
X146186411Y-109335000D01*
X146453989Y-109281775D01*
X146706043Y-109177371D01*
X146932886Y-109025799D01*
X147125799Y-108832886D01*
X147277371Y-108606043D01*
X147320000Y-108503127D01*
X147362629Y-108606043D01*
X147514201Y-108832886D01*
X147707114Y-109025799D01*
X147933957Y-109177371D01*
X148186011Y-109281775D01*
X148453589Y-109335000D01*
X148726411Y-109335000D01*
X148993989Y-109281775D01*
X149246043Y-109177371D01*
X149472886Y-109025799D01*
X149665799Y-108832886D01*
X149817371Y-108606043D01*
X149860000Y-108503127D01*
X149902629Y-108606043D01*
X150054201Y-108832886D01*
X150247114Y-109025799D01*
X150473957Y-109177371D01*
X150726011Y-109281775D01*
X150993589Y-109335000D01*
X151266411Y-109335000D01*
X151533989Y-109281775D01*
X151786043Y-109177371D01*
X152012886Y-109025799D01*
X152131692Y-108906993D01*
X152892612Y-108906993D01*
X152958137Y-109145860D01*
X153205116Y-109261760D01*
X153469960Y-109327250D01*
X153742492Y-109339812D01*
X154012238Y-109298965D01*
X154268832Y-109206277D01*
X154381863Y-109145860D01*
X154447388Y-108906993D01*
X153670000Y-108129605D01*
X152892612Y-108906993D01*
X152131692Y-108906993D01*
X152205799Y-108832886D01*
X152357371Y-108606043D01*
X152398511Y-108506721D01*
X152413723Y-108548832D01*
X152474140Y-108661863D01*
X152713007Y-108727388D01*
X153490395Y-107950000D01*
X153849605Y-107950000D01*
X154626993Y-108727388D01*
X154865860Y-108661863D01*
X154940164Y-108503523D01*
X154982629Y-108606043D01*
X155134201Y-108832886D01*
X155327114Y-109025799D01*
X155553957Y-109177371D01*
X155806011Y-109281775D01*
X156073589Y-109335000D01*
X156346411Y-109335000D01*
X156613989Y-109281775D01*
X156866043Y-109177371D01*
X157092886Y-109025799D01*
X157285799Y-108832886D01*
X157437371Y-108606043D01*
X157480000Y-108503127D01*
X157522629Y-108606043D01*
X157674201Y-108832886D01*
X157867114Y-109025799D01*
X158093957Y-109177371D01*
X158346011Y-109281775D01*
X158613589Y-109335000D01*
X158886411Y-109335000D01*
X159153989Y-109281775D01*
X159406043Y-109177371D01*
X159632886Y-109025799D01*
X159825799Y-108832886D01*
X159977371Y-108606043D01*
X160020000Y-108503127D01*
X160062629Y-108606043D01*
X160214201Y-108832886D01*
X160407114Y-109025799D01*
X160633957Y-109177371D01*
X160886011Y-109281775D01*
X161153589Y-109335000D01*
X161426411Y-109335000D01*
X161693989Y-109281775D01*
X161946043Y-109177371D01*
X162172886Y-109025799D01*
X162365799Y-108832886D01*
X162517371Y-108606043D01*
X162621775Y-108353989D01*
X162675000Y-108086411D01*
X162675000Y-107813589D01*
X162621775Y-107546011D01*
X162517371Y-107293957D01*
X162365799Y-107067114D01*
X162172886Y-106874201D01*
X161946043Y-106722629D01*
X161693989Y-106618225D01*
X161426411Y-106565000D01*
X161153589Y-106565000D01*
X160886011Y-106618225D01*
X160633957Y-106722629D01*
X160407114Y-106874201D01*
X160214201Y-107067114D01*
X160062629Y-107293957D01*
X160020000Y-107396873D01*
X159977371Y-107293957D01*
X159825799Y-107067114D01*
X159632886Y-106874201D01*
X159406043Y-106722629D01*
X159153989Y-106618225D01*
X158886411Y-106565000D01*
X158613589Y-106565000D01*
X158346011Y-106618225D01*
X158093957Y-106722629D01*
X157867114Y-106874201D01*
X157674201Y-107067114D01*
X157522629Y-107293957D01*
X157480000Y-107396873D01*
X157437371Y-107293957D01*
X157285799Y-107067114D01*
X157092886Y-106874201D01*
X156866043Y-106722629D01*
X156613989Y-106618225D01*
X156346411Y-106565000D01*
X156073589Y-106565000D01*
X155806011Y-106618225D01*
X155553957Y-106722629D01*
X155327114Y-106874201D01*
X155134201Y-107067114D01*
X154982629Y-107293957D01*
X154941489Y-107393279D01*
X154926277Y-107351168D01*
X154865860Y-107238137D01*
X154626993Y-107172612D01*
X153849605Y-107950000D01*
X153490395Y-107950000D01*
X152713007Y-107172612D01*
X152474140Y-107238137D01*
X152399836Y-107396477D01*
X152357371Y-107293957D01*
X152205799Y-107067114D01*
X152131692Y-106993007D01*
X152892612Y-106993007D01*
X153670000Y-107770395D01*
X154447388Y-106993007D01*
X154381863Y-106754140D01*
X154134884Y-106638240D01*
X153870040Y-106572750D01*
X153597508Y-106560188D01*
X153327762Y-106601035D01*
X153071168Y-106693723D01*
X152958137Y-106754140D01*
X152892612Y-106993007D01*
X152131692Y-106993007D01*
X152012886Y-106874201D01*
X151786043Y-106722629D01*
X151533989Y-106618225D01*
X151266411Y-106565000D01*
X150993589Y-106565000D01*
X150726011Y-106618225D01*
X150473957Y-106722629D01*
X150247114Y-106874201D01*
X150054201Y-107067114D01*
X149902629Y-107293957D01*
X149860000Y-107396873D01*
X149817371Y-107293957D01*
X149665799Y-107067114D01*
X149472886Y-106874201D01*
X149246043Y-106722629D01*
X148993989Y-106618225D01*
X148726411Y-106565000D01*
X148453589Y-106565000D01*
X148186011Y-106618225D01*
X147933957Y-106722629D01*
X147707114Y-106874201D01*
X147514201Y-107067114D01*
X147362629Y-107293957D01*
X147320000Y-107396873D01*
X147277371Y-107293957D01*
X147125799Y-107067114D01*
X146932886Y-106874201D01*
X146706043Y-106722629D01*
X146453989Y-106618225D01*
X146186411Y-106565000D01*
X145913589Y-106565000D01*
X145646011Y-106618225D01*
X145393957Y-106722629D01*
X145167114Y-106874201D01*
X144974201Y-107067114D01*
X144822629Y-107293957D01*
X144718225Y-107546011D01*
X144665000Y-107813589D01*
X134316358Y-107813589D01*
X134345226Y-107743898D01*
X134385000Y-107543939D01*
X134385000Y-107340061D01*
X134383495Y-107332495D01*
X134391061Y-107334000D01*
X134594939Y-107334000D01*
X134794898Y-107294226D01*
X134983256Y-107216205D01*
X135152774Y-107102937D01*
X135296937Y-106958774D01*
X135410205Y-106789256D01*
X135488226Y-106600898D01*
X135528000Y-106400939D01*
X135528000Y-106318000D01*
X135610939Y-106318000D01*
X135810898Y-106278226D01*
X135999256Y-106200205D01*
X136168774Y-106086937D01*
X136312937Y-105942774D01*
X136426205Y-105773256D01*
X136504226Y-105584898D01*
X136544000Y-105384939D01*
X136544000Y-105181061D01*
X136542794Y-105175000D01*
X136626939Y-105175000D01*
X136826898Y-105135226D01*
X137015256Y-105057205D01*
X137184774Y-104943937D01*
X137328937Y-104799774D01*
X137442205Y-104630256D01*
X137520226Y-104441898D01*
X137560000Y-104241939D01*
X137560000Y-104157794D01*
X137566061Y-104159000D01*
X137769939Y-104159000D01*
X137969898Y-104119226D01*
X138158256Y-104041205D01*
X138162961Y-104038061D01*
X154921000Y-104038061D01*
X154921000Y-104241939D01*
X154960774Y-104441898D01*
X155038795Y-104630256D01*
X155152063Y-104799774D01*
X155296226Y-104943937D01*
X155465744Y-105057205D01*
X155654102Y-105135226D01*
X155854061Y-105175000D01*
X156057939Y-105175000D01*
X156257898Y-105135226D01*
X156446256Y-105057205D01*
X156615774Y-104943937D01*
X156759937Y-104799774D01*
X156873205Y-104630256D01*
X156951226Y-104441898D01*
X156991000Y-104241939D01*
X156991000Y-104038061D01*
X156951226Y-103838102D01*
X156873205Y-103649744D01*
X156759937Y-103480226D01*
X156615774Y-103336063D01*
X156446256Y-103222795D01*
X156257898Y-103144774D01*
X156057939Y-103105000D01*
X155854061Y-103105000D01*
X155654102Y-103144774D01*
X155465744Y-103222795D01*
X155296226Y-103336063D01*
X155152063Y-103480226D01*
X155038795Y-103649744D01*
X154960774Y-103838102D01*
X154921000Y-104038061D01*
X138162961Y-104038061D01*
X138327774Y-103927937D01*
X138471937Y-103783774D01*
X138585205Y-103614256D01*
X138663226Y-103425898D01*
X138703000Y-103225939D01*
X138703000Y-103143000D01*
X138785939Y-103143000D01*
X138985898Y-103103226D01*
X139174256Y-103025205D01*
X139343774Y-102911937D01*
X139487937Y-102767774D01*
X139601205Y-102598256D01*
X139679226Y-102409898D01*
X139711690Y-102246690D01*
X139874898Y-102214226D01*
X140063256Y-102136205D01*
X140232774Y-102022937D01*
X140376937Y-101878774D01*
X140490205Y-101709256D01*
X140568226Y-101520898D01*
X140579619Y-101463619D01*
X140636898Y-101452226D01*
X140825256Y-101374205D01*
X140994774Y-101260937D01*
X141138937Y-101116774D01*
X141252205Y-100947256D01*
X141330226Y-100758898D01*
X141370000Y-100558939D01*
X141370000Y-100476000D01*
X141452939Y-100476000D01*
X141652898Y-100436226D01*
X141841256Y-100358205D01*
X142010774Y-100244937D01*
X142154937Y-100100774D01*
X142268205Y-99931256D01*
X142346226Y-99742898D01*
X142386000Y-99542939D01*
X142386000Y-99460000D01*
X142468939Y-99460000D01*
X142668898Y-99420226D01*
X142857256Y-99342205D01*
X143026774Y-99228937D01*
X143170937Y-99084774D01*
X143284205Y-98915256D01*
X143362226Y-98726898D01*
X143373619Y-98669619D01*
X143430898Y-98658226D01*
X143619256Y-98580205D01*
X143788774Y-98466937D01*
X143932937Y-98322774D01*
X144046205Y-98153256D01*
X144124226Y-97964898D01*
X144156690Y-97801690D01*
X144319898Y-97769226D01*
X144508256Y-97691205D01*
X144677774Y-97577937D01*
X144821937Y-97433774D01*
X144935205Y-97264256D01*
X145013226Y-97075898D01*
X145024619Y-97018619D01*
X145081898Y-97007226D01*
X145270256Y-96929205D01*
X145439774Y-96815937D01*
X145583937Y-96671774D01*
X145697205Y-96502256D01*
X145775226Y-96313898D01*
X145786619Y-96256619D01*
X145843898Y-96245226D01*
X146032256Y-96167205D01*
X146201774Y-96053937D01*
X146345937Y-95909774D01*
X146459205Y-95740256D01*
X146537226Y-95551898D01*
X146548619Y-95494619D01*
X146605898Y-95483226D01*
X146794256Y-95405205D01*
X146963774Y-95291937D01*
X147107937Y-95147774D01*
X147221205Y-94978256D01*
X147272763Y-94853786D01*
X147337744Y-94897205D01*
X147526102Y-94975226D01*
X147726061Y-95015000D01*
X147929939Y-95015000D01*
X148129898Y-94975226D01*
X148318256Y-94897205D01*
X148487774Y-94783937D01*
X148631937Y-94639774D01*
X148745205Y-94470256D01*
X148823226Y-94281898D01*
X148863000Y-94081939D01*
X148863000Y-93878061D01*
X148823226Y-93678102D01*
X148745205Y-93489744D01*
X148733349Y-93472000D01*
X148745205Y-93454256D01*
X148823226Y-93265898D01*
X148863000Y-93065939D01*
X148863000Y-92862061D01*
X148823226Y-92662102D01*
X148745205Y-92473744D01*
X148733349Y-92456000D01*
X148745205Y-92438256D01*
X148823226Y-92249898D01*
X148863000Y-92049939D01*
X148863000Y-91846061D01*
X148823226Y-91646102D01*
X148745205Y-91457744D01*
X148733349Y-91440000D01*
X148745205Y-91422256D01*
X148798438Y-91293740D01*
X156575000Y-91293740D01*
X156575000Y-91586260D01*
X156632068Y-91873158D01*
X156744010Y-92143411D01*
X156906525Y-92386632D01*
X157113368Y-92593475D01*
X157356589Y-92755990D01*
X157626842Y-92867932D01*
X157913740Y-92925000D01*
X158206260Y-92925000D01*
X158493158Y-92867932D01*
X158763411Y-92755990D01*
X159006632Y-92593475D01*
X159213475Y-92386632D01*
X159375990Y-92143411D01*
X159487932Y-91873158D01*
X159545000Y-91586260D01*
X159545000Y-91293740D01*
X163575000Y-91293740D01*
X163575000Y-91586260D01*
X163632068Y-91873158D01*
X163744010Y-92143411D01*
X163906525Y-92386632D01*
X164113368Y-92593475D01*
X164356589Y-92755990D01*
X164626842Y-92867932D01*
X164913740Y-92925000D01*
X165206260Y-92925000D01*
X165493158Y-92867932D01*
X165763411Y-92755990D01*
X166006632Y-92593475D01*
X166213475Y-92386632D01*
X166375990Y-92143411D01*
X166487932Y-91873158D01*
X166545000Y-91586260D01*
X166545000Y-91293740D01*
X166487932Y-91006842D01*
X166375990Y-90736589D01*
X166213475Y-90493368D01*
X166006632Y-90286525D01*
X165763411Y-90124010D01*
X165493158Y-90012068D01*
X165206260Y-89955000D01*
X164913740Y-89955000D01*
X164626842Y-90012068D01*
X164356589Y-90124010D01*
X164113368Y-90286525D01*
X163906525Y-90493368D01*
X163744010Y-90736589D01*
X163632068Y-91006842D01*
X163575000Y-91293740D01*
X159545000Y-91293740D01*
X159487932Y-91006842D01*
X159375990Y-90736589D01*
X159213475Y-90493368D01*
X159006632Y-90286525D01*
X158763411Y-90124010D01*
X158493158Y-90012068D01*
X158206260Y-89955000D01*
X157913740Y-89955000D01*
X157626842Y-90012068D01*
X157356589Y-90124010D01*
X157113368Y-90286525D01*
X156906525Y-90493368D01*
X156744010Y-90736589D01*
X156632068Y-91006842D01*
X156575000Y-91293740D01*
X148798438Y-91293740D01*
X148823226Y-91233898D01*
X148863000Y-91033939D01*
X148863000Y-90830061D01*
X148823226Y-90630102D01*
X148745205Y-90441744D01*
X148733349Y-90424000D01*
X148745205Y-90406256D01*
X148823226Y-90217898D01*
X148863000Y-90017939D01*
X148863000Y-89814061D01*
X148823226Y-89614102D01*
X148745205Y-89425744D01*
X148631937Y-89256226D01*
X148487774Y-89112063D01*
X148318256Y-88998795D01*
X148129898Y-88920774D01*
X147929939Y-88881000D01*
X147726061Y-88881000D01*
X147526102Y-88920774D01*
X147337744Y-88998795D01*
X147272763Y-89042214D01*
X147221205Y-88917744D01*
X147107937Y-88748226D01*
X146963774Y-88604063D01*
X146794256Y-88490795D01*
X146605898Y-88412774D01*
X146405939Y-88373000D01*
X146202061Y-88373000D01*
X146002102Y-88412774D01*
X145813744Y-88490795D01*
X145644226Y-88604063D01*
X145500063Y-88748226D01*
X145386795Y-88917744D01*
X145308774Y-89106102D01*
X145269000Y-89306061D01*
X145269000Y-89509939D01*
X145308774Y-89709898D01*
X145386795Y-89898256D01*
X145500063Y-90067774D01*
X145644226Y-90211937D01*
X145813744Y-90325205D01*
X146002102Y-90403226D01*
X146202061Y-90443000D01*
X146405939Y-90443000D01*
X146605898Y-90403226D01*
X146794256Y-90325205D01*
X146859237Y-90281786D01*
X146910795Y-90406256D01*
X146922651Y-90424000D01*
X146910795Y-90441744D01*
X146832774Y-90630102D01*
X146793000Y-90830061D01*
X146793000Y-91033939D01*
X146832774Y-91233898D01*
X146910795Y-91422256D01*
X146922651Y-91440000D01*
X146910795Y-91457744D01*
X146832774Y-91646102D01*
X146793000Y-91846061D01*
X146793000Y-92049939D01*
X146832774Y-92249898D01*
X146910795Y-92438256D01*
X146922651Y-92456000D01*
X146910795Y-92473744D01*
X146832774Y-92662102D01*
X146793000Y-92862061D01*
X146793000Y-93065939D01*
X146832774Y-93265898D01*
X146910795Y-93454256D01*
X146922651Y-93472000D01*
X146910795Y-93489744D01*
X146859237Y-93614214D01*
X146794256Y-93570795D01*
X146605898Y-93492774D01*
X146405939Y-93453000D01*
X146202061Y-93453000D01*
X146002102Y-93492774D01*
X145813744Y-93570795D01*
X145644226Y-93684063D01*
X145500063Y-93828226D01*
X145386795Y-93997744D01*
X145308774Y-94186102D01*
X145297381Y-94243381D01*
X145240102Y-94254774D01*
X145051744Y-94332795D01*
X144882226Y-94446063D01*
X144738063Y-94590226D01*
X144624795Y-94759744D01*
X144546774Y-94948102D01*
X144535381Y-95005381D01*
X144478102Y-95016774D01*
X144289744Y-95094795D01*
X144120226Y-95208063D01*
X143976063Y-95352226D01*
X143862795Y-95521744D01*
X143784774Y-95710102D01*
X143773381Y-95767381D01*
X143716102Y-95778774D01*
X143527744Y-95856795D01*
X143358226Y-95970063D01*
X143214063Y-96114226D01*
X143100795Y-96283744D01*
X143022774Y-96472102D01*
X142990310Y-96635310D01*
X142827102Y-96667774D01*
X142638744Y-96745795D01*
X142469226Y-96859063D01*
X142325063Y-97003226D01*
X142211795Y-97172744D01*
X142133774Y-97361102D01*
X142122381Y-97418381D01*
X142065102Y-97429774D01*
X141876744Y-97507795D01*
X141707226Y-97621063D01*
X141563063Y-97765226D01*
X141449795Y-97934744D01*
X141371774Y-98123102D01*
X141332000Y-98323061D01*
X141332000Y-98406000D01*
X141249061Y-98406000D01*
X141049102Y-98445774D01*
X140860744Y-98523795D01*
X140691226Y-98637063D01*
X140547063Y-98781226D01*
X140433795Y-98950744D01*
X140355774Y-99139102D01*
X140316000Y-99339061D01*
X140316000Y-99422000D01*
X140233061Y-99422000D01*
X140033102Y-99461774D01*
X139844744Y-99539795D01*
X139675226Y-99653063D01*
X139531063Y-99797226D01*
X139417795Y-99966744D01*
X139339774Y-100155102D01*
X139328381Y-100212381D01*
X139271102Y-100223774D01*
X139082744Y-100301795D01*
X138913226Y-100415063D01*
X138769063Y-100559226D01*
X138655795Y-100728744D01*
X138577774Y-100917102D01*
X138545310Y-101080310D01*
X138382102Y-101112774D01*
X138193744Y-101190795D01*
X138024226Y-101304063D01*
X137880063Y-101448226D01*
X137766795Y-101617744D01*
X137688774Y-101806102D01*
X137649000Y-102006061D01*
X137649000Y-102089000D01*
X137566061Y-102089000D01*
X137366102Y-102128774D01*
X137177744Y-102206795D01*
X137008226Y-102320063D01*
X136864063Y-102464226D01*
X136750795Y-102633744D01*
X136672774Y-102822102D01*
X136633000Y-103022061D01*
X136633000Y-103106206D01*
X136626939Y-103105000D01*
X136423061Y-103105000D01*
X136223102Y-103144774D01*
X136034744Y-103222795D01*
X135865226Y-103336063D01*
X135721063Y-103480226D01*
X135607795Y-103649744D01*
X135529774Y-103838102D01*
X135490000Y-104038061D01*
X135490000Y-104241939D01*
X135491206Y-104248000D01*
X135407061Y-104248000D01*
X135207102Y-104287774D01*
X135018744Y-104365795D01*
X134849226Y-104479063D01*
X134705063Y-104623226D01*
X134591795Y-104792744D01*
X134513774Y-104981102D01*
X134474000Y-105181061D01*
X134474000Y-105264000D01*
X134391061Y-105264000D01*
X134191102Y-105303774D01*
X134002744Y-105381795D01*
X133833226Y-105495063D01*
X133689063Y-105639226D01*
X133575795Y-105808744D01*
X133497774Y-105997102D01*
X133458000Y-106197061D01*
X133458000Y-106400939D01*
X133459505Y-106408505D01*
X133451939Y-106407000D01*
X133248061Y-106407000D01*
X133048102Y-106446774D01*
X132859744Y-106524795D01*
X132690226Y-106638063D01*
X132546063Y-106782226D01*
X132432795Y-106951744D01*
X132354774Y-107140102D01*
X132315000Y-107340061D01*
X132315000Y-107543939D01*
X132316206Y-107550000D01*
X132232061Y-107550000D01*
X132032102Y-107589774D01*
X131843744Y-107667795D01*
X131674226Y-107781063D01*
X131567072Y-107888217D01*
X131427256Y-107794795D01*
X131238898Y-107716774D01*
X131038939Y-107677000D01*
X130835061Y-107677000D01*
X130635102Y-107716774D01*
X130446744Y-107794795D01*
X130277226Y-107908063D01*
X130133063Y-108052226D01*
X130019795Y-108221744D01*
X129941774Y-108410102D01*
X129902000Y-108610061D01*
X113039825Y-108610061D01*
X113139853Y-108368574D01*
X113195000Y-108091335D01*
X113195000Y-107808665D01*
X113139853Y-107531426D01*
X113031680Y-107270273D01*
X112874637Y-107035241D01*
X112674759Y-106835363D01*
X112442241Y-106680000D01*
X112674759Y-106524637D01*
X112874637Y-106324759D01*
X113031680Y-106089727D01*
X113139853Y-105828574D01*
X113195000Y-105551335D01*
X113195000Y-105268665D01*
X113139853Y-104991426D01*
X113031680Y-104730273D01*
X112874637Y-104495241D01*
X112674759Y-104295363D01*
X112442241Y-104140000D01*
X112674759Y-103984637D01*
X112874637Y-103784759D01*
X113031680Y-103549727D01*
X113139853Y-103288574D01*
X113195000Y-103011335D01*
X113195000Y-102728665D01*
X113139853Y-102451426D01*
X113031680Y-102190273D01*
X112874637Y-101955241D01*
X112674759Y-101755363D01*
X112442241Y-101600000D01*
X112674759Y-101444637D01*
X112874637Y-101244759D01*
X113031680Y-101009727D01*
X113039825Y-100990061D01*
X115551000Y-100990061D01*
X115551000Y-101193939D01*
X115590774Y-101393898D01*
X115668795Y-101582256D01*
X115782063Y-101751774D01*
X115926226Y-101895937D01*
X116095744Y-102009205D01*
X116284102Y-102087226D01*
X116484061Y-102127000D01*
X116568206Y-102127000D01*
X116567000Y-102133061D01*
X116567000Y-102336939D01*
X116606774Y-102536898D01*
X116684795Y-102725256D01*
X116798063Y-102894774D01*
X116942226Y-103038937D01*
X117111744Y-103152205D01*
X117300102Y-103230226D01*
X117500061Y-103270000D01*
X117703939Y-103270000D01*
X117903898Y-103230226D01*
X118092256Y-103152205D01*
X118261774Y-103038937D01*
X118405937Y-102894774D01*
X118519205Y-102725256D01*
X118597226Y-102536898D01*
X118637000Y-102336939D01*
X118637000Y-102133061D01*
X118597226Y-101933102D01*
X118519205Y-101744744D01*
X118405937Y-101575226D01*
X118261774Y-101431063D01*
X118092256Y-101317795D01*
X117903898Y-101239774D01*
X117703939Y-101200000D01*
X117619794Y-101200000D01*
X117621000Y-101193939D01*
X117621000Y-100990061D01*
X117581226Y-100790102D01*
X117503205Y-100601744D01*
X117389937Y-100432226D01*
X117245774Y-100288063D01*
X117076256Y-100174795D01*
X116887898Y-100096774D01*
X116687939Y-100057000D01*
X116484061Y-100057000D01*
X116284102Y-100096774D01*
X116095744Y-100174795D01*
X115926226Y-100288063D01*
X115782063Y-100432226D01*
X115668795Y-100601744D01*
X115590774Y-100790102D01*
X115551000Y-100990061D01*
X113039825Y-100990061D01*
X113139853Y-100748574D01*
X113195000Y-100471335D01*
X113195000Y-100188665D01*
X113139853Y-99911426D01*
X113031680Y-99650273D01*
X112874637Y-99415241D01*
X112674759Y-99215363D01*
X112442241Y-99060000D01*
X112674759Y-98904637D01*
X112874637Y-98704759D01*
X113031680Y-98469727D01*
X113139853Y-98208574D01*
X113195000Y-97931335D01*
X113195000Y-97648665D01*
X113139853Y-97371426D01*
X113031680Y-97110273D01*
X112874637Y-96875241D01*
X112674759Y-96675363D01*
X112442241Y-96520000D01*
X112674759Y-96364637D01*
X112874637Y-96164759D01*
X113031680Y-95929727D01*
X113139853Y-95668574D01*
X113195000Y-95391335D01*
X113195000Y-95108665D01*
X113139853Y-94831426D01*
X113031680Y-94570273D01*
X112874637Y-94335241D01*
X112674759Y-94135363D01*
X112439727Y-93978320D01*
X112178574Y-93870147D01*
X111901335Y-93815000D01*
X111618665Y-93815000D01*
X111341426Y-93870147D01*
X111080273Y-93978320D01*
X110845241Y-94135363D01*
X110645363Y-94335241D01*
X110490000Y-94567759D01*
X110334637Y-94335241D01*
X110134759Y-94135363D01*
X109899727Y-93978320D01*
X109638574Y-93870147D01*
X109361335Y-93815000D01*
X109078665Y-93815000D01*
X108801426Y-93870147D01*
X108540273Y-93978320D01*
X108305241Y-94135363D01*
X108105363Y-94335241D01*
X107950000Y-94567759D01*
X107794637Y-94335241D01*
X107594759Y-94135363D01*
X107359727Y-93978320D01*
X107098574Y-93870147D01*
X106821335Y-93815000D01*
X106538665Y-93815000D01*
X106261426Y-93870147D01*
X106000273Y-93978320D01*
X105765241Y-94135363D01*
X105565363Y-94335241D01*
X105410000Y-94567759D01*
X105254637Y-94335241D01*
X105054759Y-94135363D01*
X104819727Y-93978320D01*
X104558574Y-93870147D01*
X104281335Y-93815000D01*
X103998665Y-93815000D01*
X103721426Y-93870147D01*
X103460273Y-93978320D01*
X103225241Y-94135363D01*
X103025363Y-94335241D01*
X102870000Y-94567759D01*
X102714637Y-94335241D01*
X102514759Y-94135363D01*
X102279727Y-93978320D01*
X102018574Y-93870147D01*
X101741335Y-93815000D01*
X101458665Y-93815000D01*
X101181426Y-93870147D01*
X100920273Y-93978320D01*
X100685241Y-94135363D01*
X100485363Y-94335241D01*
X100330000Y-94567759D01*
X100174637Y-94335241D01*
X99974759Y-94135363D01*
X99739727Y-93978320D01*
X99478574Y-93870147D01*
X99201335Y-93815000D01*
X98918665Y-93815000D01*
X98641426Y-93870147D01*
X98380273Y-93978320D01*
X98145241Y-94135363D01*
X97945363Y-94335241D01*
X97790000Y-94567759D01*
X97634637Y-94335241D01*
X97434759Y-94135363D01*
X97199727Y-93978320D01*
X96938574Y-93870147D01*
X96661335Y-93815000D01*
X96378665Y-93815000D01*
X96101426Y-93870147D01*
X95840273Y-93978320D01*
X95605241Y-94135363D01*
X95405363Y-94335241D01*
X95250000Y-94567759D01*
X95094637Y-94335241D01*
X94894759Y-94135363D01*
X94659727Y-93978320D01*
X94398574Y-93870147D01*
X94121335Y-93815000D01*
X93838665Y-93815000D01*
X93561426Y-93870147D01*
X93300273Y-93978320D01*
X93065241Y-94135363D01*
X92865363Y-94335241D01*
X92710000Y-94567759D01*
X92554637Y-94335241D01*
X92354759Y-94135363D01*
X92119727Y-93978320D01*
X91858574Y-93870147D01*
X91581335Y-93815000D01*
X91298665Y-93815000D01*
X91021426Y-93870147D01*
X90760273Y-93978320D01*
X90525241Y-94135363D01*
X90325363Y-94335241D01*
X90170000Y-94567759D01*
X90014637Y-94335241D01*
X89814759Y-94135363D01*
X89579727Y-93978320D01*
X89318574Y-93870147D01*
X89041335Y-93815000D01*
X88758665Y-93815000D01*
X88481426Y-93870147D01*
X88220273Y-93978320D01*
X87985241Y-94135363D01*
X87785363Y-94335241D01*
X87630000Y-94567759D01*
X87474637Y-94335241D01*
X87274759Y-94135363D01*
X87039727Y-93978320D01*
X86778574Y-93870147D01*
X86501335Y-93815000D01*
X86218665Y-93815000D01*
X85941426Y-93870147D01*
X85680273Y-93978320D01*
X85445241Y-94135363D01*
X85245363Y-94335241D01*
X85090000Y-94567759D01*
X84934637Y-94335241D01*
X84734759Y-94135363D01*
X84499727Y-93978320D01*
X84238574Y-93870147D01*
X83961335Y-93815000D01*
X83678665Y-93815000D01*
X83401426Y-93870147D01*
X83140273Y-93978320D01*
X82905241Y-94135363D01*
X82705363Y-94335241D01*
X82550000Y-94567759D01*
X82394637Y-94335241D01*
X82194759Y-94135363D01*
X81959727Y-93978320D01*
X81698574Y-93870147D01*
X81421335Y-93815000D01*
X81138665Y-93815000D01*
X80861426Y-93870147D01*
X80600273Y-93978320D01*
X80365241Y-94135363D01*
X80165363Y-94335241D01*
X80010000Y-94567759D01*
X79854637Y-94335241D01*
X79654759Y-94135363D01*
X79419727Y-93978320D01*
X79158574Y-93870147D01*
X78881335Y-93815000D01*
X78598665Y-93815000D01*
X78321426Y-93870147D01*
X78060273Y-93978320D01*
X77825241Y-94135363D01*
X77625363Y-94335241D01*
X77468320Y-94570273D01*
X77360147Y-94831426D01*
X77305000Y-95108665D01*
X75590000Y-95108665D01*
X75590000Y-91084061D01*
X112376000Y-91084061D01*
X112376000Y-91287939D01*
X112415774Y-91487898D01*
X112493795Y-91676256D01*
X112607063Y-91845774D01*
X112751226Y-91989937D01*
X112920744Y-92103205D01*
X113109102Y-92181226D01*
X113309061Y-92221000D01*
X113512939Y-92221000D01*
X113712898Y-92181226D01*
X113901256Y-92103205D01*
X113919000Y-92091349D01*
X113936744Y-92103205D01*
X114125102Y-92181226D01*
X114325061Y-92221000D01*
X114528939Y-92221000D01*
X114728898Y-92181226D01*
X114835897Y-92136905D01*
X114828774Y-92154102D01*
X114789000Y-92354061D01*
X114789000Y-92557939D01*
X114828774Y-92757898D01*
X114906795Y-92946256D01*
X115020063Y-93115774D01*
X115164226Y-93259937D01*
X115333744Y-93373205D01*
X115522102Y-93451226D01*
X115722061Y-93491000D01*
X115925939Y-93491000D01*
X116125898Y-93451226D01*
X116314256Y-93373205D01*
X116483774Y-93259937D01*
X116627937Y-93115774D01*
X116741205Y-92946256D01*
X116819226Y-92757898D01*
X116859000Y-92557939D01*
X116859000Y-92354061D01*
X116819226Y-92154102D01*
X116741205Y-91965744D01*
X116627937Y-91796226D01*
X116483774Y-91652063D01*
X116314256Y-91538795D01*
X116125898Y-91460774D01*
X115925939Y-91421000D01*
X115722061Y-91421000D01*
X115522102Y-91460774D01*
X115415103Y-91505095D01*
X115422226Y-91487898D01*
X115462000Y-91287939D01*
X115462000Y-91084061D01*
X116440000Y-91084061D01*
X116440000Y-91287939D01*
X116479774Y-91487898D01*
X116557795Y-91676256D01*
X116671063Y-91845774D01*
X116815226Y-91989937D01*
X116984744Y-92103205D01*
X117173102Y-92181226D01*
X117373061Y-92221000D01*
X117576939Y-92221000D01*
X117776898Y-92181226D01*
X117965256Y-92103205D01*
X118046500Y-92048920D01*
X118127744Y-92103205D01*
X118316102Y-92181226D01*
X118516061Y-92221000D01*
X118719939Y-92221000D01*
X118919898Y-92181226D01*
X119108256Y-92103205D01*
X119189500Y-92048920D01*
X119270744Y-92103205D01*
X119459102Y-92181226D01*
X119659061Y-92221000D01*
X119862939Y-92221000D01*
X120062898Y-92181226D01*
X120251256Y-92103205D01*
X120420774Y-91989937D01*
X120564937Y-91845774D01*
X120678205Y-91676256D01*
X120756226Y-91487898D01*
X120767619Y-91430619D01*
X120824898Y-91419226D01*
X121013256Y-91341205D01*
X121182774Y-91227937D01*
X121326937Y-91083774D01*
X121440205Y-90914256D01*
X121518226Y-90725898D01*
X121548030Y-90576061D01*
X133839000Y-90576061D01*
X133839000Y-90779939D01*
X133878774Y-90979898D01*
X133956795Y-91168256D01*
X134070063Y-91337774D01*
X134214226Y-91481937D01*
X134383744Y-91595205D01*
X134572102Y-91673226D01*
X134772061Y-91713000D01*
X134975939Y-91713000D01*
X135142039Y-91679961D01*
X135109000Y-91846061D01*
X135109000Y-92049939D01*
X135148774Y-92249898D01*
X135226795Y-92438256D01*
X135340063Y-92607774D01*
X135484226Y-92751937D01*
X135653744Y-92865205D01*
X135842102Y-92943226D01*
X136042061Y-92983000D01*
X136245939Y-92983000D01*
X136445898Y-92943226D01*
X136634256Y-92865205D01*
X136652000Y-92853349D01*
X136669744Y-92865205D01*
X136858102Y-92943226D01*
X137058061Y-92983000D01*
X137261939Y-92983000D01*
X137461898Y-92943226D01*
X137650256Y-92865205D01*
X137668000Y-92853349D01*
X137685744Y-92865205D01*
X137874102Y-92943226D01*
X138074061Y-92983000D01*
X138277939Y-92983000D01*
X138477898Y-92943226D01*
X138666256Y-92865205D01*
X138835774Y-92751937D01*
X138979937Y-92607774D01*
X139093205Y-92438256D01*
X139171226Y-92249898D01*
X139211000Y-92049939D01*
X139211000Y-91846061D01*
X139171226Y-91646102D01*
X139093205Y-91457744D01*
X138979937Y-91288226D01*
X138835774Y-91144063D01*
X138666256Y-91030795D01*
X138477898Y-90952774D01*
X138277939Y-90913000D01*
X138074061Y-90913000D01*
X137874102Y-90952774D01*
X137685744Y-91030795D01*
X137668000Y-91042651D01*
X137650256Y-91030795D01*
X137461898Y-90952774D01*
X137261939Y-90913000D01*
X137058061Y-90913000D01*
X136858102Y-90952774D01*
X136669744Y-91030795D01*
X136652000Y-91042651D01*
X136634256Y-91030795D01*
X136445898Y-90952774D01*
X136245939Y-90913000D01*
X136042061Y-90913000D01*
X135875961Y-90946039D01*
X135909000Y-90779939D01*
X135909000Y-90576061D01*
X135869226Y-90376102D01*
X135791205Y-90187744D01*
X135677937Y-90018226D01*
X135533774Y-89874063D01*
X135364256Y-89760795D01*
X135175898Y-89682774D01*
X134975939Y-89643000D01*
X134772061Y-89643000D01*
X134572102Y-89682774D01*
X134383744Y-89760795D01*
X134214226Y-89874063D01*
X134070063Y-90018226D01*
X133956795Y-90187744D01*
X133878774Y-90376102D01*
X133839000Y-90576061D01*
X121548030Y-90576061D01*
X121558000Y-90525939D01*
X121558000Y-90322061D01*
X121518226Y-90122102D01*
X121440205Y-89933744D01*
X121326937Y-89764226D01*
X121182774Y-89620063D01*
X121013256Y-89506795D01*
X120824898Y-89428774D01*
X120624939Y-89389000D01*
X120421061Y-89389000D01*
X120221102Y-89428774D01*
X120032744Y-89506795D01*
X119863226Y-89620063D01*
X119719063Y-89764226D01*
X119605795Y-89933744D01*
X119527774Y-90122102D01*
X119516381Y-90179381D01*
X119459102Y-90190774D01*
X119270744Y-90268795D01*
X119189500Y-90323080D01*
X119108256Y-90268795D01*
X118919898Y-90190774D01*
X118719939Y-90151000D01*
X118516061Y-90151000D01*
X118316102Y-90190774D01*
X118127744Y-90268795D01*
X118046500Y-90323080D01*
X117965256Y-90268795D01*
X117776898Y-90190774D01*
X117576939Y-90151000D01*
X117373061Y-90151000D01*
X117173102Y-90190774D01*
X116984744Y-90268795D01*
X116815226Y-90382063D01*
X116671063Y-90526226D01*
X116557795Y-90695744D01*
X116479774Y-90884102D01*
X116440000Y-91084061D01*
X115462000Y-91084061D01*
X115422226Y-90884102D01*
X115344205Y-90695744D01*
X115230937Y-90526226D01*
X115086774Y-90382063D01*
X114917256Y-90268795D01*
X114728898Y-90190774D01*
X114528939Y-90151000D01*
X114325061Y-90151000D01*
X114125102Y-90190774D01*
X113936744Y-90268795D01*
X113919000Y-90280651D01*
X113901256Y-90268795D01*
X113712898Y-90190774D01*
X113512939Y-90151000D01*
X113309061Y-90151000D01*
X113109102Y-90190774D01*
X112920744Y-90268795D01*
X112751226Y-90382063D01*
X112607063Y-90526226D01*
X112493795Y-90695744D01*
X112415774Y-90884102D01*
X112376000Y-91084061D01*
X75590000Y-91084061D01*
X75590000Y-87637980D01*
X80491626Y-87637980D01*
X80611514Y-87922836D01*
X80935210Y-88083699D01*
X81284069Y-88178322D01*
X81644684Y-88203067D01*
X82003198Y-88156985D01*
X82345833Y-88041846D01*
X82568486Y-87922836D01*
X82688374Y-87637980D01*
X81590000Y-86539605D01*
X80491626Y-87637980D01*
X75590000Y-87637980D01*
X75590000Y-86414684D01*
X79746933Y-86414684D01*
X79793015Y-86773198D01*
X79908154Y-87115833D01*
X80027164Y-87338486D01*
X80312020Y-87458374D01*
X81410395Y-86360000D01*
X81769605Y-86360000D01*
X82867980Y-87458374D01*
X83152836Y-87338486D01*
X83251928Y-87139088D01*
X83251928Y-87560000D01*
X83264188Y-87684482D01*
X83300498Y-87804180D01*
X83359463Y-87914494D01*
X83438815Y-88011185D01*
X83535506Y-88090537D01*
X83645820Y-88149502D01*
X83765518Y-88185812D01*
X83890000Y-88198072D01*
X86290000Y-88198072D01*
X86414482Y-88185812D01*
X86534180Y-88149502D01*
X86644494Y-88090537D01*
X86741185Y-88011185D01*
X86820537Y-87914494D01*
X86879502Y-87804180D01*
X86915812Y-87684482D01*
X86928072Y-87560000D01*
X86928072Y-87528061D01*
X133839000Y-87528061D01*
X133839000Y-87731939D01*
X133878774Y-87931898D01*
X133956795Y-88120256D01*
X134070063Y-88289774D01*
X134214226Y-88433937D01*
X134383744Y-88547205D01*
X134572102Y-88625226D01*
X134772061Y-88665000D01*
X134975939Y-88665000D01*
X135175898Y-88625226D01*
X135364256Y-88547205D01*
X135533774Y-88433937D01*
X135677937Y-88289774D01*
X135791205Y-88120256D01*
X135869226Y-87931898D01*
X135909000Y-87731939D01*
X135909000Y-87528061D01*
X135869226Y-87328102D01*
X135791205Y-87139744D01*
X135677937Y-86970226D01*
X135533774Y-86826063D01*
X135364256Y-86712795D01*
X135175898Y-86634774D01*
X134975939Y-86595000D01*
X134772061Y-86595000D01*
X134572102Y-86634774D01*
X134383744Y-86712795D01*
X134214226Y-86826063D01*
X134070063Y-86970226D01*
X133956795Y-87139744D01*
X133878774Y-87328102D01*
X133839000Y-87528061D01*
X86928072Y-87528061D01*
X86928072Y-85160000D01*
X86915812Y-85035518D01*
X86879502Y-84915820D01*
X86820537Y-84805506D01*
X86741185Y-84708815D01*
X86644494Y-84629463D01*
X86534180Y-84570498D01*
X86414482Y-84534188D01*
X86290000Y-84521928D01*
X83890000Y-84521928D01*
X83765518Y-84534188D01*
X83645820Y-84570498D01*
X83535506Y-84629463D01*
X83438815Y-84708815D01*
X83359463Y-84805506D01*
X83300498Y-84915820D01*
X83264188Y-85035518D01*
X83251928Y-85160000D01*
X83251928Y-85566903D01*
X83152836Y-85381514D01*
X82867980Y-85261626D01*
X81769605Y-86360000D01*
X81410395Y-86360000D01*
X80312020Y-85261626D01*
X80027164Y-85381514D01*
X79866301Y-85705210D01*
X79771678Y-86054069D01*
X79746933Y-86414684D01*
X75590000Y-86414684D01*
X75590000Y-85082020D01*
X80491626Y-85082020D01*
X81590000Y-86180395D01*
X82688374Y-85082020D01*
X82568486Y-84797164D01*
X82244790Y-84636301D01*
X81895931Y-84541678D01*
X81535316Y-84516933D01*
X81176802Y-84563015D01*
X80834167Y-84678154D01*
X80611514Y-84797164D01*
X80491626Y-85082020D01*
X75590000Y-85082020D01*
X75590000Y-81940000D01*
X173330000Y-81940000D01*
X173330001Y-145390000D01*
%TA.AperFunction,Conductor*%
D19*
G36*
X173330001Y-145390000D02*
G01*
X75590000Y-145390000D01*
X75590000Y-142265061D01*
X128505000Y-142265061D01*
X128505000Y-142468939D01*
X128544774Y-142668898D01*
X128622795Y-142857256D01*
X128736063Y-143026774D01*
X128880226Y-143170937D01*
X129049744Y-143284205D01*
X129238102Y-143362226D01*
X129438061Y-143402000D01*
X129522206Y-143402000D01*
X129521000Y-143408061D01*
X129521000Y-143611939D01*
X129560774Y-143811898D01*
X129638795Y-144000256D01*
X129752063Y-144169774D01*
X129896226Y-144313937D01*
X130065744Y-144427205D01*
X130254102Y-144505226D01*
X130454061Y-144545000D01*
X130657939Y-144545000D01*
X130857898Y-144505226D01*
X131046256Y-144427205D01*
X131215774Y-144313937D01*
X131359937Y-144169774D01*
X131473205Y-144000256D01*
X131551226Y-143811898D01*
X131591000Y-143611939D01*
X131591000Y-143408061D01*
X131551226Y-143208102D01*
X131473205Y-143019744D01*
X131359937Y-142850226D01*
X131215774Y-142706063D01*
X131046256Y-142592795D01*
X130857898Y-142514774D01*
X130657939Y-142475000D01*
X130573794Y-142475000D01*
X130575000Y-142468939D01*
X130575000Y-142392061D01*
X150095000Y-142392061D01*
X150095000Y-142595939D01*
X150134774Y-142795898D01*
X150212795Y-142984256D01*
X150326063Y-143153774D01*
X150470226Y-143297937D01*
X150639744Y-143411205D01*
X150828102Y-143489226D01*
X150986837Y-143520800D01*
X150984000Y-143535061D01*
X150984000Y-143738939D01*
X151023774Y-143938898D01*
X151101795Y-144127256D01*
X151215063Y-144296774D01*
X151359226Y-144440937D01*
X151528744Y-144554205D01*
X151717102Y-144632226D01*
X151917061Y-144672000D01*
X152120939Y-144672000D01*
X152320898Y-144632226D01*
X152509256Y-144554205D01*
X152678774Y-144440937D01*
X152822937Y-144296774D01*
X152936205Y-144127256D01*
X153014226Y-143938898D01*
X153054000Y-143738939D01*
X153054000Y-143535061D01*
X153014226Y-143335102D01*
X152936205Y-143146744D01*
X152822937Y-142977226D01*
X152678774Y-142833063D01*
X152509256Y-142719795D01*
X152320898Y-142641774D01*
X152162163Y-142610200D01*
X152165000Y-142595939D01*
X152165000Y-142392061D01*
X152125226Y-142192102D01*
X152047205Y-142003744D01*
X151933937Y-141834226D01*
X151789774Y-141690063D01*
X151620256Y-141576795D01*
X151431898Y-141498774D01*
X151231939Y-141459000D01*
X151028061Y-141459000D01*
X150828102Y-141498774D01*
X150639744Y-141576795D01*
X150470226Y-141690063D01*
X150326063Y-141834226D01*
X150212795Y-142003744D01*
X150134774Y-142192102D01*
X150095000Y-142392061D01*
X130575000Y-142392061D01*
X130575000Y-142265061D01*
X130535226Y-142065102D01*
X130457205Y-141876744D01*
X130343937Y-141707226D01*
X130199774Y-141563063D01*
X130030256Y-141449795D01*
X129841898Y-141371774D01*
X129641939Y-141332000D01*
X129438061Y-141332000D01*
X129238102Y-141371774D01*
X129049744Y-141449795D01*
X128880226Y-141563063D01*
X128736063Y-141707226D01*
X128622795Y-141876744D01*
X128544774Y-142065102D01*
X128505000Y-142265061D01*
X75590000Y-142265061D01*
X75590000Y-130327061D01*
X86468000Y-130327061D01*
X86468000Y-130530939D01*
X86507774Y-130730898D01*
X86540539Y-130810000D01*
X86507774Y-130889102D01*
X86468000Y-131089061D01*
X86468000Y-131292939D01*
X86507774Y-131492898D01*
X86585795Y-131681256D01*
X86699063Y-131850774D01*
X86843226Y-131994937D01*
X87012744Y-132108205D01*
X87201102Y-132186226D01*
X87401061Y-132226000D01*
X87604939Y-132226000D01*
X87804898Y-132186226D01*
X87993256Y-132108205D01*
X88162774Y-131994937D01*
X88306937Y-131850774D01*
X88420205Y-131681256D01*
X88498226Y-131492898D01*
X88538000Y-131292939D01*
X88538000Y-131089061D01*
X88498226Y-130889102D01*
X88465461Y-130810000D01*
X88498226Y-130730898D01*
X88538000Y-130530939D01*
X88538000Y-130327061D01*
X88498226Y-130127102D01*
X88420205Y-129938744D01*
X88306937Y-129769226D01*
X88162774Y-129625063D01*
X87993256Y-129511795D01*
X87804898Y-129433774D01*
X87604939Y-129394000D01*
X87401061Y-129394000D01*
X87201102Y-129433774D01*
X87012744Y-129511795D01*
X86843226Y-129625063D01*
X86699063Y-129769226D01*
X86585795Y-129938744D01*
X86507774Y-130127102D01*
X86468000Y-130327061D01*
X75590000Y-130327061D01*
X75590000Y-126390061D01*
X116059000Y-126390061D01*
X116059000Y-126593939D01*
X116098774Y-126793898D01*
X116176795Y-126982256D01*
X116290063Y-127151774D01*
X116434226Y-127295937D01*
X116603744Y-127409205D01*
X116792102Y-127487226D01*
X116992061Y-127527000D01*
X117195939Y-127527000D01*
X117335737Y-127499193D01*
X117329000Y-127533061D01*
X117329000Y-127736939D01*
X117368774Y-127936898D01*
X117446795Y-128125256D01*
X117560063Y-128294774D01*
X117704226Y-128438937D01*
X117873744Y-128552205D01*
X118062102Y-128630226D01*
X118262061Y-128670000D01*
X118465939Y-128670000D01*
X118665898Y-128630226D01*
X118854256Y-128552205D01*
X119023774Y-128438937D01*
X119167937Y-128294774D01*
X119281205Y-128125256D01*
X119359226Y-127936898D01*
X119399000Y-127736939D01*
X119399000Y-127533061D01*
X119359226Y-127333102D01*
X119281205Y-127144744D01*
X119167937Y-126975226D01*
X119023774Y-126831063D01*
X118854256Y-126717795D01*
X118665898Y-126639774D01*
X118465939Y-126600000D01*
X118262061Y-126600000D01*
X118122263Y-126627807D01*
X118129000Y-126593939D01*
X118129000Y-126390061D01*
X118089226Y-126190102D01*
X118011205Y-126001744D01*
X117897937Y-125832226D01*
X117753774Y-125688063D01*
X117584256Y-125574795D01*
X117395898Y-125496774D01*
X117195939Y-125457000D01*
X116992061Y-125457000D01*
X116792102Y-125496774D01*
X116603744Y-125574795D01*
X116434226Y-125688063D01*
X116290063Y-125832226D01*
X116176795Y-126001744D01*
X116098774Y-126190102D01*
X116059000Y-126390061D01*
X75590000Y-126390061D01*
X75590000Y-116738061D01*
X121647000Y-116738061D01*
X121647000Y-116941939D01*
X121686774Y-117141898D01*
X121764795Y-117330256D01*
X121878063Y-117499774D01*
X122022226Y-117643937D01*
X122191744Y-117757205D01*
X122380102Y-117835226D01*
X122580061Y-117875000D01*
X122783939Y-117875000D01*
X122983898Y-117835226D01*
X123172256Y-117757205D01*
X123341774Y-117643937D01*
X123485937Y-117499774D01*
X123599205Y-117330256D01*
X123677226Y-117141898D01*
X123717000Y-116941939D01*
X123717000Y-116738061D01*
X123677226Y-116538102D01*
X123599205Y-116349744D01*
X123485937Y-116180226D01*
X123341774Y-116036063D01*
X123251975Y-115976061D01*
X138665000Y-115976061D01*
X138665000Y-116179939D01*
X138704774Y-116379898D01*
X138737539Y-116459000D01*
X138704774Y-116538102D01*
X138665000Y-116738061D01*
X138665000Y-116941939D01*
X138704774Y-117141898D01*
X138782795Y-117330256D01*
X138794651Y-117348000D01*
X138782795Y-117365744D01*
X138704774Y-117554102D01*
X138665000Y-117754061D01*
X138665000Y-117957939D01*
X138704774Y-118157898D01*
X138782795Y-118346256D01*
X138794651Y-118364000D01*
X138782795Y-118381744D01*
X138704774Y-118570102D01*
X138665000Y-118770061D01*
X138665000Y-118973939D01*
X138704774Y-119173898D01*
X138782795Y-119362256D01*
X138794651Y-119380000D01*
X138782795Y-119397744D01*
X138704774Y-119586102D01*
X138665000Y-119786061D01*
X138665000Y-119989939D01*
X138704774Y-120189898D01*
X138763842Y-120332500D01*
X138704774Y-120475102D01*
X138665000Y-120675061D01*
X138665000Y-120878939D01*
X138704774Y-121078898D01*
X138782795Y-121267256D01*
X138879510Y-121412000D01*
X138782795Y-121556744D01*
X138704774Y-121745102D01*
X138665000Y-121945061D01*
X138665000Y-122148939D01*
X138704774Y-122348898D01*
X138782795Y-122537256D01*
X138879510Y-122682000D01*
X138782795Y-122826744D01*
X138704774Y-123015102D01*
X138665000Y-123215061D01*
X138665000Y-123418939D01*
X138704774Y-123618898D01*
X138782795Y-123807256D01*
X138896063Y-123976774D01*
X139040226Y-124120937D01*
X139209744Y-124234205D01*
X139398102Y-124312226D01*
X139554000Y-124343236D01*
X139554000Y-124434939D01*
X139593774Y-124634898D01*
X139671795Y-124823256D01*
X139785063Y-124992774D01*
X139929226Y-125136937D01*
X140098744Y-125250205D01*
X140287102Y-125328226D01*
X140344381Y-125339619D01*
X140355774Y-125396898D01*
X140433795Y-125585256D01*
X140547063Y-125754774D01*
X140691226Y-125898937D01*
X140860744Y-126012205D01*
X141007858Y-126073142D01*
X141068795Y-126220256D01*
X141182063Y-126389774D01*
X141326226Y-126533937D01*
X141495744Y-126647205D01*
X141642858Y-126708142D01*
X141703795Y-126855256D01*
X141817063Y-127024774D01*
X141961226Y-127168937D01*
X142130744Y-127282205D01*
X142319102Y-127360226D01*
X142519061Y-127400000D01*
X142722939Y-127400000D01*
X142922898Y-127360226D01*
X142928170Y-127358042D01*
X142960063Y-127405774D01*
X143104226Y-127549937D01*
X143273744Y-127663205D01*
X143462102Y-127741226D01*
X143662061Y-127781000D01*
X143865939Y-127781000D01*
X144065898Y-127741226D01*
X144208500Y-127682158D01*
X144351102Y-127741226D01*
X144551061Y-127781000D01*
X144754939Y-127781000D01*
X144954898Y-127741226D01*
X145143256Y-127663205D01*
X145161000Y-127651349D01*
X145178744Y-127663205D01*
X145367102Y-127741226D01*
X145567061Y-127781000D01*
X145770939Y-127781000D01*
X145970898Y-127741226D01*
X146113500Y-127682158D01*
X146256102Y-127741226D01*
X146456061Y-127781000D01*
X146659939Y-127781000D01*
X146859898Y-127741226D01*
X147048256Y-127663205D01*
X147066000Y-127651349D01*
X147083744Y-127663205D01*
X147272102Y-127741226D01*
X147472061Y-127781000D01*
X147675939Y-127781000D01*
X147875898Y-127741226D01*
X148064256Y-127663205D01*
X148082000Y-127651349D01*
X148099744Y-127663205D01*
X148288102Y-127741226D01*
X148488061Y-127781000D01*
X148691939Y-127781000D01*
X148891898Y-127741226D01*
X149080256Y-127663205D01*
X149249774Y-127549937D01*
X149393937Y-127405774D01*
X149507205Y-127236256D01*
X149585226Y-127047898D01*
X149625000Y-126847939D01*
X149625000Y-126644061D01*
X149585226Y-126444102D01*
X149507205Y-126255744D01*
X149393937Y-126086226D01*
X149316772Y-126009061D01*
X154413000Y-126009061D01*
X154413000Y-126212939D01*
X154452774Y-126412898D01*
X154530795Y-126601256D01*
X154644063Y-126770774D01*
X154788226Y-126914937D01*
X154957744Y-127028205D01*
X155146102Y-127106226D01*
X155346061Y-127146000D01*
X155549939Y-127146000D01*
X155749898Y-127106226D01*
X155938256Y-127028205D01*
X156019500Y-126973920D01*
X156100744Y-127028205D01*
X156289102Y-127106226D01*
X156489061Y-127146000D01*
X156692939Y-127146000D01*
X156892898Y-127106226D01*
X157035500Y-127047158D01*
X157178102Y-127106226D01*
X157378061Y-127146000D01*
X157581939Y-127146000D01*
X157781898Y-127106226D01*
X157970256Y-127028205D01*
X158139774Y-126914937D01*
X158283937Y-126770774D01*
X158397205Y-126601256D01*
X158475226Y-126412898D01*
X158515000Y-126212939D01*
X158515000Y-126009061D01*
X158475226Y-125809102D01*
X158397205Y-125620744D01*
X158283937Y-125451226D01*
X158139774Y-125307063D01*
X157970256Y-125193795D01*
X157781898Y-125115774D01*
X157581939Y-125076000D01*
X157378061Y-125076000D01*
X157178102Y-125115774D01*
X157035500Y-125174842D01*
X156892898Y-125115774D01*
X156692939Y-125076000D01*
X156489061Y-125076000D01*
X156289102Y-125115774D01*
X156100744Y-125193795D01*
X156019500Y-125248080D01*
X155938256Y-125193795D01*
X155749898Y-125115774D01*
X155549939Y-125076000D01*
X155346061Y-125076000D01*
X155146102Y-125115774D01*
X154957744Y-125193795D01*
X154788226Y-125307063D01*
X154644063Y-125451226D01*
X154530795Y-125620744D01*
X154452774Y-125809102D01*
X154413000Y-126009061D01*
X149316772Y-126009061D01*
X149249774Y-125942063D01*
X149080256Y-125828795D01*
X148891898Y-125750774D01*
X148691939Y-125711000D01*
X148488061Y-125711000D01*
X148288102Y-125750774D01*
X148099744Y-125828795D01*
X148082000Y-125840651D01*
X148064256Y-125828795D01*
X147875898Y-125750774D01*
X147675939Y-125711000D01*
X147472061Y-125711000D01*
X147272102Y-125750774D01*
X147083744Y-125828795D01*
X147066000Y-125840651D01*
X147048256Y-125828795D01*
X146859898Y-125750774D01*
X146659939Y-125711000D01*
X146456061Y-125711000D01*
X146256102Y-125750774D01*
X146113500Y-125809842D01*
X145970898Y-125750774D01*
X145770939Y-125711000D01*
X145567061Y-125711000D01*
X145367102Y-125750774D01*
X145178744Y-125828795D01*
X145161000Y-125840651D01*
X145143256Y-125828795D01*
X144954898Y-125750774D01*
X144754939Y-125711000D01*
X144551061Y-125711000D01*
X144351102Y-125750774D01*
X144208500Y-125809842D01*
X144065898Y-125750774D01*
X143865939Y-125711000D01*
X143662061Y-125711000D01*
X143462102Y-125750774D01*
X143456830Y-125752958D01*
X143424937Y-125705226D01*
X143280774Y-125561063D01*
X143111256Y-125447795D01*
X142964142Y-125386858D01*
X142903205Y-125239744D01*
X142789937Y-125070226D01*
X142645774Y-124926063D01*
X142476256Y-124812795D01*
X142329142Y-124751858D01*
X142268205Y-124604744D01*
X142154937Y-124435226D01*
X142010774Y-124291063D01*
X141841256Y-124177795D01*
X141652898Y-124099774D01*
X141595619Y-124088381D01*
X141584226Y-124031102D01*
X141506205Y-123842744D01*
X141392937Y-123673226D01*
X141248774Y-123529063D01*
X141079256Y-123415795D01*
X140890898Y-123337774D01*
X140735000Y-123306764D01*
X140735000Y-123215061D01*
X140695226Y-123015102D01*
X140617205Y-122826744D01*
X140520490Y-122682000D01*
X140617205Y-122537256D01*
X140695226Y-122348898D01*
X140735000Y-122148939D01*
X140735000Y-121945061D01*
X140695226Y-121745102D01*
X140617205Y-121556744D01*
X140520490Y-121412000D01*
X140617205Y-121267256D01*
X140695226Y-121078898D01*
X140735000Y-120878939D01*
X140735000Y-120675061D01*
X140695226Y-120475102D01*
X140636158Y-120332500D01*
X140695226Y-120189898D01*
X140735000Y-119989939D01*
X140735000Y-119786061D01*
X140695226Y-119586102D01*
X140617205Y-119397744D01*
X140605349Y-119380000D01*
X140617205Y-119362256D01*
X140695226Y-119173898D01*
X140735000Y-118973939D01*
X140735000Y-118770061D01*
X140695226Y-118570102D01*
X140617205Y-118381744D01*
X140605349Y-118364000D01*
X140617205Y-118346256D01*
X140695226Y-118157898D01*
X140735000Y-117957939D01*
X140735000Y-117754061D01*
X140695226Y-117554102D01*
X140617205Y-117365744D01*
X140605349Y-117348000D01*
X140617205Y-117330256D01*
X140695226Y-117141898D01*
X140735000Y-116941939D01*
X140735000Y-116738061D01*
X140695226Y-116538102D01*
X140662461Y-116459000D01*
X140695226Y-116379898D01*
X140735000Y-116179939D01*
X140735000Y-115976061D01*
X140695226Y-115776102D01*
X140617205Y-115587744D01*
X140503937Y-115418226D01*
X140359774Y-115274063D01*
X140190256Y-115160795D01*
X140001898Y-115082774D01*
X139801939Y-115043000D01*
X139598061Y-115043000D01*
X139398102Y-115082774D01*
X139209744Y-115160795D01*
X139040226Y-115274063D01*
X138896063Y-115418226D01*
X138782795Y-115587744D01*
X138704774Y-115776102D01*
X138665000Y-115976061D01*
X123251975Y-115976061D01*
X123172256Y-115922795D01*
X122983898Y-115844774D01*
X122783939Y-115805000D01*
X122580061Y-115805000D01*
X122380102Y-115844774D01*
X122191744Y-115922795D01*
X122022226Y-116036063D01*
X121878063Y-116180226D01*
X121764795Y-116349744D01*
X121686774Y-116538102D01*
X121647000Y-116738061D01*
X75590000Y-116738061D01*
X75590000Y-114820000D01*
X144661928Y-114820000D01*
X144661928Y-116320000D01*
X144674188Y-116444482D01*
X144710498Y-116564180D01*
X144769463Y-116674494D01*
X144848815Y-116771185D01*
X144945506Y-116850537D01*
X145055820Y-116909502D01*
X145175518Y-116945812D01*
X145300000Y-116958072D01*
X146800000Y-116958072D01*
X146924482Y-116945812D01*
X147044180Y-116909502D01*
X147154494Y-116850537D01*
X147251185Y-116771185D01*
X147330537Y-116674494D01*
X147389502Y-116564180D01*
X147425812Y-116444482D01*
X147436445Y-116336517D01*
X147514201Y-116452886D01*
X147707114Y-116645799D01*
X147933957Y-116797371D01*
X148186011Y-116901775D01*
X148453589Y-116955000D01*
X148726411Y-116955000D01*
X148993989Y-116901775D01*
X149246043Y-116797371D01*
X149472886Y-116645799D01*
X149665799Y-116452886D01*
X149817371Y-116226043D01*
X149860000Y-116123127D01*
X149902629Y-116226043D01*
X150054201Y-116452886D01*
X150247114Y-116645799D01*
X150473957Y-116797371D01*
X150726011Y-116901775D01*
X150993589Y-116955000D01*
X151266411Y-116955000D01*
X151533989Y-116901775D01*
X151786043Y-116797371D01*
X152012886Y-116645799D01*
X152205799Y-116452886D01*
X152357371Y-116226043D01*
X152400000Y-116123127D01*
X152442629Y-116226043D01*
X152594201Y-116452886D01*
X152787114Y-116645799D01*
X153013957Y-116797371D01*
X153266011Y-116901775D01*
X153533589Y-116955000D01*
X153806411Y-116955000D01*
X154073989Y-116901775D01*
X154326043Y-116797371D01*
X154552886Y-116645799D01*
X154745799Y-116452886D01*
X154897371Y-116226043D01*
X154940000Y-116123127D01*
X154982629Y-116226043D01*
X155134201Y-116452886D01*
X155327114Y-116645799D01*
X155553957Y-116797371D01*
X155806011Y-116901775D01*
X156073589Y-116955000D01*
X156346411Y-116955000D01*
X156613989Y-116901775D01*
X156866043Y-116797371D01*
X157092886Y-116645799D01*
X157285799Y-116452886D01*
X157437371Y-116226043D01*
X157480000Y-116123127D01*
X157522629Y-116226043D01*
X157674201Y-116452886D01*
X157867114Y-116645799D01*
X158093957Y-116797371D01*
X158346011Y-116901775D01*
X158613589Y-116955000D01*
X158886411Y-116955000D01*
X159153989Y-116901775D01*
X159406043Y-116797371D01*
X159632886Y-116645799D01*
X159825799Y-116452886D01*
X159977371Y-116226043D01*
X160020000Y-116123127D01*
X160062629Y-116226043D01*
X160214201Y-116452886D01*
X160407114Y-116645799D01*
X160633957Y-116797371D01*
X160886011Y-116901775D01*
X161153589Y-116955000D01*
X161426411Y-116955000D01*
X161693989Y-116901775D01*
X161946043Y-116797371D01*
X162172886Y-116645799D01*
X162365799Y-116452886D01*
X162517371Y-116226043D01*
X162621775Y-115973989D01*
X162675000Y-115706411D01*
X162675000Y-115433589D01*
X162631333Y-115214061D01*
X165589000Y-115214061D01*
X165589000Y-115417939D01*
X165628774Y-115617898D01*
X165706795Y-115806256D01*
X165803510Y-115951000D01*
X165706795Y-116095744D01*
X165628774Y-116284102D01*
X165589000Y-116484061D01*
X165589000Y-116687939D01*
X165628774Y-116887898D01*
X165706795Y-117076256D01*
X165820063Y-117245774D01*
X165964226Y-117389937D01*
X166133744Y-117503205D01*
X166322102Y-117581226D01*
X166522061Y-117621000D01*
X166669669Y-117621000D01*
X166644774Y-117681102D01*
X166605000Y-117881061D01*
X166605000Y-118084939D01*
X166644774Y-118284898D01*
X166722795Y-118473256D01*
X166836063Y-118642774D01*
X166980226Y-118786937D01*
X167149744Y-118900205D01*
X167338102Y-118978226D01*
X167538061Y-119018000D01*
X167741939Y-119018000D01*
X167941898Y-118978226D01*
X168130256Y-118900205D01*
X168299774Y-118786937D01*
X168443937Y-118642774D01*
X168557205Y-118473256D01*
X168635226Y-118284898D01*
X168675000Y-118084939D01*
X168675000Y-117881061D01*
X168635226Y-117681102D01*
X168557205Y-117492744D01*
X168443937Y-117323226D01*
X168299774Y-117179063D01*
X168130256Y-117065795D01*
X167941898Y-116987774D01*
X167741939Y-116948000D01*
X167594331Y-116948000D01*
X167619226Y-116887898D01*
X167659000Y-116687939D01*
X167659000Y-116484061D01*
X167619226Y-116284102D01*
X167541205Y-116095744D01*
X167444490Y-115951000D01*
X167541205Y-115806256D01*
X167619226Y-115617898D01*
X167659000Y-115417939D01*
X167659000Y-115214061D01*
X167619226Y-115014102D01*
X167541205Y-114825744D01*
X167427937Y-114656226D01*
X167283774Y-114512063D01*
X167114256Y-114398795D01*
X166925898Y-114320774D01*
X166725939Y-114281000D01*
X166522061Y-114281000D01*
X166322102Y-114320774D01*
X166133744Y-114398795D01*
X165964226Y-114512063D01*
X165820063Y-114656226D01*
X165706795Y-114825744D01*
X165628774Y-115014102D01*
X165589000Y-115214061D01*
X162631333Y-115214061D01*
X162621775Y-115166011D01*
X162517371Y-114913957D01*
X162365799Y-114687114D01*
X162172886Y-114494201D01*
X161946043Y-114342629D01*
X161693989Y-114238225D01*
X161426411Y-114185000D01*
X161153589Y-114185000D01*
X160886011Y-114238225D01*
X160633957Y-114342629D01*
X160407114Y-114494201D01*
X160214201Y-114687114D01*
X160062629Y-114913957D01*
X160020000Y-115016873D01*
X159977371Y-114913957D01*
X159825799Y-114687114D01*
X159632886Y-114494201D01*
X159406043Y-114342629D01*
X159153989Y-114238225D01*
X158886411Y-114185000D01*
X158613589Y-114185000D01*
X158346011Y-114238225D01*
X158093957Y-114342629D01*
X157867114Y-114494201D01*
X157674201Y-114687114D01*
X157522629Y-114913957D01*
X157480000Y-115016873D01*
X157437371Y-114913957D01*
X157285799Y-114687114D01*
X157092886Y-114494201D01*
X156866043Y-114342629D01*
X156613989Y-114238225D01*
X156346411Y-114185000D01*
X156073589Y-114185000D01*
X155806011Y-114238225D01*
X155553957Y-114342629D01*
X155327114Y-114494201D01*
X155134201Y-114687114D01*
X154982629Y-114913957D01*
X154940000Y-115016873D01*
X154897371Y-114913957D01*
X154745799Y-114687114D01*
X154552886Y-114494201D01*
X154326043Y-114342629D01*
X154073989Y-114238225D01*
X153806411Y-114185000D01*
X153533589Y-114185000D01*
X153266011Y-114238225D01*
X153013957Y-114342629D01*
X152787114Y-114494201D01*
X152594201Y-114687114D01*
X152442629Y-114913957D01*
X152400000Y-115016873D01*
X152357371Y-114913957D01*
X152205799Y-114687114D01*
X152012886Y-114494201D01*
X151786043Y-114342629D01*
X151533989Y-114238225D01*
X151266411Y-114185000D01*
X150993589Y-114185000D01*
X150726011Y-114238225D01*
X150473957Y-114342629D01*
X150247114Y-114494201D01*
X150054201Y-114687114D01*
X149902629Y-114913957D01*
X149860000Y-115016873D01*
X149817371Y-114913957D01*
X149665799Y-114687114D01*
X149472886Y-114494201D01*
X149246043Y-114342629D01*
X148993989Y-114238225D01*
X148726411Y-114185000D01*
X148453589Y-114185000D01*
X148186011Y-114238225D01*
X147933957Y-114342629D01*
X147707114Y-114494201D01*
X147514201Y-114687114D01*
X147436445Y-114803483D01*
X147425812Y-114695518D01*
X147389502Y-114575820D01*
X147330537Y-114465506D01*
X147251185Y-114368815D01*
X147154494Y-114289463D01*
X147044180Y-114230498D01*
X146924482Y-114194188D01*
X146800000Y-114181928D01*
X145300000Y-114181928D01*
X145175518Y-114194188D01*
X145055820Y-114230498D01*
X144945506Y-114289463D01*
X144848815Y-114368815D01*
X144769463Y-114465506D01*
X144710498Y-114575820D01*
X144674188Y-114695518D01*
X144661928Y-114820000D01*
X75590000Y-114820000D01*
X75590000Y-113055061D01*
X166351000Y-113055061D01*
X166351000Y-113258939D01*
X166390774Y-113458898D01*
X166468795Y-113647256D01*
X166582063Y-113816774D01*
X166726226Y-113960937D01*
X166895744Y-114074205D01*
X167084102Y-114152226D01*
X167284061Y-114192000D01*
X167487939Y-114192000D01*
X167687898Y-114152226D01*
X167876256Y-114074205D01*
X168045774Y-113960937D01*
X168189937Y-113816774D01*
X168303205Y-113647256D01*
X168381226Y-113458898D01*
X168421000Y-113258939D01*
X168421000Y-113055061D01*
X168381226Y-112855102D01*
X168303205Y-112666744D01*
X168189937Y-112497226D01*
X168045774Y-112353063D01*
X167876256Y-112239795D01*
X167687898Y-112161774D01*
X167487939Y-112122000D01*
X167284061Y-112122000D01*
X167084102Y-112161774D01*
X166895744Y-112239795D01*
X166726226Y-112353063D01*
X166582063Y-112497226D01*
X166468795Y-112666744D01*
X166390774Y-112855102D01*
X166351000Y-113055061D01*
X75590000Y-113055061D01*
X75590000Y-111290000D01*
X77301928Y-111290000D01*
X77314188Y-111414482D01*
X77350498Y-111534180D01*
X77409463Y-111644494D01*
X77488815Y-111741185D01*
X77585506Y-111820537D01*
X77695820Y-111879502D01*
X77815518Y-111915812D01*
X77940000Y-111928072D01*
X78454250Y-111925000D01*
X78613000Y-111766250D01*
X78613000Y-110617000D01*
X77463750Y-110617000D01*
X77305000Y-110775750D01*
X77301928Y-111290000D01*
X75590000Y-111290000D01*
X75590000Y-109690000D01*
X77301928Y-109690000D01*
X77305000Y-110204250D01*
X77463750Y-110363000D01*
X78613000Y-110363000D01*
X78613000Y-109213750D01*
X78454250Y-109055000D01*
X77940000Y-109051928D01*
X77815518Y-109064188D01*
X77695820Y-109100498D01*
X77585506Y-109159463D01*
X77488815Y-109238815D01*
X77409463Y-109335506D01*
X77350498Y-109445820D01*
X77314188Y-109565518D01*
X77301928Y-109690000D01*
X75590000Y-109690000D01*
X75590000Y-102713891D01*
X83505000Y-102713891D01*
X83505000Y-103026109D01*
X83565911Y-103332327D01*
X83685391Y-103620779D01*
X83858850Y-103880379D01*
X84079621Y-104101150D01*
X84339221Y-104274609D01*
X84627673Y-104394089D01*
X84933891Y-104455000D01*
X85246109Y-104455000D01*
X85552327Y-104394089D01*
X85840779Y-104274609D01*
X86100379Y-104101150D01*
X86321150Y-103880379D01*
X86494609Y-103620779D01*
X86614089Y-103332327D01*
X86675000Y-103026109D01*
X86675000Y-102713891D01*
X87315000Y-102713891D01*
X87315000Y-103026109D01*
X87375911Y-103332327D01*
X87495391Y-103620779D01*
X87668850Y-103880379D01*
X87889621Y-104101150D01*
X88149221Y-104274609D01*
X88437673Y-104394089D01*
X88743891Y-104455000D01*
X89056109Y-104455000D01*
X89362327Y-104394089D01*
X89650779Y-104274609D01*
X89910379Y-104101150D01*
X90131150Y-103880379D01*
X90304609Y-103620779D01*
X90424089Y-103332327D01*
X90485000Y-103026109D01*
X90485000Y-102713891D01*
X90424089Y-102407673D01*
X90304609Y-102119221D01*
X90131150Y-101859621D01*
X89910379Y-101638850D01*
X89650779Y-101465391D01*
X89362327Y-101345911D01*
X89056109Y-101285000D01*
X88743891Y-101285000D01*
X88437673Y-101345911D01*
X88149221Y-101465391D01*
X87889621Y-101638850D01*
X87668850Y-101859621D01*
X87495391Y-102119221D01*
X87375911Y-102407673D01*
X87315000Y-102713891D01*
X86675000Y-102713891D01*
X86614089Y-102407673D01*
X86494609Y-102119221D01*
X86321150Y-101859621D01*
X86100379Y-101638850D01*
X85840779Y-101465391D01*
X85552327Y-101345911D01*
X85246109Y-101285000D01*
X84933891Y-101285000D01*
X84627673Y-101345911D01*
X84339221Y-101465391D01*
X84079621Y-101638850D01*
X83858850Y-101859621D01*
X83685391Y-102119221D01*
X83565911Y-102407673D01*
X83505000Y-102713891D01*
X75590000Y-102713891D01*
X75590000Y-95108665D01*
X77305000Y-95108665D01*
X77305000Y-95391335D01*
X77360147Y-95668574D01*
X77468320Y-95929727D01*
X77625363Y-96164759D01*
X77825241Y-96364637D01*
X78060273Y-96521680D01*
X78321426Y-96629853D01*
X78598665Y-96685000D01*
X78881335Y-96685000D01*
X79158574Y-96629853D01*
X79419727Y-96521680D01*
X79654759Y-96364637D01*
X79854637Y-96164759D01*
X80010000Y-95932241D01*
X80165363Y-96164759D01*
X80365241Y-96364637D01*
X80597759Y-96520000D01*
X80365241Y-96675363D01*
X80165363Y-96875241D01*
X80008320Y-97110273D01*
X79900147Y-97371426D01*
X79845000Y-97648665D01*
X79845000Y-97931335D01*
X79900147Y-98208574D01*
X80008320Y-98469727D01*
X80165363Y-98704759D01*
X80365241Y-98904637D01*
X80600273Y-99061680D01*
X80861426Y-99169853D01*
X81138665Y-99225000D01*
X81421335Y-99225000D01*
X81698574Y-99169853D01*
X81959727Y-99061680D01*
X82194759Y-98904637D01*
X82394637Y-98704759D01*
X82551680Y-98469727D01*
X82659853Y-98208574D01*
X82715000Y-97931335D01*
X82715000Y-97648665D01*
X82659853Y-97371426D01*
X82551680Y-97110273D01*
X82394637Y-96875241D01*
X82194759Y-96675363D01*
X81962241Y-96520000D01*
X82194759Y-96364637D01*
X82394637Y-96164759D01*
X82550000Y-95932241D01*
X82705363Y-96164759D01*
X82905241Y-96364637D01*
X83140273Y-96521680D01*
X83401426Y-96629853D01*
X83678665Y-96685000D01*
X83961335Y-96685000D01*
X84238574Y-96629853D01*
X84499727Y-96521680D01*
X84734759Y-96364637D01*
X84934637Y-96164759D01*
X85090000Y-95932241D01*
X85245363Y-96164759D01*
X85445241Y-96364637D01*
X85677759Y-96520000D01*
X85445241Y-96675363D01*
X85245363Y-96875241D01*
X85088320Y-97110273D01*
X84980147Y-97371426D01*
X84925000Y-97648665D01*
X84925000Y-97931335D01*
X84980147Y-98208574D01*
X85088320Y-98469727D01*
X85245363Y-98704759D01*
X85445241Y-98904637D01*
X85680273Y-99061680D01*
X85941426Y-99169853D01*
X86218665Y-99225000D01*
X86501335Y-99225000D01*
X86778574Y-99169853D01*
X87039727Y-99061680D01*
X87274759Y-98904637D01*
X87474637Y-98704759D01*
X87630000Y-98472241D01*
X87785363Y-98704759D01*
X87985241Y-98904637D01*
X88220273Y-99061680D01*
X88481426Y-99169853D01*
X88758665Y-99225000D01*
X89041335Y-99225000D01*
X89318574Y-99169853D01*
X89579727Y-99061680D01*
X89814759Y-98904637D01*
X90014637Y-98704759D01*
X90170000Y-98472241D01*
X90325363Y-98704759D01*
X90525241Y-98904637D01*
X90760273Y-99061680D01*
X91021426Y-99169853D01*
X91298665Y-99225000D01*
X91581335Y-99225000D01*
X91858574Y-99169853D01*
X92119727Y-99061680D01*
X92354759Y-98904637D01*
X92554637Y-98704759D01*
X92711680Y-98469727D01*
X92819853Y-98208574D01*
X92875000Y-97931335D01*
X92875000Y-97648665D01*
X92819853Y-97371426D01*
X92711680Y-97110273D01*
X92554637Y-96875241D01*
X92354759Y-96675363D01*
X92122241Y-96520000D01*
X92354759Y-96364637D01*
X92554637Y-96164759D01*
X92710000Y-95932241D01*
X92865363Y-96164759D01*
X93065241Y-96364637D01*
X93300273Y-96521680D01*
X93561426Y-96629853D01*
X93838665Y-96685000D01*
X94121335Y-96685000D01*
X94398574Y-96629853D01*
X94659727Y-96521680D01*
X94894759Y-96364637D01*
X95094637Y-96164759D01*
X95250000Y-95932241D01*
X95405363Y-96164759D01*
X95605241Y-96364637D01*
X95840273Y-96521680D01*
X96101426Y-96629853D01*
X96378665Y-96685000D01*
X96661335Y-96685000D01*
X96938574Y-96629853D01*
X97199727Y-96521680D01*
X97434759Y-96364637D01*
X97634637Y-96164759D01*
X97790000Y-95932241D01*
X97945363Y-96164759D01*
X98145241Y-96364637D01*
X98380273Y-96521680D01*
X98641426Y-96629853D01*
X98918665Y-96685000D01*
X99201335Y-96685000D01*
X99478574Y-96629853D01*
X99739727Y-96521680D01*
X99974759Y-96364637D01*
X100174637Y-96164759D01*
X100330000Y-95932241D01*
X100485363Y-96164759D01*
X100685241Y-96364637D01*
X100920273Y-96521680D01*
X101181426Y-96629853D01*
X101458665Y-96685000D01*
X101741335Y-96685000D01*
X102018574Y-96629853D01*
X102279727Y-96521680D01*
X102514759Y-96364637D01*
X102714637Y-96164759D01*
X102870000Y-95932241D01*
X103025363Y-96164759D01*
X103225241Y-96364637D01*
X103460273Y-96521680D01*
X103721426Y-96629853D01*
X103998665Y-96685000D01*
X104281335Y-96685000D01*
X104558574Y-96629853D01*
X104819727Y-96521680D01*
X105054759Y-96364637D01*
X105254637Y-96164759D01*
X105410000Y-95932241D01*
X105565363Y-96164759D01*
X105765241Y-96364637D01*
X106000273Y-96521680D01*
X106261426Y-96629853D01*
X106538665Y-96685000D01*
X106821335Y-96685000D01*
X107098574Y-96629853D01*
X107359727Y-96521680D01*
X107594759Y-96364637D01*
X107794637Y-96164759D01*
X107950000Y-95932241D01*
X108105363Y-96164759D01*
X108305241Y-96364637D01*
X108540273Y-96521680D01*
X108801426Y-96629853D01*
X109078665Y-96685000D01*
X109361335Y-96685000D01*
X109638574Y-96629853D01*
X109899727Y-96521680D01*
X110134759Y-96364637D01*
X110334637Y-96164759D01*
X110490000Y-95932241D01*
X110645363Y-96164759D01*
X110845241Y-96364637D01*
X111077759Y-96520000D01*
X110845241Y-96675363D01*
X110645363Y-96875241D01*
X110488320Y-97110273D01*
X110380147Y-97371426D01*
X110325000Y-97648665D01*
X110325000Y-97931335D01*
X110380147Y-98208574D01*
X110488320Y-98469727D01*
X110645363Y-98704759D01*
X110845241Y-98904637D01*
X111077759Y-99060000D01*
X110845241Y-99215363D01*
X110645363Y-99415241D01*
X110488320Y-99650273D01*
X110380147Y-99911426D01*
X110325000Y-100188665D01*
X110325000Y-100471335D01*
X110380147Y-100748574D01*
X110488320Y-101009727D01*
X110645363Y-101244759D01*
X110845241Y-101444637D01*
X111077759Y-101600000D01*
X110845241Y-101755363D01*
X110645363Y-101955241D01*
X110488320Y-102190273D01*
X110380147Y-102451426D01*
X110325000Y-102728665D01*
X110325000Y-103011335D01*
X110380147Y-103288574D01*
X110488320Y-103549727D01*
X110645363Y-103784759D01*
X110845241Y-103984637D01*
X111077759Y-104140000D01*
X110845241Y-104295363D01*
X110645363Y-104495241D01*
X110488320Y-104730273D01*
X110380147Y-104991426D01*
X110325000Y-105268665D01*
X110325000Y-105551335D01*
X110380147Y-105828574D01*
X110488320Y-106089727D01*
X110645363Y-106324759D01*
X110845241Y-106524637D01*
X111077759Y-106680000D01*
X110845241Y-106835363D01*
X110645363Y-107035241D01*
X110488320Y-107270273D01*
X110380147Y-107531426D01*
X110325000Y-107808665D01*
X110325000Y-108091335D01*
X110380147Y-108368574D01*
X110488320Y-108629727D01*
X110645363Y-108864759D01*
X110845241Y-109064637D01*
X111077759Y-109220000D01*
X110845241Y-109375363D01*
X110645363Y-109575241D01*
X110490000Y-109807759D01*
X110334637Y-109575241D01*
X110134759Y-109375363D01*
X109899727Y-109218320D01*
X109638574Y-109110147D01*
X109361335Y-109055000D01*
X109078665Y-109055000D01*
X108801426Y-109110147D01*
X108540273Y-109218320D01*
X108305241Y-109375363D01*
X108105363Y-109575241D01*
X107950000Y-109807759D01*
X107794637Y-109575241D01*
X107594759Y-109375363D01*
X107359727Y-109218320D01*
X107098574Y-109110147D01*
X106821335Y-109055000D01*
X106538665Y-109055000D01*
X106261426Y-109110147D01*
X106000273Y-109218320D01*
X105765241Y-109375363D01*
X105565363Y-109575241D01*
X105410000Y-109807759D01*
X105254637Y-109575241D01*
X105054759Y-109375363D01*
X104819727Y-109218320D01*
X104558574Y-109110147D01*
X104281335Y-109055000D01*
X103998665Y-109055000D01*
X103721426Y-109110147D01*
X103460273Y-109218320D01*
X103225241Y-109375363D01*
X103025363Y-109575241D01*
X102870000Y-109807759D01*
X102714637Y-109575241D01*
X102514759Y-109375363D01*
X102279727Y-109218320D01*
X102018574Y-109110147D01*
X101741335Y-109055000D01*
X101458665Y-109055000D01*
X101181426Y-109110147D01*
X100920273Y-109218320D01*
X100685241Y-109375363D01*
X100485363Y-109575241D01*
X100330000Y-109807759D01*
X100174637Y-109575241D01*
X99974759Y-109375363D01*
X99739727Y-109218320D01*
X99478574Y-109110147D01*
X99201335Y-109055000D01*
X98918665Y-109055000D01*
X98641426Y-109110147D01*
X98380273Y-109218320D01*
X98145241Y-109375363D01*
X97945363Y-109575241D01*
X97790000Y-109807759D01*
X97634637Y-109575241D01*
X97434759Y-109375363D01*
X97199727Y-109218320D01*
X96938574Y-109110147D01*
X96661335Y-109055000D01*
X96378665Y-109055000D01*
X96101426Y-109110147D01*
X95840273Y-109218320D01*
X95605241Y-109375363D01*
X95405363Y-109575241D01*
X95250000Y-109807759D01*
X95094637Y-109575241D01*
X94894759Y-109375363D01*
X94659727Y-109218320D01*
X94398574Y-109110147D01*
X94121335Y-109055000D01*
X93838665Y-109055000D01*
X93561426Y-109110147D01*
X93300273Y-109218320D01*
X93065241Y-109375363D01*
X92865363Y-109575241D01*
X92710000Y-109807759D01*
X92554637Y-109575241D01*
X92354759Y-109375363D01*
X92119727Y-109218320D01*
X91858574Y-109110147D01*
X91581335Y-109055000D01*
X91298665Y-109055000D01*
X91021426Y-109110147D01*
X90760273Y-109218320D01*
X90525241Y-109375363D01*
X90325363Y-109575241D01*
X90170000Y-109807759D01*
X90014637Y-109575241D01*
X89814759Y-109375363D01*
X89579727Y-109218320D01*
X89318574Y-109110147D01*
X89041335Y-109055000D01*
X88758665Y-109055000D01*
X88481426Y-109110147D01*
X88220273Y-109218320D01*
X87985241Y-109375363D01*
X87785363Y-109575241D01*
X87630000Y-109807759D01*
X87474637Y-109575241D01*
X87274759Y-109375363D01*
X87039727Y-109218320D01*
X86778574Y-109110147D01*
X86501335Y-109055000D01*
X86218665Y-109055000D01*
X85941426Y-109110147D01*
X85680273Y-109218320D01*
X85445241Y-109375363D01*
X85245363Y-109575241D01*
X85090000Y-109807759D01*
X84934637Y-109575241D01*
X84734759Y-109375363D01*
X84499727Y-109218320D01*
X84238574Y-109110147D01*
X83961335Y-109055000D01*
X83678665Y-109055000D01*
X83401426Y-109110147D01*
X83140273Y-109218320D01*
X82905241Y-109375363D01*
X82705363Y-109575241D01*
X82550000Y-109807759D01*
X82394637Y-109575241D01*
X82194759Y-109375363D01*
X81959727Y-109218320D01*
X81698574Y-109110147D01*
X81421335Y-109055000D01*
X81138665Y-109055000D01*
X80861426Y-109110147D01*
X80600273Y-109218320D01*
X80365241Y-109375363D01*
X80166643Y-109573961D01*
X80165812Y-109565518D01*
X80129502Y-109445820D01*
X80070537Y-109335506D01*
X79991185Y-109238815D01*
X79894494Y-109159463D01*
X79784180Y-109100498D01*
X79664482Y-109064188D01*
X79540000Y-109051928D01*
X79025750Y-109055000D01*
X78867000Y-109213750D01*
X78867000Y-110363000D01*
X78887000Y-110363000D01*
X78887000Y-110617000D01*
X78867000Y-110617000D01*
X78867000Y-111766250D01*
X79025750Y-111925000D01*
X79540000Y-111928072D01*
X79664482Y-111915812D01*
X79784180Y-111879502D01*
X79894494Y-111820537D01*
X79991185Y-111741185D01*
X80070537Y-111644494D01*
X80129502Y-111534180D01*
X80165812Y-111414482D01*
X80166643Y-111406039D01*
X80365241Y-111604637D01*
X80600273Y-111761680D01*
X80861426Y-111869853D01*
X81138665Y-111925000D01*
X81421335Y-111925000D01*
X81698574Y-111869853D01*
X81959727Y-111761680D01*
X82194759Y-111604637D01*
X82394637Y-111404759D01*
X82550000Y-111172241D01*
X82705363Y-111404759D01*
X82905241Y-111604637D01*
X83140273Y-111761680D01*
X83401426Y-111869853D01*
X83678665Y-111925000D01*
X83961335Y-111925000D01*
X84238574Y-111869853D01*
X84499727Y-111761680D01*
X84734759Y-111604637D01*
X84934637Y-111404759D01*
X85090000Y-111172241D01*
X85245363Y-111404759D01*
X85445241Y-111604637D01*
X85680273Y-111761680D01*
X85941426Y-111869853D01*
X86218665Y-111925000D01*
X86501335Y-111925000D01*
X86778574Y-111869853D01*
X87039727Y-111761680D01*
X87274759Y-111604637D01*
X87474637Y-111404759D01*
X87630000Y-111172241D01*
X87785363Y-111404759D01*
X87985241Y-111604637D01*
X88220273Y-111761680D01*
X88481426Y-111869853D01*
X88758665Y-111925000D01*
X89041335Y-111925000D01*
X89318574Y-111869853D01*
X89579727Y-111761680D01*
X89814759Y-111604637D01*
X90014637Y-111404759D01*
X90170000Y-111172241D01*
X90325363Y-111404759D01*
X90525241Y-111604637D01*
X90760273Y-111761680D01*
X91021426Y-111869853D01*
X91298665Y-111925000D01*
X91581335Y-111925000D01*
X91858574Y-111869853D01*
X92119727Y-111761680D01*
X92354759Y-111604637D01*
X92554637Y-111404759D01*
X92710000Y-111172241D01*
X92865363Y-111404759D01*
X93065241Y-111604637D01*
X93300273Y-111761680D01*
X93561426Y-111869853D01*
X93838665Y-111925000D01*
X94121335Y-111925000D01*
X94398574Y-111869853D01*
X94659727Y-111761680D01*
X94894759Y-111604637D01*
X95094637Y-111404759D01*
X95250000Y-111172241D01*
X95405363Y-111404759D01*
X95605241Y-111604637D01*
X95840273Y-111761680D01*
X96101426Y-111869853D01*
X96378665Y-111925000D01*
X96661335Y-111925000D01*
X96938574Y-111869853D01*
X97199727Y-111761680D01*
X97434759Y-111604637D01*
X97634637Y-111404759D01*
X97790000Y-111172241D01*
X97945363Y-111404759D01*
X98145241Y-111604637D01*
X98380273Y-111761680D01*
X98641426Y-111869853D01*
X98918665Y-111925000D01*
X99201335Y-111925000D01*
X99478574Y-111869853D01*
X99739727Y-111761680D01*
X99974759Y-111604637D01*
X100174637Y-111404759D01*
X100330000Y-111172241D01*
X100485363Y-111404759D01*
X100685241Y-111604637D01*
X100920273Y-111761680D01*
X101181426Y-111869853D01*
X101458665Y-111925000D01*
X101741335Y-111925000D01*
X102018574Y-111869853D01*
X102279727Y-111761680D01*
X102514759Y-111604637D01*
X102714637Y-111404759D01*
X102870000Y-111172241D01*
X103025363Y-111404759D01*
X103225241Y-111604637D01*
X103460273Y-111761680D01*
X103721426Y-111869853D01*
X103998665Y-111925000D01*
X104281335Y-111925000D01*
X104558574Y-111869853D01*
X104819727Y-111761680D01*
X105054759Y-111604637D01*
X105254637Y-111404759D01*
X105410000Y-111172241D01*
X105565363Y-111404759D01*
X105765241Y-111604637D01*
X106000273Y-111761680D01*
X106261426Y-111869853D01*
X106538665Y-111925000D01*
X106821335Y-111925000D01*
X107098574Y-111869853D01*
X107359727Y-111761680D01*
X107594759Y-111604637D01*
X107794637Y-111404759D01*
X107950000Y-111172241D01*
X108105363Y-111404759D01*
X108305241Y-111604637D01*
X108540273Y-111761680D01*
X108801426Y-111869853D01*
X109078665Y-111925000D01*
X109361335Y-111925000D01*
X109638574Y-111869853D01*
X109899727Y-111761680D01*
X110134759Y-111604637D01*
X110334637Y-111404759D01*
X110490000Y-111172241D01*
X110645363Y-111404759D01*
X110845241Y-111604637D01*
X111080273Y-111761680D01*
X111341426Y-111869853D01*
X111618665Y-111925000D01*
X111901335Y-111925000D01*
X112178574Y-111869853D01*
X112439727Y-111761680D01*
X112674759Y-111604637D01*
X112874637Y-111404759D01*
X113031680Y-111169727D01*
X113139853Y-110908574D01*
X113195000Y-110631335D01*
X113195000Y-110348665D01*
X113139853Y-110071426D01*
X113031680Y-109810273D01*
X112874637Y-109575241D01*
X112674759Y-109375363D01*
X112442241Y-109220000D01*
X112674759Y-109064637D01*
X112874637Y-108864759D01*
X113031680Y-108629727D01*
X113039825Y-108610061D01*
X129902000Y-108610061D01*
X129902000Y-108813939D01*
X129941774Y-109013898D01*
X130019795Y-109202256D01*
X130133063Y-109371774D01*
X130277226Y-109515937D01*
X130446744Y-109629205D01*
X130635102Y-109707226D01*
X130835061Y-109747000D01*
X131038939Y-109747000D01*
X131238898Y-109707226D01*
X131427256Y-109629205D01*
X131596774Y-109515937D01*
X131703928Y-109408783D01*
X131843744Y-109502205D01*
X132032102Y-109580226D01*
X132232061Y-109620000D01*
X132435939Y-109620000D01*
X132635898Y-109580226D01*
X132824256Y-109502205D01*
X132993774Y-109388937D01*
X133137937Y-109244774D01*
X133251205Y-109075256D01*
X133329226Y-108886898D01*
X133369000Y-108686939D01*
X133369000Y-108483061D01*
X133367794Y-108477000D01*
X133451939Y-108477000D01*
X133651898Y-108437226D01*
X133840256Y-108359205D01*
X134009774Y-108245937D01*
X134153937Y-108101774D01*
X134267205Y-107932256D01*
X134316358Y-107813589D01*
X144665000Y-107813589D01*
X144665000Y-108086411D01*
X144718225Y-108353989D01*
X144822629Y-108606043D01*
X144974201Y-108832886D01*
X145167114Y-109025799D01*
X145393957Y-109177371D01*
X145646011Y-109281775D01*
X145913589Y-109335000D01*
X146186411Y-109335000D01*
X146453989Y-109281775D01*
X146706043Y-109177371D01*
X146932886Y-109025799D01*
X147125799Y-108832886D01*
X147277371Y-108606043D01*
X147320000Y-108503127D01*
X147362629Y-108606043D01*
X147514201Y-108832886D01*
X147707114Y-109025799D01*
X147933957Y-109177371D01*
X148186011Y-109281775D01*
X148453589Y-109335000D01*
X148726411Y-109335000D01*
X148993989Y-109281775D01*
X149246043Y-109177371D01*
X149472886Y-109025799D01*
X149665799Y-108832886D01*
X149817371Y-108606043D01*
X149860000Y-108503127D01*
X149902629Y-108606043D01*
X150054201Y-108832886D01*
X150247114Y-109025799D01*
X150473957Y-109177371D01*
X150726011Y-109281775D01*
X150993589Y-109335000D01*
X151266411Y-109335000D01*
X151533989Y-109281775D01*
X151786043Y-109177371D01*
X152012886Y-109025799D01*
X152131692Y-108906993D01*
X152892612Y-108906993D01*
X152958137Y-109145860D01*
X153205116Y-109261760D01*
X153469960Y-109327250D01*
X153742492Y-109339812D01*
X154012238Y-109298965D01*
X154268832Y-109206277D01*
X154381863Y-109145860D01*
X154447388Y-108906993D01*
X153670000Y-108129605D01*
X152892612Y-108906993D01*
X152131692Y-108906993D01*
X152205799Y-108832886D01*
X152357371Y-108606043D01*
X152398511Y-108506721D01*
X152413723Y-108548832D01*
X152474140Y-108661863D01*
X152713007Y-108727388D01*
X153490395Y-107950000D01*
X153849605Y-107950000D01*
X154626993Y-108727388D01*
X154865860Y-108661863D01*
X154940164Y-108503523D01*
X154982629Y-108606043D01*
X155134201Y-108832886D01*
X155327114Y-109025799D01*
X155553957Y-109177371D01*
X155806011Y-109281775D01*
X156073589Y-109335000D01*
X156346411Y-109335000D01*
X156613989Y-109281775D01*
X156866043Y-109177371D01*
X157092886Y-109025799D01*
X157285799Y-108832886D01*
X157437371Y-108606043D01*
X157480000Y-108503127D01*
X157522629Y-108606043D01*
X157674201Y-108832886D01*
X157867114Y-109025799D01*
X158093957Y-109177371D01*
X158346011Y-109281775D01*
X158613589Y-109335000D01*
X158886411Y-109335000D01*
X159153989Y-109281775D01*
X159406043Y-109177371D01*
X159632886Y-109025799D01*
X159825799Y-108832886D01*
X159977371Y-108606043D01*
X160020000Y-108503127D01*
X160062629Y-108606043D01*
X160214201Y-108832886D01*
X160407114Y-109025799D01*
X160633957Y-109177371D01*
X160886011Y-109281775D01*
X161153589Y-109335000D01*
X161426411Y-109335000D01*
X161693989Y-109281775D01*
X161946043Y-109177371D01*
X162172886Y-109025799D01*
X162365799Y-108832886D01*
X162517371Y-108606043D01*
X162621775Y-108353989D01*
X162675000Y-108086411D01*
X162675000Y-107813589D01*
X162621775Y-107546011D01*
X162517371Y-107293957D01*
X162365799Y-107067114D01*
X162172886Y-106874201D01*
X161946043Y-106722629D01*
X161693989Y-106618225D01*
X161426411Y-106565000D01*
X161153589Y-106565000D01*
X160886011Y-106618225D01*
X160633957Y-106722629D01*
X160407114Y-106874201D01*
X160214201Y-107067114D01*
X160062629Y-107293957D01*
X160020000Y-107396873D01*
X159977371Y-107293957D01*
X159825799Y-107067114D01*
X159632886Y-106874201D01*
X159406043Y-106722629D01*
X159153989Y-106618225D01*
X158886411Y-106565000D01*
X158613589Y-106565000D01*
X158346011Y-106618225D01*
X158093957Y-106722629D01*
X157867114Y-106874201D01*
X157674201Y-107067114D01*
X157522629Y-107293957D01*
X157480000Y-107396873D01*
X157437371Y-107293957D01*
X157285799Y-107067114D01*
X157092886Y-106874201D01*
X156866043Y-106722629D01*
X156613989Y-106618225D01*
X156346411Y-106565000D01*
X156073589Y-106565000D01*
X155806011Y-106618225D01*
X155553957Y-106722629D01*
X155327114Y-106874201D01*
X155134201Y-107067114D01*
X154982629Y-107293957D01*
X154941489Y-107393279D01*
X154926277Y-107351168D01*
X154865860Y-107238137D01*
X154626993Y-107172612D01*
X153849605Y-107950000D01*
X153490395Y-107950000D01*
X152713007Y-107172612D01*
X152474140Y-107238137D01*
X152399836Y-107396477D01*
X152357371Y-107293957D01*
X152205799Y-107067114D01*
X152131692Y-106993007D01*
X152892612Y-106993007D01*
X153670000Y-107770395D01*
X154447388Y-106993007D01*
X154381863Y-106754140D01*
X154134884Y-106638240D01*
X153870040Y-106572750D01*
X153597508Y-106560188D01*
X153327762Y-106601035D01*
X153071168Y-106693723D01*
X152958137Y-106754140D01*
X152892612Y-106993007D01*
X152131692Y-106993007D01*
X152012886Y-106874201D01*
X151786043Y-106722629D01*
X151533989Y-106618225D01*
X151266411Y-106565000D01*
X150993589Y-106565000D01*
X150726011Y-106618225D01*
X150473957Y-106722629D01*
X150247114Y-106874201D01*
X150054201Y-107067114D01*
X149902629Y-107293957D01*
X149860000Y-107396873D01*
X149817371Y-107293957D01*
X149665799Y-107067114D01*
X149472886Y-106874201D01*
X149246043Y-106722629D01*
X148993989Y-106618225D01*
X148726411Y-106565000D01*
X148453589Y-106565000D01*
X148186011Y-106618225D01*
X147933957Y-106722629D01*
X147707114Y-106874201D01*
X147514201Y-107067114D01*
X147362629Y-107293957D01*
X147320000Y-107396873D01*
X147277371Y-107293957D01*
X147125799Y-107067114D01*
X146932886Y-106874201D01*
X146706043Y-106722629D01*
X146453989Y-106618225D01*
X146186411Y-106565000D01*
X145913589Y-106565000D01*
X145646011Y-106618225D01*
X145393957Y-106722629D01*
X145167114Y-106874201D01*
X144974201Y-107067114D01*
X144822629Y-107293957D01*
X144718225Y-107546011D01*
X144665000Y-107813589D01*
X134316358Y-107813589D01*
X134345226Y-107743898D01*
X134385000Y-107543939D01*
X134385000Y-107340061D01*
X134383495Y-107332495D01*
X134391061Y-107334000D01*
X134594939Y-107334000D01*
X134794898Y-107294226D01*
X134983256Y-107216205D01*
X135152774Y-107102937D01*
X135296937Y-106958774D01*
X135410205Y-106789256D01*
X135488226Y-106600898D01*
X135528000Y-106400939D01*
X135528000Y-106318000D01*
X135610939Y-106318000D01*
X135810898Y-106278226D01*
X135999256Y-106200205D01*
X136168774Y-106086937D01*
X136312937Y-105942774D01*
X136426205Y-105773256D01*
X136504226Y-105584898D01*
X136544000Y-105384939D01*
X136544000Y-105181061D01*
X136542794Y-105175000D01*
X136626939Y-105175000D01*
X136826898Y-105135226D01*
X137015256Y-105057205D01*
X137184774Y-104943937D01*
X137328937Y-104799774D01*
X137442205Y-104630256D01*
X137520226Y-104441898D01*
X137560000Y-104241939D01*
X137560000Y-104157794D01*
X137566061Y-104159000D01*
X137769939Y-104159000D01*
X137969898Y-104119226D01*
X138158256Y-104041205D01*
X138162961Y-104038061D01*
X154921000Y-104038061D01*
X154921000Y-104241939D01*
X154960774Y-104441898D01*
X155038795Y-104630256D01*
X155152063Y-104799774D01*
X155296226Y-104943937D01*
X155465744Y-105057205D01*
X155654102Y-105135226D01*
X155854061Y-105175000D01*
X156057939Y-105175000D01*
X156257898Y-105135226D01*
X156446256Y-105057205D01*
X156615774Y-104943937D01*
X156759937Y-104799774D01*
X156873205Y-104630256D01*
X156951226Y-104441898D01*
X156991000Y-104241939D01*
X156991000Y-104038061D01*
X156951226Y-103838102D01*
X156873205Y-103649744D01*
X156759937Y-103480226D01*
X156615774Y-103336063D01*
X156446256Y-103222795D01*
X156257898Y-103144774D01*
X156057939Y-103105000D01*
X155854061Y-103105000D01*
X155654102Y-103144774D01*
X155465744Y-103222795D01*
X155296226Y-103336063D01*
X155152063Y-103480226D01*
X155038795Y-103649744D01*
X154960774Y-103838102D01*
X154921000Y-104038061D01*
X138162961Y-104038061D01*
X138327774Y-103927937D01*
X138471937Y-103783774D01*
X138585205Y-103614256D01*
X138663226Y-103425898D01*
X138703000Y-103225939D01*
X138703000Y-103143000D01*
X138785939Y-103143000D01*
X138985898Y-103103226D01*
X139174256Y-103025205D01*
X139343774Y-102911937D01*
X139487937Y-102767774D01*
X139601205Y-102598256D01*
X139679226Y-102409898D01*
X139711690Y-102246690D01*
X139874898Y-102214226D01*
X140063256Y-102136205D01*
X140232774Y-102022937D01*
X140376937Y-101878774D01*
X140490205Y-101709256D01*
X140568226Y-101520898D01*
X140579619Y-101463619D01*
X140636898Y-101452226D01*
X140825256Y-101374205D01*
X140994774Y-101260937D01*
X141138937Y-101116774D01*
X141252205Y-100947256D01*
X141330226Y-100758898D01*
X141370000Y-100558939D01*
X141370000Y-100476000D01*
X141452939Y-100476000D01*
X141652898Y-100436226D01*
X141841256Y-100358205D01*
X142010774Y-100244937D01*
X142154937Y-100100774D01*
X142268205Y-99931256D01*
X142346226Y-99742898D01*
X142386000Y-99542939D01*
X142386000Y-99460000D01*
X142468939Y-99460000D01*
X142668898Y-99420226D01*
X142857256Y-99342205D01*
X143026774Y-99228937D01*
X143170937Y-99084774D01*
X143284205Y-98915256D01*
X143362226Y-98726898D01*
X143373619Y-98669619D01*
X143430898Y-98658226D01*
X143619256Y-98580205D01*
X143788774Y-98466937D01*
X143932937Y-98322774D01*
X144046205Y-98153256D01*
X144124226Y-97964898D01*
X144156690Y-97801690D01*
X144319898Y-97769226D01*
X144508256Y-97691205D01*
X144677774Y-97577937D01*
X144821937Y-97433774D01*
X144935205Y-97264256D01*
X145013226Y-97075898D01*
X145024619Y-97018619D01*
X145081898Y-97007226D01*
X145270256Y-96929205D01*
X145439774Y-96815937D01*
X145583937Y-96671774D01*
X145697205Y-96502256D01*
X145775226Y-96313898D01*
X145786619Y-96256619D01*
X145843898Y-96245226D01*
X146032256Y-96167205D01*
X146201774Y-96053937D01*
X146345937Y-95909774D01*
X146459205Y-95740256D01*
X146537226Y-95551898D01*
X146548619Y-95494619D01*
X146605898Y-95483226D01*
X146794256Y-95405205D01*
X146963774Y-95291937D01*
X147107937Y-95147774D01*
X147221205Y-94978256D01*
X147272763Y-94853786D01*
X147337744Y-94897205D01*
X147526102Y-94975226D01*
X147726061Y-95015000D01*
X147929939Y-95015000D01*
X148129898Y-94975226D01*
X148318256Y-94897205D01*
X148487774Y-94783937D01*
X148631937Y-94639774D01*
X148745205Y-94470256D01*
X148823226Y-94281898D01*
X148863000Y-94081939D01*
X148863000Y-93878061D01*
X148823226Y-93678102D01*
X148745205Y-93489744D01*
X148733349Y-93472000D01*
X148745205Y-93454256D01*
X148823226Y-93265898D01*
X148863000Y-93065939D01*
X148863000Y-92862061D01*
X148823226Y-92662102D01*
X148745205Y-92473744D01*
X148733349Y-92456000D01*
X148745205Y-92438256D01*
X148823226Y-92249898D01*
X148863000Y-92049939D01*
X148863000Y-91846061D01*
X148823226Y-91646102D01*
X148745205Y-91457744D01*
X148733349Y-91440000D01*
X148745205Y-91422256D01*
X148798438Y-91293740D01*
X156575000Y-91293740D01*
X156575000Y-91586260D01*
X156632068Y-91873158D01*
X156744010Y-92143411D01*
X156906525Y-92386632D01*
X157113368Y-92593475D01*
X157356589Y-92755990D01*
X157626842Y-92867932D01*
X157913740Y-92925000D01*
X158206260Y-92925000D01*
X158493158Y-92867932D01*
X158763411Y-92755990D01*
X159006632Y-92593475D01*
X159213475Y-92386632D01*
X159375990Y-92143411D01*
X159487932Y-91873158D01*
X159545000Y-91586260D01*
X159545000Y-91293740D01*
X163575000Y-91293740D01*
X163575000Y-91586260D01*
X163632068Y-91873158D01*
X163744010Y-92143411D01*
X163906525Y-92386632D01*
X164113368Y-92593475D01*
X164356589Y-92755990D01*
X164626842Y-92867932D01*
X164913740Y-92925000D01*
X165206260Y-92925000D01*
X165493158Y-92867932D01*
X165763411Y-92755990D01*
X166006632Y-92593475D01*
X166213475Y-92386632D01*
X166375990Y-92143411D01*
X166487932Y-91873158D01*
X166545000Y-91586260D01*
X166545000Y-91293740D01*
X166487932Y-91006842D01*
X166375990Y-90736589D01*
X166213475Y-90493368D01*
X166006632Y-90286525D01*
X165763411Y-90124010D01*
X165493158Y-90012068D01*
X165206260Y-89955000D01*
X164913740Y-89955000D01*
X164626842Y-90012068D01*
X164356589Y-90124010D01*
X164113368Y-90286525D01*
X163906525Y-90493368D01*
X163744010Y-90736589D01*
X163632068Y-91006842D01*
X163575000Y-91293740D01*
X159545000Y-91293740D01*
X159487932Y-91006842D01*
X159375990Y-90736589D01*
X159213475Y-90493368D01*
X159006632Y-90286525D01*
X158763411Y-90124010D01*
X158493158Y-90012068D01*
X158206260Y-89955000D01*
X157913740Y-89955000D01*
X157626842Y-90012068D01*
X157356589Y-90124010D01*
X157113368Y-90286525D01*
X156906525Y-90493368D01*
X156744010Y-90736589D01*
X156632068Y-91006842D01*
X156575000Y-91293740D01*
X148798438Y-91293740D01*
X148823226Y-91233898D01*
X148863000Y-91033939D01*
X148863000Y-90830061D01*
X148823226Y-90630102D01*
X148745205Y-90441744D01*
X148733349Y-90424000D01*
X148745205Y-90406256D01*
X148823226Y-90217898D01*
X148863000Y-90017939D01*
X148863000Y-89814061D01*
X148823226Y-89614102D01*
X148745205Y-89425744D01*
X148631937Y-89256226D01*
X148487774Y-89112063D01*
X148318256Y-88998795D01*
X148129898Y-88920774D01*
X147929939Y-88881000D01*
X147726061Y-88881000D01*
X147526102Y-88920774D01*
X147337744Y-88998795D01*
X147272763Y-89042214D01*
X147221205Y-88917744D01*
X147107937Y-88748226D01*
X146963774Y-88604063D01*
X146794256Y-88490795D01*
X146605898Y-88412774D01*
X146405939Y-88373000D01*
X146202061Y-88373000D01*
X146002102Y-88412774D01*
X145813744Y-88490795D01*
X145644226Y-88604063D01*
X145500063Y-88748226D01*
X145386795Y-88917744D01*
X145308774Y-89106102D01*
X145269000Y-89306061D01*
X145269000Y-89509939D01*
X145308774Y-89709898D01*
X145386795Y-89898256D01*
X145500063Y-90067774D01*
X145644226Y-90211937D01*
X145813744Y-90325205D01*
X146002102Y-90403226D01*
X146202061Y-90443000D01*
X146405939Y-90443000D01*
X146605898Y-90403226D01*
X146794256Y-90325205D01*
X146859237Y-90281786D01*
X146910795Y-90406256D01*
X146922651Y-90424000D01*
X146910795Y-90441744D01*
X146832774Y-90630102D01*
X146793000Y-90830061D01*
X146793000Y-91033939D01*
X146832774Y-91233898D01*
X146910795Y-91422256D01*
X146922651Y-91440000D01*
X146910795Y-91457744D01*
X146832774Y-91646102D01*
X146793000Y-91846061D01*
X146793000Y-92049939D01*
X146832774Y-92249898D01*
X146910795Y-92438256D01*
X146922651Y-92456000D01*
X146910795Y-92473744D01*
X146832774Y-92662102D01*
X146793000Y-92862061D01*
X146793000Y-93065939D01*
X146832774Y-93265898D01*
X146910795Y-93454256D01*
X146922651Y-93472000D01*
X146910795Y-93489744D01*
X146859237Y-93614214D01*
X146794256Y-93570795D01*
X146605898Y-93492774D01*
X146405939Y-93453000D01*
X146202061Y-93453000D01*
X146002102Y-93492774D01*
X145813744Y-93570795D01*
X145644226Y-93684063D01*
X145500063Y-93828226D01*
X145386795Y-93997744D01*
X145308774Y-94186102D01*
X145297381Y-94243381D01*
X145240102Y-94254774D01*
X145051744Y-94332795D01*
X144882226Y-94446063D01*
X144738063Y-94590226D01*
X144624795Y-94759744D01*
X144546774Y-94948102D01*
X144535381Y-95005381D01*
X144478102Y-95016774D01*
X144289744Y-95094795D01*
X144120226Y-95208063D01*
X143976063Y-95352226D01*
X143862795Y-95521744D01*
X143784774Y-95710102D01*
X143773381Y-95767381D01*
X143716102Y-95778774D01*
X143527744Y-95856795D01*
X143358226Y-95970063D01*
X143214063Y-96114226D01*
X143100795Y-96283744D01*
X143022774Y-96472102D01*
X142990310Y-96635310D01*
X142827102Y-96667774D01*
X142638744Y-96745795D01*
X142469226Y-96859063D01*
X142325063Y-97003226D01*
X142211795Y-97172744D01*
X142133774Y-97361102D01*
X142122381Y-97418381D01*
X142065102Y-97429774D01*
X141876744Y-97507795D01*
X141707226Y-97621063D01*
X141563063Y-97765226D01*
X141449795Y-97934744D01*
X141371774Y-98123102D01*
X141332000Y-98323061D01*
X141332000Y-98406000D01*
X141249061Y-98406000D01*
X141049102Y-98445774D01*
X140860744Y-98523795D01*
X140691226Y-98637063D01*
X140547063Y-98781226D01*
X140433795Y-98950744D01*
X140355774Y-99139102D01*
X140316000Y-99339061D01*
X140316000Y-99422000D01*
X140233061Y-99422000D01*
X140033102Y-99461774D01*
X139844744Y-99539795D01*
X139675226Y-99653063D01*
X139531063Y-99797226D01*
X139417795Y-99966744D01*
X139339774Y-100155102D01*
X139328381Y-100212381D01*
X139271102Y-100223774D01*
X139082744Y-100301795D01*
X138913226Y-100415063D01*
X138769063Y-100559226D01*
X138655795Y-100728744D01*
X138577774Y-100917102D01*
X138545310Y-101080310D01*
X138382102Y-101112774D01*
X138193744Y-101190795D01*
X138024226Y-101304063D01*
X137880063Y-101448226D01*
X137766795Y-101617744D01*
X137688774Y-101806102D01*
X137649000Y-102006061D01*
X137649000Y-102089000D01*
X137566061Y-102089000D01*
X137366102Y-102128774D01*
X137177744Y-102206795D01*
X137008226Y-102320063D01*
X136864063Y-102464226D01*
X136750795Y-102633744D01*
X136672774Y-102822102D01*
X136633000Y-103022061D01*
X136633000Y-103106206D01*
X136626939Y-103105000D01*
X136423061Y-103105000D01*
X136223102Y-103144774D01*
X136034744Y-103222795D01*
X135865226Y-103336063D01*
X135721063Y-103480226D01*
X135607795Y-103649744D01*
X135529774Y-103838102D01*
X135490000Y-104038061D01*
X135490000Y-104241939D01*
X135491206Y-104248000D01*
X135407061Y-104248000D01*
X135207102Y-104287774D01*
X135018744Y-104365795D01*
X134849226Y-104479063D01*
X134705063Y-104623226D01*
X134591795Y-104792744D01*
X134513774Y-104981102D01*
X134474000Y-105181061D01*
X134474000Y-105264000D01*
X134391061Y-105264000D01*
X134191102Y-105303774D01*
X134002744Y-105381795D01*
X133833226Y-105495063D01*
X133689063Y-105639226D01*
X133575795Y-105808744D01*
X133497774Y-105997102D01*
X133458000Y-106197061D01*
X133458000Y-106400939D01*
X133459505Y-106408505D01*
X133451939Y-106407000D01*
X133248061Y-106407000D01*
X133048102Y-106446774D01*
X132859744Y-106524795D01*
X132690226Y-106638063D01*
X132546063Y-106782226D01*
X132432795Y-106951744D01*
X132354774Y-107140102D01*
X132315000Y-107340061D01*
X132315000Y-107543939D01*
X132316206Y-107550000D01*
X132232061Y-107550000D01*
X132032102Y-107589774D01*
X131843744Y-107667795D01*
X131674226Y-107781063D01*
X131567072Y-107888217D01*
X131427256Y-107794795D01*
X131238898Y-107716774D01*
X131038939Y-107677000D01*
X130835061Y-107677000D01*
X130635102Y-107716774D01*
X130446744Y-107794795D01*
X130277226Y-107908063D01*
X130133063Y-108052226D01*
X130019795Y-108221744D01*
X129941774Y-108410102D01*
X129902000Y-108610061D01*
X113039825Y-108610061D01*
X113139853Y-108368574D01*
X113195000Y-108091335D01*
X113195000Y-107808665D01*
X113139853Y-107531426D01*
X113031680Y-107270273D01*
X112874637Y-107035241D01*
X112674759Y-106835363D01*
X112442241Y-106680000D01*
X112674759Y-106524637D01*
X112874637Y-106324759D01*
X113031680Y-106089727D01*
X113139853Y-105828574D01*
X113195000Y-105551335D01*
X113195000Y-105268665D01*
X113139853Y-104991426D01*
X113031680Y-104730273D01*
X112874637Y-104495241D01*
X112674759Y-104295363D01*
X112442241Y-104140000D01*
X112674759Y-103984637D01*
X112874637Y-103784759D01*
X113031680Y-103549727D01*
X113139853Y-103288574D01*
X113195000Y-103011335D01*
X113195000Y-102728665D01*
X113139853Y-102451426D01*
X113031680Y-102190273D01*
X112874637Y-101955241D01*
X112674759Y-101755363D01*
X112442241Y-101600000D01*
X112674759Y-101444637D01*
X112874637Y-101244759D01*
X113031680Y-101009727D01*
X113039825Y-100990061D01*
X115551000Y-100990061D01*
X115551000Y-101193939D01*
X115590774Y-101393898D01*
X115668795Y-101582256D01*
X115782063Y-101751774D01*
X115926226Y-101895937D01*
X116095744Y-102009205D01*
X116284102Y-102087226D01*
X116484061Y-102127000D01*
X116568206Y-102127000D01*
X116567000Y-102133061D01*
X116567000Y-102336939D01*
X116606774Y-102536898D01*
X116684795Y-102725256D01*
X116798063Y-102894774D01*
X116942226Y-103038937D01*
X117111744Y-103152205D01*
X117300102Y-103230226D01*
X117500061Y-103270000D01*
X117703939Y-103270000D01*
X117903898Y-103230226D01*
X118092256Y-103152205D01*
X118261774Y-103038937D01*
X118405937Y-102894774D01*
X118519205Y-102725256D01*
X118597226Y-102536898D01*
X118637000Y-102336939D01*
X118637000Y-102133061D01*
X118597226Y-101933102D01*
X118519205Y-101744744D01*
X118405937Y-101575226D01*
X118261774Y-101431063D01*
X118092256Y-101317795D01*
X117903898Y-101239774D01*
X117703939Y-101200000D01*
X117619794Y-101200000D01*
X117621000Y-101193939D01*
X117621000Y-100990061D01*
X117581226Y-100790102D01*
X117503205Y-100601744D01*
X117389937Y-100432226D01*
X117245774Y-100288063D01*
X117076256Y-100174795D01*
X116887898Y-100096774D01*
X116687939Y-100057000D01*
X116484061Y-100057000D01*
X116284102Y-100096774D01*
X116095744Y-100174795D01*
X115926226Y-100288063D01*
X115782063Y-100432226D01*
X115668795Y-100601744D01*
X115590774Y-100790102D01*
X115551000Y-100990061D01*
X113039825Y-100990061D01*
X113139853Y-100748574D01*
X113195000Y-100471335D01*
X113195000Y-100188665D01*
X113139853Y-99911426D01*
X113031680Y-99650273D01*
X112874637Y-99415241D01*
X112674759Y-99215363D01*
X112442241Y-99060000D01*
X112674759Y-98904637D01*
X112874637Y-98704759D01*
X113031680Y-98469727D01*
X113139853Y-98208574D01*
X113195000Y-97931335D01*
X113195000Y-97648665D01*
X113139853Y-97371426D01*
X113031680Y-97110273D01*
X112874637Y-96875241D01*
X112674759Y-96675363D01*
X112442241Y-96520000D01*
X112674759Y-96364637D01*
X112874637Y-96164759D01*
X113031680Y-95929727D01*
X113139853Y-95668574D01*
X113195000Y-95391335D01*
X113195000Y-95108665D01*
X113139853Y-94831426D01*
X113031680Y-94570273D01*
X112874637Y-94335241D01*
X112674759Y-94135363D01*
X112439727Y-93978320D01*
X112178574Y-93870147D01*
X111901335Y-93815000D01*
X111618665Y-93815000D01*
X111341426Y-93870147D01*
X111080273Y-93978320D01*
X110845241Y-94135363D01*
X110645363Y-94335241D01*
X110490000Y-94567759D01*
X110334637Y-94335241D01*
X110134759Y-94135363D01*
X109899727Y-93978320D01*
X109638574Y-93870147D01*
X109361335Y-93815000D01*
X109078665Y-93815000D01*
X108801426Y-93870147D01*
X108540273Y-93978320D01*
X108305241Y-94135363D01*
X108105363Y-94335241D01*
X107950000Y-94567759D01*
X107794637Y-94335241D01*
X107594759Y-94135363D01*
X107359727Y-93978320D01*
X107098574Y-93870147D01*
X106821335Y-93815000D01*
X106538665Y-93815000D01*
X106261426Y-93870147D01*
X106000273Y-93978320D01*
X105765241Y-94135363D01*
X105565363Y-94335241D01*
X105410000Y-94567759D01*
X105254637Y-94335241D01*
X105054759Y-94135363D01*
X104819727Y-93978320D01*
X104558574Y-93870147D01*
X104281335Y-93815000D01*
X103998665Y-93815000D01*
X103721426Y-93870147D01*
X103460273Y-93978320D01*
X103225241Y-94135363D01*
X103025363Y-94335241D01*
X102870000Y-94567759D01*
X102714637Y-94335241D01*
X102514759Y-94135363D01*
X102279727Y-93978320D01*
X102018574Y-93870147D01*
X101741335Y-93815000D01*
X101458665Y-93815000D01*
X101181426Y-93870147D01*
X100920273Y-93978320D01*
X100685241Y-94135363D01*
X100485363Y-94335241D01*
X100330000Y-94567759D01*
X100174637Y-94335241D01*
X99974759Y-94135363D01*
X99739727Y-93978320D01*
X99478574Y-93870147D01*
X99201335Y-93815000D01*
X98918665Y-93815000D01*
X98641426Y-93870147D01*
X98380273Y-93978320D01*
X98145241Y-94135363D01*
X97945363Y-94335241D01*
X97790000Y-94567759D01*
X97634637Y-94335241D01*
X97434759Y-94135363D01*
X97199727Y-93978320D01*
X96938574Y-93870147D01*
X96661335Y-93815000D01*
X96378665Y-93815000D01*
X96101426Y-93870147D01*
X95840273Y-93978320D01*
X95605241Y-94135363D01*
X95405363Y-94335241D01*
X95250000Y-94567759D01*
X95094637Y-94335241D01*
X94894759Y-94135363D01*
X94659727Y-93978320D01*
X94398574Y-93870147D01*
X94121335Y-93815000D01*
X93838665Y-93815000D01*
X93561426Y-93870147D01*
X93300273Y-93978320D01*
X93065241Y-94135363D01*
X92865363Y-94335241D01*
X92710000Y-94567759D01*
X92554637Y-94335241D01*
X92354759Y-94135363D01*
X92119727Y-93978320D01*
X91858574Y-93870147D01*
X91581335Y-93815000D01*
X91298665Y-93815000D01*
X91021426Y-93870147D01*
X90760273Y-93978320D01*
X90525241Y-94135363D01*
X90325363Y-94335241D01*
X90170000Y-94567759D01*
X90014637Y-94335241D01*
X89814759Y-94135363D01*
X89579727Y-93978320D01*
X89318574Y-93870147D01*
X89041335Y-93815000D01*
X88758665Y-93815000D01*
X88481426Y-93870147D01*
X88220273Y-93978320D01*
X87985241Y-94135363D01*
X87785363Y-94335241D01*
X87630000Y-94567759D01*
X87474637Y-94335241D01*
X87274759Y-94135363D01*
X87039727Y-93978320D01*
X86778574Y-93870147D01*
X86501335Y-93815000D01*
X86218665Y-93815000D01*
X85941426Y-93870147D01*
X85680273Y-93978320D01*
X85445241Y-94135363D01*
X85245363Y-94335241D01*
X85090000Y-94567759D01*
X84934637Y-94335241D01*
X84734759Y-94135363D01*
X84499727Y-93978320D01*
X84238574Y-93870147D01*
X83961335Y-93815000D01*
X83678665Y-93815000D01*
X83401426Y-93870147D01*
X83140273Y-93978320D01*
X82905241Y-94135363D01*
X82705363Y-94335241D01*
X82550000Y-94567759D01*
X82394637Y-94335241D01*
X82194759Y-94135363D01*
X81959727Y-93978320D01*
X81698574Y-93870147D01*
X81421335Y-93815000D01*
X81138665Y-93815000D01*
X80861426Y-93870147D01*
X80600273Y-93978320D01*
X80365241Y-94135363D01*
X80165363Y-94335241D01*
X80010000Y-94567759D01*
X79854637Y-94335241D01*
X79654759Y-94135363D01*
X79419727Y-93978320D01*
X79158574Y-93870147D01*
X78881335Y-93815000D01*
X78598665Y-93815000D01*
X78321426Y-93870147D01*
X78060273Y-93978320D01*
X77825241Y-94135363D01*
X77625363Y-94335241D01*
X77468320Y-94570273D01*
X77360147Y-94831426D01*
X77305000Y-95108665D01*
X75590000Y-95108665D01*
X75590000Y-91084061D01*
X112376000Y-91084061D01*
X112376000Y-91287939D01*
X112415774Y-91487898D01*
X112493795Y-91676256D01*
X112607063Y-91845774D01*
X112751226Y-91989937D01*
X112920744Y-92103205D01*
X113109102Y-92181226D01*
X113309061Y-92221000D01*
X113512939Y-92221000D01*
X113712898Y-92181226D01*
X113901256Y-92103205D01*
X113919000Y-92091349D01*
X113936744Y-92103205D01*
X114125102Y-92181226D01*
X114325061Y-92221000D01*
X114528939Y-92221000D01*
X114728898Y-92181226D01*
X114835897Y-92136905D01*
X114828774Y-92154102D01*
X114789000Y-92354061D01*
X114789000Y-92557939D01*
X114828774Y-92757898D01*
X114906795Y-92946256D01*
X115020063Y-93115774D01*
X115164226Y-93259937D01*
X115333744Y-93373205D01*
X115522102Y-93451226D01*
X115722061Y-93491000D01*
X115925939Y-93491000D01*
X116125898Y-93451226D01*
X116314256Y-93373205D01*
X116483774Y-93259937D01*
X116627937Y-93115774D01*
X116741205Y-92946256D01*
X116819226Y-92757898D01*
X116859000Y-92557939D01*
X116859000Y-92354061D01*
X116819226Y-92154102D01*
X116741205Y-91965744D01*
X116627937Y-91796226D01*
X116483774Y-91652063D01*
X116314256Y-91538795D01*
X116125898Y-91460774D01*
X115925939Y-91421000D01*
X115722061Y-91421000D01*
X115522102Y-91460774D01*
X115415103Y-91505095D01*
X115422226Y-91487898D01*
X115462000Y-91287939D01*
X115462000Y-91084061D01*
X116440000Y-91084061D01*
X116440000Y-91287939D01*
X116479774Y-91487898D01*
X116557795Y-91676256D01*
X116671063Y-91845774D01*
X116815226Y-91989937D01*
X116984744Y-92103205D01*
X117173102Y-92181226D01*
X117373061Y-92221000D01*
X117576939Y-92221000D01*
X117776898Y-92181226D01*
X117965256Y-92103205D01*
X118046500Y-92048920D01*
X118127744Y-92103205D01*
X118316102Y-92181226D01*
X118516061Y-92221000D01*
X118719939Y-92221000D01*
X118919898Y-92181226D01*
X119108256Y-92103205D01*
X119189500Y-92048920D01*
X119270744Y-92103205D01*
X119459102Y-92181226D01*
X119659061Y-92221000D01*
X119862939Y-92221000D01*
X120062898Y-92181226D01*
X120251256Y-92103205D01*
X120420774Y-91989937D01*
X120564937Y-91845774D01*
X120678205Y-91676256D01*
X120756226Y-91487898D01*
X120767619Y-91430619D01*
X120824898Y-91419226D01*
X121013256Y-91341205D01*
X121182774Y-91227937D01*
X121326937Y-91083774D01*
X121440205Y-90914256D01*
X121518226Y-90725898D01*
X121548030Y-90576061D01*
X133839000Y-90576061D01*
X133839000Y-90779939D01*
X133878774Y-90979898D01*
X133956795Y-91168256D01*
X134070063Y-91337774D01*
X134214226Y-91481937D01*
X134383744Y-91595205D01*
X134572102Y-91673226D01*
X134772061Y-91713000D01*
X134975939Y-91713000D01*
X135142039Y-91679961D01*
X135109000Y-91846061D01*
X135109000Y-92049939D01*
X135148774Y-92249898D01*
X135226795Y-92438256D01*
X135340063Y-92607774D01*
X135484226Y-92751937D01*
X135653744Y-92865205D01*
X135842102Y-92943226D01*
X136042061Y-92983000D01*
X136245939Y-92983000D01*
X136445898Y-92943226D01*
X136634256Y-92865205D01*
X136652000Y-92853349D01*
X136669744Y-92865205D01*
X136858102Y-92943226D01*
X137058061Y-92983000D01*
X137261939Y-92983000D01*
X137461898Y-92943226D01*
X137650256Y-92865205D01*
X137668000Y-92853349D01*
X137685744Y-92865205D01*
X137874102Y-92943226D01*
X138074061Y-92983000D01*
X138277939Y-92983000D01*
X138477898Y-92943226D01*
X138666256Y-92865205D01*
X138835774Y-92751937D01*
X138979937Y-92607774D01*
X139093205Y-92438256D01*
X139171226Y-92249898D01*
X139211000Y-92049939D01*
X139211000Y-91846061D01*
X139171226Y-91646102D01*
X139093205Y-91457744D01*
X138979937Y-91288226D01*
X138835774Y-91144063D01*
X138666256Y-91030795D01*
X138477898Y-90952774D01*
X138277939Y-90913000D01*
X138074061Y-90913000D01*
X137874102Y-90952774D01*
X137685744Y-91030795D01*
X137668000Y-91042651D01*
X137650256Y-91030795D01*
X137461898Y-90952774D01*
X137261939Y-90913000D01*
X137058061Y-90913000D01*
X136858102Y-90952774D01*
X136669744Y-91030795D01*
X136652000Y-91042651D01*
X136634256Y-91030795D01*
X136445898Y-90952774D01*
X136245939Y-90913000D01*
X136042061Y-90913000D01*
X135875961Y-90946039D01*
X135909000Y-90779939D01*
X135909000Y-90576061D01*
X135869226Y-90376102D01*
X135791205Y-90187744D01*
X135677937Y-90018226D01*
X135533774Y-89874063D01*
X135364256Y-89760795D01*
X135175898Y-89682774D01*
X134975939Y-89643000D01*
X134772061Y-89643000D01*
X134572102Y-89682774D01*
X134383744Y-89760795D01*
X134214226Y-89874063D01*
X134070063Y-90018226D01*
X133956795Y-90187744D01*
X133878774Y-90376102D01*
X133839000Y-90576061D01*
X121548030Y-90576061D01*
X121558000Y-90525939D01*
X121558000Y-90322061D01*
X121518226Y-90122102D01*
X121440205Y-89933744D01*
X121326937Y-89764226D01*
X121182774Y-89620063D01*
X121013256Y-89506795D01*
X120824898Y-89428774D01*
X120624939Y-89389000D01*
X120421061Y-89389000D01*
X120221102Y-89428774D01*
X120032744Y-89506795D01*
X119863226Y-89620063D01*
X119719063Y-89764226D01*
X119605795Y-89933744D01*
X119527774Y-90122102D01*
X119516381Y-90179381D01*
X119459102Y-90190774D01*
X119270744Y-90268795D01*
X119189500Y-90323080D01*
X119108256Y-90268795D01*
X118919898Y-90190774D01*
X118719939Y-90151000D01*
X118516061Y-90151000D01*
X118316102Y-90190774D01*
X118127744Y-90268795D01*
X118046500Y-90323080D01*
X117965256Y-90268795D01*
X117776898Y-90190774D01*
X117576939Y-90151000D01*
X117373061Y-90151000D01*
X117173102Y-90190774D01*
X116984744Y-90268795D01*
X116815226Y-90382063D01*
X116671063Y-90526226D01*
X116557795Y-90695744D01*
X116479774Y-90884102D01*
X116440000Y-91084061D01*
X115462000Y-91084061D01*
X115422226Y-90884102D01*
X115344205Y-90695744D01*
X115230937Y-90526226D01*
X115086774Y-90382063D01*
X114917256Y-90268795D01*
X114728898Y-90190774D01*
X114528939Y-90151000D01*
X114325061Y-90151000D01*
X114125102Y-90190774D01*
X113936744Y-90268795D01*
X113919000Y-90280651D01*
X113901256Y-90268795D01*
X113712898Y-90190774D01*
X113512939Y-90151000D01*
X113309061Y-90151000D01*
X113109102Y-90190774D01*
X112920744Y-90268795D01*
X112751226Y-90382063D01*
X112607063Y-90526226D01*
X112493795Y-90695744D01*
X112415774Y-90884102D01*
X112376000Y-91084061D01*
X75590000Y-91084061D01*
X75590000Y-87637980D01*
X80491626Y-87637980D01*
X80611514Y-87922836D01*
X80935210Y-88083699D01*
X81284069Y-88178322D01*
X81644684Y-88203067D01*
X82003198Y-88156985D01*
X82345833Y-88041846D01*
X82568486Y-87922836D01*
X82688374Y-87637980D01*
X81590000Y-86539605D01*
X80491626Y-87637980D01*
X75590000Y-87637980D01*
X75590000Y-86414684D01*
X79746933Y-86414684D01*
X79793015Y-86773198D01*
X79908154Y-87115833D01*
X80027164Y-87338486D01*
X80312020Y-87458374D01*
X81410395Y-86360000D01*
X81769605Y-86360000D01*
X82867980Y-87458374D01*
X83152836Y-87338486D01*
X83251928Y-87139088D01*
X83251928Y-87560000D01*
X83264188Y-87684482D01*
X83300498Y-87804180D01*
X83359463Y-87914494D01*
X83438815Y-88011185D01*
X83535506Y-88090537D01*
X83645820Y-88149502D01*
X83765518Y-88185812D01*
X83890000Y-88198072D01*
X86290000Y-88198072D01*
X86414482Y-88185812D01*
X86534180Y-88149502D01*
X86644494Y-88090537D01*
X86741185Y-88011185D01*
X86820537Y-87914494D01*
X86879502Y-87804180D01*
X86915812Y-87684482D01*
X86928072Y-87560000D01*
X86928072Y-87528061D01*
X133839000Y-87528061D01*
X133839000Y-87731939D01*
X133878774Y-87931898D01*
X133956795Y-88120256D01*
X134070063Y-88289774D01*
X134214226Y-88433937D01*
X134383744Y-88547205D01*
X134572102Y-88625226D01*
X134772061Y-88665000D01*
X134975939Y-88665000D01*
X135175898Y-88625226D01*
X135364256Y-88547205D01*
X135533774Y-88433937D01*
X135677937Y-88289774D01*
X135791205Y-88120256D01*
X135869226Y-87931898D01*
X135909000Y-87731939D01*
X135909000Y-87528061D01*
X135869226Y-87328102D01*
X135791205Y-87139744D01*
X135677937Y-86970226D01*
X135533774Y-86826063D01*
X135364256Y-86712795D01*
X135175898Y-86634774D01*
X134975939Y-86595000D01*
X134772061Y-86595000D01*
X134572102Y-86634774D01*
X134383744Y-86712795D01*
X134214226Y-86826063D01*
X134070063Y-86970226D01*
X133956795Y-87139744D01*
X133878774Y-87328102D01*
X133839000Y-87528061D01*
X86928072Y-87528061D01*
X86928072Y-85160000D01*
X86915812Y-85035518D01*
X86879502Y-84915820D01*
X86820537Y-84805506D01*
X86741185Y-84708815D01*
X86644494Y-84629463D01*
X86534180Y-84570498D01*
X86414482Y-84534188D01*
X86290000Y-84521928D01*
X83890000Y-84521928D01*
X83765518Y-84534188D01*
X83645820Y-84570498D01*
X83535506Y-84629463D01*
X83438815Y-84708815D01*
X83359463Y-84805506D01*
X83300498Y-84915820D01*
X83264188Y-85035518D01*
X83251928Y-85160000D01*
X83251928Y-85566903D01*
X83152836Y-85381514D01*
X82867980Y-85261626D01*
X81769605Y-86360000D01*
X81410395Y-86360000D01*
X80312020Y-85261626D01*
X80027164Y-85381514D01*
X79866301Y-85705210D01*
X79771678Y-86054069D01*
X79746933Y-86414684D01*
X75590000Y-86414684D01*
X75590000Y-85082020D01*
X80491626Y-85082020D01*
X81590000Y-86180395D01*
X82688374Y-85082020D01*
X82568486Y-84797164D01*
X82244790Y-84636301D01*
X81895931Y-84541678D01*
X81535316Y-84516933D01*
X81176802Y-84563015D01*
X80834167Y-84678154D01*
X80611514Y-84797164D01*
X80491626Y-85082020D01*
X75590000Y-85082020D01*
X75590000Y-81940000D01*
X173330000Y-81940000D01*
X173330001Y-145390000D01*
G37*
%TD.AperFunction*%
%TD*%
M02*
